<?xml version="1.0" encoding="UTF-8" standalone="no"?>
<!-- This is a Stata 15.1 generated SVG file (http://www.stata.com) -->

<svg version="1.1" width="5.50in" height="4.00in" viewBox="0 0 3960 2880" xmlns="http://www.w3.org/2000/svg" xmlns:xlink="http://www.w3.org/1999/xlink">
	<desc>Stata Graph - eng_Gr2_Baseline</desc>
	<rect x="0" y="0" width="3960" height="2880" style="fill:#EAF2F3;stroke:none"/>
	<rect x="0.00" y="0.00" width="3959.88" height="2880.00" style="fill:#EAF2F3"/>
	<rect x="2.88" y="2.88" width="3954.12" height="2874.24" style="fill:none;stroke:#EAF2F3;stroke-width:5.76"/>
	<rect x="390.80" y="100.86" width="3468.22" height="2388.33" style="fill:#FFFFFF"/>
	<rect x="393.68" y="103.74" width="3462.46" height="2382.57" style="fill:none;stroke:#FFFFFF;stroke-width:5.76"/>
	<line x1="390.80" y1="2489.19" x2="3859.02" y2="2489.19" style="stroke:#EAF2F3;stroke-width:8.64"/>
	<line x1="390.80" y1="1714.24" x2="3859.02" y2="1714.24" style="stroke:#EAF2F3;stroke-width:8.64"/>
	<line x1="390.80" y1="939.17" x2="3859.02" y2="939.17" style="stroke:#EAF2F3;stroke-width:8.64"/>
	<line x1="390.80" y1="164.22" x2="3859.02" y2="164.22" style="stroke:#EAF2F3;stroke-width:8.64"/>
	<rect x="504.03" y="330.55" width="99.74" height="2158.64" style="fill:#C10534"/>
	<rect x="508.35" y="334.87" width="91.10" height="2150.00" style="fill:none;stroke:#C10534;stroke-width:8.64"/>
	<rect x="603.78" y="2224.10" width="99.74" height="265.08" style="fill:#C10534"/>
	<rect x="608.10" y="2228.42" width="91.10" height="256.44" style="fill:none;stroke:#C10534;stroke-width:8.64"/>
	<rect x="703.52" y="2106.04" width="99.74" height="383.14" style="fill:#C10534"/>
	<rect x="707.84" y="2110.36" width="91.10" height="374.50" style="fill:none;stroke:#C10534;stroke-width:8.64"/>
	<rect x="803.26" y="2144.28" width="99.74" height="344.90" style="fill:#C10534"/>
	<rect x="807.58" y="2148.60" width="91.10" height="336.26" style="fill:none;stroke:#C10534;stroke-width:8.64"/>
	<rect x="903.00" y="2102.83" width="99.74" height="386.36" style="fill:#C10534"/>
	<rect x="907.32" y="2107.15" width="91.10" height="377.72" style="fill:none;stroke:#C10534;stroke-width:8.64"/>
	<rect x="1002.75" y="2112.35" width="99.74" height="376.83" style="fill:#C10534"/>
	<rect x="1007.07" y="2116.67" width="91.10" height="368.19" style="fill:none;stroke:#C10534;stroke-width:8.64"/>
	<rect x="1102.49" y="2224.10" width="99.74" height="265.08" style="fill:#C10534"/>
	<rect x="1106.81" y="2228.42" width="91.10" height="256.44" style="fill:none;stroke:#C10534;stroke-width:8.64"/>
	<rect x="1202.23" y="2157.15" width="99.74" height="332.03" style="fill:#C10534"/>
	<rect x="1206.55" y="2161.47" width="91.10" height="323.39" style="fill:none;stroke:#C10534;stroke-width:8.64"/>
	<rect x="1301.97" y="2176.21" width="99.74" height="312.97" style="fill:#C10534"/>
	<rect x="1306.29" y="2180.53" width="91.10" height="304.33" style="fill:none;stroke:#C10534;stroke-width:8.64"/>
	<rect x="1401.72" y="2147.50" width="99.74" height="341.68" style="fill:#C10534"/>
	<rect x="1406.04" y="2151.82" width="91.10" height="333.04" style="fill:none;stroke:#C10534;stroke-width:8.64"/>
	<rect x="1501.46" y="2147.50" width="99.74" height="341.68" style="fill:#C10534"/>
	<rect x="1505.78" y="2151.82" width="91.10" height="333.04" style="fill:none;stroke:#C10534;stroke-width:8.64"/>
	<rect x="1601.20" y="2163.47" width="99.74" height="325.72" style="fill:#C10534"/>
	<rect x="1605.52" y="2167.78" width="91.10" height="317.08" style="fill:none;stroke:#C10534;stroke-width:8.64"/>
	<rect x="1700.94" y="2265.69" width="99.74" height="223.50" style="fill:#C10534"/>
	<rect x="1705.26" y="2270.01" width="91.10" height="214.86" style="fill:none;stroke:#C10534;stroke-width:8.64"/>
	<rect x="1800.69" y="2128.32" width="99.87" height="360.87" style="fill:#C10534"/>
	<rect x="1805.01" y="2132.64" width="91.23" height="352.23" style="fill:none;stroke:#C10534;stroke-width:8.64"/>
	<rect x="1900.55" y="2221.01" width="99.74" height="268.17" style="fill:#C10534"/>
	<rect x="1904.87" y="2225.33" width="91.10" height="259.53" style="fill:none;stroke:#C10534;stroke-width:8.64"/>
	<rect x="2000.30" y="2233.76" width="99.74" height="255.43" style="fill:#C10534"/>
	<rect x="2004.61" y="2238.08" width="91.10" height="246.79" style="fill:none;stroke:#C10534;stroke-width:8.64"/>
	<rect x="2100.04" y="2313.58" width="99.74" height="175.61" style="fill:#C10534"/>
	<rect x="2104.36" y="2317.90" width="91.10" height="166.97" style="fill:none;stroke:#C10534;stroke-width:8.64"/>
	<rect x="2199.78" y="2345.51" width="99.74" height="143.68" style="fill:#C10534"/>
	<rect x="2204.10" y="2349.83" width="91.10" height="135.04" style="fill:none;stroke:#C10534;stroke-width:8.64"/>
	<rect x="2299.52" y="2329.54" width="99.74" height="159.64" style="fill:#C10534"/>
	<rect x="2303.84" y="2333.86" width="91.10" height="151.00" style="fill:none;stroke:#C10534;stroke-width:8.64"/>
	<rect x="2399.26" y="2402.93" width="99.74" height="86.26" style="fill:#C10534"/>
	<rect x="2403.58" y="2407.25" width="91.10" height="77.62" style="fill:none;stroke:#C10534;stroke-width:8.64"/>
	<rect x="2499.01" y="2450.95" width="99.74" height="38.24" style="fill:#C10534"/>
	<rect x="2503.33" y="2455.27" width="91.10" height="29.60" style="fill:none;stroke:#C10534;stroke-width:8.64"/>
	<rect x="2598.75" y="2431.76" width="99.74" height="57.42" style="fill:#C10534"/>
	<rect x="2603.07" y="2436.08" width="91.10" height="48.78" style="fill:none;stroke:#C10534;stroke-width:8.64"/>
	<rect x="2698.49" y="2441.29" width="99.74" height="47.89" style="fill:#C10534"/>
	<rect x="2702.81" y="2445.61" width="91.10" height="39.25" style="fill:none;stroke:#C10534;stroke-width:8.64"/>
	<rect x="2798.24" y="2460.47" width="99.74" height="28.71" style="fill:#C10534"/>
	<rect x="2802.55" y="2464.79" width="91.10" height="20.07" style="fill:none;stroke:#C10534;stroke-width:8.64"/>
	<rect x="2897.98" y="2476.44" width="99.74" height="12.75" style="fill:#C10534"/>
	<rect x="2902.30" y="2480.76" width="91.10" height="4.11" style="fill:none;stroke:#C10534;stroke-width:8.64"/>
	<rect x="2997.72" y="2479.66" width="99.74" height="9.53" style="fill:#C10534"/>
	<rect x="3002.04" y="2483.98" width="91.10" height="0.89" style="fill:none;stroke:#C10534;stroke-width:8.64"/>
	<rect x="3097.46" y="2476.44" width="99.74" height="12.75" style="fill:#C10534"/>
	<rect x="3101.78" y="2480.76" width="91.10" height="4.11" style="fill:none;stroke:#C10534;stroke-width:8.64"/>
	<rect x="3197.20" y="2470.00" width="99.74" height="19.18" style="fill:#C10534"/>
	<rect x="3201.52" y="2474.32" width="91.10" height="10.54" style="fill:none;stroke:#C10534;stroke-width:8.64"/>
	<rect x="3296.95" y="2485.97" width="99.74" height="3.22" style="fill:#C10534"/>
	<rect x="3301.27" y="2490.29" width="91.10" height="-5.42" style="fill:none;stroke:#C10534;stroke-width:8.64"/>
	<rect x="3396.69" y="2485.97" width="99.74" height="3.22" style="fill:#C10534"/>
	<rect x="3401.01" y="2490.29" width="91.10" height="-5.42" style="fill:none;stroke:#C10534;stroke-width:8.64"/>
	<rect x="3496.43" y="2485.97" width="99.74" height="3.22" style="fill:#C10534"/>
	<rect x="3500.75" y="2490.29" width="91.10" height="-5.42" style="fill:none;stroke:#C10534;stroke-width:8.64"/>
	<rect x="3596.18" y="2485.97" width="99.74" height="3.22" style="fill:#C10534"/>
	<rect x="3600.49" y="2490.29" width="91.10" height="-5.42" style="fill:none;stroke:#C10534;stroke-width:8.64"/>
	<rect x="3695.92" y="2485.97" width="99.74" height="3.22" style="fill:#C10534"/>
	<rect x="3700.24" y="2490.29" width="91.10" height="-5.42" style="fill:none;stroke:#C10534;stroke-width:8.64"/>
	<text x="3855.55" y="-188.35" style="font-family:'Helvetica';font-size:99.99px;fill:#000000" text-anchor="middle">eng Gr2_Baseline</text>
	<line x1="390.80" y1="2489.19" x2="390.80" y2="100.86" style="stroke:#000000;stroke-width:5.76"/>
	<line x1="390.80" y1="2489.19" x2="350.83" y2="2489.19" style="stroke:#000000;stroke-width:5.76"/>
	<text x="300.72" y="2489.19" style="font-family:'Helvetica';font-size:99.99px;fill:#000000" transform="rotate(-90 300.72,2489.19)" text-anchor="middle">0</text>
	<line x1="390.80" y1="1714.24" x2="350.83" y2="1714.24" style="stroke:#000000;stroke-width:5.76"/>
	<text x="300.72" y="1714.24" style="font-family:'Helvetica';font-size:99.99px;fill:#000000" transform="rotate(-90 300.72,1714.24)" text-anchor="middle">.02</text>
	<line x1="390.80" y1="939.17" x2="350.83" y2="939.17" style="stroke:#000000;stroke-width:5.76"/>
	<text x="300.72" y="939.17" style="font-family:'Helvetica';font-size:99.99px;fill:#000000" transform="rotate(-90 300.72,939.17)" text-anchor="middle">.04</text>
	<line x1="390.80" y1="164.22" x2="350.83" y2="164.22" style="stroke:#000000;stroke-width:5.76"/>
	<text x="300.72" y="164.22" style="font-family:'Helvetica';font-size:99.99px;fill:#000000" transform="rotate(-90 300.72,164.22)" text-anchor="middle">.06</text>
	<text x="190.71" y="1294.96" style="font-family:'Helvetica';font-size:99.99px;fill:#000000" transform="rotate(-90 190.71,1294.96)" text-anchor="middle">Density</text>
	<line x1="390.80" y1="2489.19" x2="3859.02" y2="2489.19" style="stroke:#000000;stroke-width:5.76"/>
	<line x1="504.03" y1="2489.19" x2="504.03" y2="2529.16" style="stroke:#000000;stroke-width:5.76"/>
	<text x="504.03" y="2619.14" style="font-family:'Helvetica';font-size:99.99px;fill:#000000" text-anchor="middle">0</text>
	<line x1="1501.46" y1="2489.19" x2="1501.46" y2="2529.16" style="stroke:#000000;stroke-width:5.76"/>
	<text x="1501.46" y="2619.14" style="font-family:'Helvetica';font-size:99.99px;fill:#000000" text-anchor="middle">50</text>
	<line x1="2499.01" y1="2489.19" x2="2499.01" y2="2529.16" style="stroke:#000000;stroke-width:5.76"/>
	<text x="2499.01" y="2619.14" style="font-family:'Helvetica';font-size:99.99px;fill:#000000" text-anchor="middle">100</text>
	<line x1="3496.43" y1="2489.19" x2="3496.43" y2="2529.16" style="stroke:#000000;stroke-width:5.76"/>
	<text x="3496.43" y="2619.14" style="font-family:'Helvetica';font-size:99.99px;fill:#000000" text-anchor="middle">150</text>
	<text x="2124.91" y="2729.16" style="font-family:'Helvetica';font-size:99.99px;fill:#000000" text-anchor="middle">Oral Reading Fluency - A (English)</text>
</svg>
