<?xml version="1.0" encoding="UTF-8" standalone="no"?>
<!-- This is a Stata 15.1 generated SVG file (http://www.stata.com) -->

<svg version="1.1" width="5.50in" height="4.00in" viewBox="0 0 3960 2880" xmlns="http://www.w3.org/2000/svg" xmlns:xlink="http://www.w3.org/1999/xlink">
	<desc>Stata Graph - k_orf_gr2_phase1</desc>
	<rect x="0" y="0" width="3960" height="2880" style="fill:#EAF2F3;stroke:none"/>
	<rect x="0.00" y="0.00" width="3959.88" height="2880.00" style="fill:#EAF2F3"/>
	<rect x="2.88" y="2.88" width="3954.12" height="2874.24" style="fill:none;stroke:#EAF2F3;stroke-width:5.76"/>
	<rect x="390.80" y="100.86" width="3468.22" height="2388.33" style="fill:#FFFFFF"/>
	<rect x="393.68" y="103.74" width="3462.46" height="2382.57" style="fill:none;stroke:#FFFFFF;stroke-width:5.76"/>
	<line x1="390.80" y1="2489.19" x2="3859.02" y2="2489.19" style="stroke:#EAF2F3;stroke-width:8.64"/>
	<line x1="390.80" y1="1907.91" x2="3859.02" y2="1907.91" style="stroke:#EAF2F3;stroke-width:8.64"/>
	<line x1="390.80" y1="1326.64" x2="3859.02" y2="1326.64" style="stroke:#EAF2F3;stroke-width:8.64"/>
	<line x1="390.80" y1="745.37" x2="3859.02" y2="745.37" style="stroke:#EAF2F3;stroke-width:8.64"/>
	<line x1="390.80" y1="164.22" x2="3859.02" y2="164.22" style="stroke:#EAF2F3;stroke-width:8.64"/>
	<rect x="508.86" y="463.09" width="109.64" height="2026.10" style="fill:#C10534"/>
	<rect x="513.18" y="467.41" width="101.00" height="2017.46" style="fill:none;stroke:#C10534;stroke-width:8.64"/>
	<rect x="618.50" y="2185.00" width="109.52" height="304.19" style="fill:#C10534"/>
	<rect x="622.82" y="2189.32" width="100.88" height="295.55" style="fill:none;stroke:#C10534;stroke-width:8.64"/>
	<rect x="728.02" y="2122.75" width="109.52" height="366.44" style="fill:#C10534"/>
	<rect x="732.34" y="2127.07" width="100.88" height="357.80" style="fill:none;stroke:#C10534;stroke-width:8.64"/>
	<rect x="837.54" y="2043.80" width="109.64" height="445.39" style="fill:#C10534"/>
	<rect x="841.86" y="2048.11" width="101.00" height="436.75" style="fill:none;stroke:#C10534;stroke-width:8.64"/>
	<rect x="947.18" y="2048.50" width="109.52" height="440.69" style="fill:#C10534"/>
	<rect x="951.50" y="2052.82" width="100.88" height="432.05" style="fill:none;stroke:#C10534;stroke-width:8.64"/>
	<rect x="1056.70" y="1880.94" width="109.52" height="608.25" style="fill:#C10534"/>
	<rect x="1061.02" y="1885.25" width="100.88" height="599.61" style="fill:none;stroke:#C10534;stroke-width:8.64"/>
	<rect x="1166.22" y="2091.69" width="109.64" height="397.50" style="fill:#C10534"/>
	<rect x="1170.54" y="2096.01" width="101.00" height="388.86" style="fill:none;stroke:#C10534;stroke-width:8.64"/>
	<rect x="1275.86" y="2144.28" width="109.52" height="344.90" style="fill:#C10534"/>
	<rect x="1280.18" y="2148.60" width="100.88" height="336.26" style="fill:none;stroke:#C10534;stroke-width:8.64"/>
	<rect x="1385.38" y="2098.87" width="109.52" height="390.32" style="fill:#C10534"/>
	<rect x="1389.70" y="2103.19" width="100.88" height="381.68" style="fill:none;stroke:#C10534;stroke-width:8.64"/>
	<rect x="1494.90" y="2278.43" width="109.64" height="210.75" style="fill:#C10534"/>
	<rect x="1499.22" y="2282.75" width="101.00" height="202.11" style="fill:none;stroke:#C10534;stroke-width:8.64"/>
	<rect x="1604.54" y="2362.21" width="109.52" height="126.97" style="fill:#C10534"/>
	<rect x="1608.86" y="2366.53" width="100.88" height="118.33" style="fill:none;stroke:#C10534;stroke-width:8.64"/>
	<rect x="1714.06" y="2441.29" width="109.52" height="47.89" style="fill:#C10534"/>
	<rect x="1718.38" y="2445.61" width="100.88" height="39.25" style="fill:none;stroke:#C10534;stroke-width:8.64"/>
	<rect x="1823.58" y="2441.29" width="109.64" height="47.89" style="fill:#C10534"/>
	<rect x="1827.90" y="2445.61" width="101.00" height="39.25" style="fill:none;stroke:#C10534;stroke-width:8.64"/>
	<rect x="1933.22" y="2458.12" width="109.52" height="31.06" style="fill:#C10534"/>
	<rect x="1937.54" y="2462.44" width="100.88" height="22.42" style="fill:none;stroke:#C10534;stroke-width:8.64"/>
	<rect x="2042.74" y="2482.01" width="109.52" height="7.18" style="fill:#C10534"/>
	<rect x="2047.06" y="2486.33" width="100.88" height="-1.46" style="fill:none;stroke:#C10534;stroke-width:8.64"/>
	<rect x="2152.26" y="2484.36" width="109.64" height="4.83" style="fill:#C10534"/>
	<rect x="2156.58" y="2488.68" width="101.00" height="-3.81" style="fill:none;stroke:#C10534;stroke-width:8.64"/>
	<rect x="2261.90" y="2484.36" width="109.52" height="4.83" style="fill:#C10534"/>
	<rect x="2266.22" y="2488.68" width="100.88" height="-3.81" style="fill:none;stroke:#C10534;stroke-width:8.64"/>
	<rect x="2371.42" y="2484.36" width="109.52" height="4.83" style="fill:#C10534"/>
	<rect x="2375.74" y="2488.68" width="100.88" height="-3.81" style="fill:none;stroke:#C10534;stroke-width:8.64"/>
	<rect x="3357.46" y="2486.83" width="109.52" height="2.35" style="fill:#C10534"/>
	<rect x="3361.78" y="2491.15" width="100.88" height="-6.29" style="fill:none;stroke:#C10534;stroke-width:8.64"/>
	<text x="3453.86" y="489.82" style="font-family:'Helvetica';font-size:99.99px;fill:#000000" text-anchor="middle">k_orf Gr 2 Rd 1</text>
	<line x1="390.80" y1="2489.19" x2="390.80" y2="100.86" style="stroke:#000000;stroke-width:5.76"/>
	<line x1="390.80" y1="2489.19" x2="350.83" y2="2489.19" style="stroke:#000000;stroke-width:5.76"/>
	<text x="300.72" y="2489.19" style="font-family:'Helvetica';font-size:99.99px;fill:#000000" transform="rotate(-90 300.72,2489.19)" text-anchor="middle">0</text>
	<line x1="390.80" y1="1907.91" x2="350.83" y2="1907.91" style="stroke:#000000;stroke-width:5.76"/>
	<text x="300.72" y="1907.91" style="font-family:'Helvetica';font-size:99.99px;fill:#000000" transform="rotate(-90 300.72,1907.91)" text-anchor="middle">.02</text>
	<line x1="390.80" y1="1326.64" x2="350.83" y2="1326.64" style="stroke:#000000;stroke-width:5.76"/>
	<text x="300.72" y="1326.64" style="font-family:'Helvetica';font-size:99.99px;fill:#000000" transform="rotate(-90 300.72,1326.64)" text-anchor="middle">.04</text>
	<line x1="390.80" y1="745.37" x2="350.83" y2="745.37" style="stroke:#000000;stroke-width:5.76"/>
	<text x="300.72" y="745.37" style="font-family:'Helvetica';font-size:99.99px;fill:#000000" transform="rotate(-90 300.72,745.37)" text-anchor="middle">.06</text>
	<line x1="390.80" y1="164.22" x2="350.83" y2="164.22" style="stroke:#000000;stroke-width:5.76"/>
	<text x="300.72" y="164.22" style="font-family:'Helvetica';font-size:99.99px;fill:#000000" transform="rotate(-90 300.72,164.22)" text-anchor="middle">.08</text>
	<text x="190.71" y="1294.96" style="font-family:'Helvetica';font-size:99.99px;fill:#000000" transform="rotate(-90 190.71,1294.96)" text-anchor="middle">Density</text>
	<line x1="390.80" y1="2489.19" x2="3859.02" y2="2489.19" style="stroke:#000000;stroke-width:5.76"/>
	<line x1="508.86" y1="2489.19" x2="508.86" y2="2529.16" style="stroke:#000000;stroke-width:5.76"/>
	<text x="508.86" y="2619.14" style="font-family:'Helvetica';font-size:99.99px;fill:#000000" text-anchor="middle">0</text>
	<line x1="1604.54" y1="2489.19" x2="1604.54" y2="2529.16" style="stroke:#000000;stroke-width:5.76"/>
	<text x="1604.54" y="2619.14" style="font-family:'Helvetica';font-size:99.99px;fill:#000000" text-anchor="middle">50</text>
	<line x1="2700.10" y1="2489.19" x2="2700.10" y2="2529.16" style="stroke:#000000;stroke-width:5.76"/>
	<text x="2700.10" y="2619.14" style="font-family:'Helvetica';font-size:99.99px;fill:#000000" text-anchor="middle">100</text>
	<line x1="3795.66" y1="2489.19" x2="3795.66" y2="2529.16" style="stroke:#000000;stroke-width:5.76"/>
	<text x="3795.66" y="2619.14" style="font-family:'Helvetica';font-size:99.99px;fill:#000000" text-anchor="middle">150</text>
	<text x="2124.91" y="2729.16" style="font-family:'Helvetica';font-size:99.99px;fill:#000000" text-anchor="middle">Oral Reading Fluency (Kiswahili)</text>
</svg>
