<?xml version="1.0" encoding="UTF-8" standalone="no"?>
<!-- This is a Stata 15.1 generated SVG file (http://www.stata.com) -->

<svg version="1.1" width="5.50in" height="4.00in" viewBox="0 0 3960 2880" xmlns="http://www.w3.org/2000/svg" xmlns:xlink="http://www.w3.org/1999/xlink">
	<desc>Stata Graph - histograms_combined_k_orf</desc>
	<rect x="0" y="0" width="3960" height="2880" style="fill:#EAF2F3;stroke:none"/>
	<rect x="0.00" y="0.00" width="3959.88" height="2880.00" style="fill:#EAF2F3"/>
	<rect x="2.88" y="2.88" width="3954.12" height="2874.24" style="fill:none;stroke:#EAF2F3;stroke-width:5.76"/>
	<rect x="63.36" y="63.36" width="1916.64" height="1376.64" style="fill:#EAF2F3"/>
	<rect x="65.52" y="65.52" width="1912.32" height="1372.32" style="fill:none;stroke:#EAF2F3;stroke-width:4.32"/>
	<rect x="356.40" y="138.98" width="1547.99" height="1007.98" style="fill:#FFFFFF"/>
	<rect x="358.56" y="141.14" width="1543.67" height="1003.66" style="fill:none;stroke:#FFFFFF;stroke-width:4.32"/>
	<line x1="356.40" y1="1146.95" x2="1904.39" y2="1146.95" style="stroke:#EAF2F3;stroke-width:6.48"/>
	<line x1="356.40" y1="826.80" x2="1904.39" y2="826.80" style="stroke:#EAF2F3;stroke-width:6.48"/>
	<line x1="356.40" y1="506.65" x2="1904.39" y2="506.65" style="stroke:#EAF2F3;stroke-width:6.48"/>
	<line x1="356.40" y1="186.50" x2="1904.39" y2="186.50" style="stroke:#EAF2F3;stroke-width:6.48"/>
	<rect x="421.86" y="347.75" width="35.89" height="799.20" style="fill:#ADD8E6"/>
	<rect x="425.10" y="350.99" width="29.41" height="792.72" style="fill:none;stroke:#ADD8E6;stroke-width:6.48"/>
	<rect x="457.75" y="1065.27" width="35.89" height="81.68" style="fill:#ADD8E6"/>
	<rect x="460.99" y="1068.51" width="29.41" height="75.20" style="fill:none;stroke:#ADD8E6;stroke-width:6.48"/>
	<rect x="493.64" y="1054.63" width="35.89" height="92.32" style="fill:#ADD8E6"/>
	<rect x="496.88" y="1057.87" width="29.41" height="85.84" style="fill:none;stroke:#ADD8E6;stroke-width:6.48"/>
	<rect x="529.53" y="1064.16" width="35.89" height="82.79" style="fill:#ADD8E6"/>
	<rect x="532.77" y="1067.40" width="29.41" height="76.31" style="fill:none;stroke:#ADD8E6;stroke-width:6.48"/>
	<rect x="565.41" y="1083.84" width="35.89" height="63.11" style="fill:#ADD8E6"/>
	<rect x="568.65" y="1087.08" width="29.41" height="56.63" style="fill:none;stroke:#ADD8E6;stroke-width:6.48"/>
	<rect x="601.30" y="1082.72" width="35.89" height="64.23" style="fill:#ADD8E6"/>
	<rect x="604.54" y="1085.96" width="29.41" height="57.75" style="fill:none;stroke:#ADD8E6;stroke-width:6.48"/>
	<rect x="637.19" y="1109.82" width="35.76" height="37.13" style="fill:#ADD8E6"/>
	<rect x="640.43" y="1113.06" width="29.28" height="30.65" style="fill:none;stroke:#ADD8E6;stroke-width:6.48"/>
	<rect x="672.95" y="1126.78" width="35.89" height="20.17" style="fill:#ADD8E6"/>
	<rect x="676.19" y="1130.02" width="29.41" height="13.69" style="fill:none;stroke:#ADD8E6;stroke-width:6.48"/>
	<rect x="708.84" y="1127.77" width="35.89" height="19.18" style="fill:#ADD8E6"/>
	<rect x="712.08" y="1131.01" width="29.41" height="12.70" style="fill:none;stroke:#ADD8E6;stroke-width:6.48"/>
	<rect x="744.73" y="1134.20" width="35.89" height="12.75" style="fill:#ADD8E6"/>
	<rect x="747.97" y="1137.44" width="29.41" height="6.27" style="fill:none;stroke:#ADD8E6;stroke-width:6.48"/>
	<rect x="780.62" y="1142.62" width="35.89" height="4.33" style="fill:#ADD8E6"/>
	<rect x="783.85" y="1145.86" width="29.41" height="-2.15" style="fill:none;stroke:#ADD8E6;stroke-width:6.48"/>
	<rect x="816.50" y="1143.73" width="35.89" height="3.22" style="fill:#ADD8E6"/>
	<rect x="819.74" y="1146.97" width="29.41" height="-3.26" style="fill:none;stroke:#ADD8E6;stroke-width:6.48"/>
	<rect x="852.39" y="1146.33" width="35.89" height="0.62" style="fill:#ADD8E6"/>
	<rect x="855.63" y="1149.57" width="29.41" height="-5.86" style="fill:none;stroke:#ADD8E6;stroke-width:6.48"/>
	<rect x="888.28" y="1146.33" width="35.89" height="0.62" style="fill:#ADD8E6"/>
	<rect x="891.52" y="1149.57" width="29.41" height="-5.86" style="fill:none;stroke:#ADD8E6;stroke-width:6.48"/>
	<text x="1386.12" y="724.99" style="font-family:'Helvetica';font-size:74.99px;fill:#000000" text-anchor="middle">k_orf Gr 1 Rd 1</text>
	<line x1="356.40" y1="1146.95" x2="356.40" y2="138.98" style="stroke:#000000;stroke-width:4.32"/>
	<line x1="356.40" y1="1146.95" x2="326.45" y2="1146.95" style="stroke:#000000;stroke-width:4.32"/>
	<text x="288.92" y="1146.95" style="font-family:'Helvetica';font-size:74.99px;fill:#000000" transform="rotate(-90 288.92,1146.95)" text-anchor="middle">0</text>
	<line x1="356.40" y1="826.80" x2="326.45" y2="826.80" style="stroke:#000000;stroke-width:4.32"/>
	<text x="288.92" y="826.80" style="font-family:'Helvetica';font-size:74.99px;fill:#000000" transform="rotate(-90 288.92,826.80)" text-anchor="middle">.05</text>
	<line x1="356.40" y1="506.65" x2="326.45" y2="506.65" style="stroke:#000000;stroke-width:4.32"/>
	<text x="288.92" y="506.65" style="font-family:'Helvetica';font-size:74.99px;fill:#000000" transform="rotate(-90 288.92,506.65)" text-anchor="middle">.1</text>
	<line x1="356.40" y1="186.50" x2="326.45" y2="186.50" style="stroke:#000000;stroke-width:4.32"/>
	<text x="288.92" y="186.50" style="font-family:'Helvetica';font-size:74.99px;fill:#000000" transform="rotate(-90 288.92,186.50)" text-anchor="middle">.15</text>
	<text x="206.38" y="642.90" style="font-family:'Helvetica';font-size:74.99px;fill:#000000" transform="rotate(-90 206.38,642.90)" text-anchor="middle">Density</text>
	<line x1="356.40" y1="1146.95" x2="1904.39" y2="1146.95" style="stroke:#000000;stroke-width:4.32"/>
	<line x1="421.86" y1="1146.95" x2="421.86" y2="1176.90" style="stroke:#000000;stroke-width:4.32"/>
	<text x="421.86" y="1244.31" style="font-family:'Helvetica';font-size:74.99px;fill:#000000" text-anchor="middle">0</text>
	<line x1="780.62" y1="1146.95" x2="780.62" y2="1176.90" style="stroke:#000000;stroke-width:4.32"/>
	<text x="780.62" y="1244.31" style="font-family:'Helvetica';font-size:74.99px;fill:#000000" text-anchor="middle">50</text>
	<line x1="1139.37" y1="1146.95" x2="1139.37" y2="1176.90" style="stroke:#000000;stroke-width:4.32"/>
	<text x="1139.37" y="1244.31" style="font-family:'Helvetica';font-size:74.99px;fill:#000000" text-anchor="middle">100</text>
	<line x1="1498.12" y1="1146.95" x2="1498.12" y2="1176.90" style="stroke:#000000;stroke-width:4.32"/>
	<text x="1498.12" y="1244.31" style="font-family:'Helvetica';font-size:74.99px;fill:#000000" text-anchor="middle">150</text>
	<line x1="1856.87" y1="1146.95" x2="1856.87" y2="1176.90" style="stroke:#000000;stroke-width:4.32"/>
	<text x="1856.87" y="1244.31" style="font-family:'Helvetica';font-size:74.99px;fill:#000000" text-anchor="middle">200</text>
	<text x="1130.33" y="1326.85" style="font-family:'Helvetica';font-size:74.99px;fill:#000000" text-anchor="middle">Oral Reading Fluency (Kiswahili)</text>
	<rect x="1980.00" y="63.36" width="1916.52" height="1376.64" style="fill:#EAF2F3"/>
	<rect x="1982.16" y="65.52" width="1912.20" height="1372.32" style="fill:none;stroke:#EAF2F3;stroke-width:4.32"/>
	<rect x="2273.04" y="138.98" width="1547.87" height="1007.98" style="fill:#FFFFFF"/>
	<rect x="2275.20" y="141.14" width="1543.55" height="1003.66" style="fill:none;stroke:#FFFFFF;stroke-width:4.32"/>
	<line x1="2273.04" y1="1146.95" x2="3820.91" y2="1146.95" style="stroke:#EAF2F3;stroke-width:6.48"/>
	<line x1="2273.04" y1="826.80" x2="3820.91" y2="826.80" style="stroke:#EAF2F3;stroke-width:6.48"/>
	<line x1="2273.04" y1="506.65" x2="3820.91" y2="506.65" style="stroke:#EAF2F3;stroke-width:6.48"/>
	<line x1="2273.04" y1="186.50" x2="3820.91" y2="186.50" style="stroke:#EAF2F3;stroke-width:6.48"/>
	<rect x="2338.50" y="700.57" width="35.89" height="446.38" style="fill:#C10534"/>
	<rect x="2341.74" y="703.81" width="29.41" height="439.90" style="fill:none;stroke:#C10534;stroke-width:6.48"/>
	<rect x="2374.39" y="1079.88" width="35.89" height="67.07" style="fill:#C10534"/>
	<rect x="2377.63" y="1083.12" width="29.41" height="60.59" style="fill:none;stroke:#C10534;stroke-width:6.48"/>
	<rect x="2410.28" y="1066.14" width="35.76" height="80.81" style="fill:#C10534"/>
	<rect x="2413.52" y="1069.38" width="29.28" height="74.33" style="fill:none;stroke:#C10534;stroke-width:6.48"/>
	<rect x="2446.04" y="1048.81" width="35.89" height="98.14" style="fill:#C10534"/>
	<rect x="2449.28" y="1052.05" width="29.41" height="91.66" style="fill:none;stroke:#C10534;stroke-width:6.48"/>
	<rect x="2481.93" y="1049.80" width="35.89" height="97.15" style="fill:#C10534"/>
	<rect x="2485.17" y="1053.04" width="29.41" height="90.67" style="fill:none;stroke:#C10534;stroke-width:6.48"/>
	<rect x="2517.82" y="1012.93" width="35.89" height="134.03" style="fill:#C10534"/>
	<rect x="2521.06" y="1016.17" width="29.41" height="127.55" style="fill:none;stroke:#C10534;stroke-width:6.48"/>
	<rect x="2553.70" y="1059.33" width="35.89" height="87.62" style="fill:#C10534"/>
	<rect x="2556.94" y="1062.57" width="29.41" height="81.14" style="fill:none;stroke:#C10534;stroke-width:6.48"/>
	<rect x="2589.59" y="1070.97" width="35.89" height="75.98" style="fill:#C10534"/>
	<rect x="2592.83" y="1074.21" width="29.41" height="69.51" style="fill:none;stroke:#C10534;stroke-width:6.48"/>
	<rect x="2625.48" y="1060.94" width="35.89" height="86.01" style="fill:#C10534"/>
	<rect x="2628.72" y="1064.18" width="29.41" height="79.53" style="fill:none;stroke:#C10534;stroke-width:6.48"/>
	<rect x="2661.37" y="1100.42" width="35.89" height="46.53" style="fill:#C10534"/>
	<rect x="2664.61" y="1103.66" width="29.41" height="40.05" style="fill:none;stroke:#C10534;stroke-width:6.48"/>
	<rect x="2697.26" y="1118.98" width="35.89" height="27.97" style="fill:#C10534"/>
	<rect x="2700.49" y="1122.22" width="29.41" height="21.49" style="fill:none;stroke:#C10534;stroke-width:6.48"/>
	<rect x="2733.14" y="1136.31" width="35.76" height="10.64" style="fill:#C10534"/>
	<rect x="2736.38" y="1139.55" width="29.28" height="4.16" style="fill:none;stroke:#C10534;stroke-width:6.48"/>
	<rect x="2768.91" y="1136.31" width="35.89" height="10.64" style="fill:#C10534"/>
	<rect x="2772.15" y="1139.55" width="29.41" height="4.16" style="fill:none;stroke:#C10534;stroke-width:6.48"/>
	<rect x="2804.79" y="1140.02" width="35.89" height="6.93" style="fill:#C10534"/>
	<rect x="2808.03" y="1143.26" width="29.41" height="0.45" style="fill:none;stroke:#C10534;stroke-width:6.48"/>
	<rect x="2840.68" y="1145.34" width="35.89" height="1.61" style="fill:#C10534"/>
	<rect x="2843.92" y="1148.58" width="29.41" height="-4.87" style="fill:none;stroke:#C10534;stroke-width:6.48"/>
	<rect x="2876.57" y="1145.84" width="35.89" height="1.11" style="fill:#C10534"/>
	<rect x="2879.81" y="1149.08" width="29.41" height="-5.37" style="fill:none;stroke:#C10534;stroke-width:6.48"/>
	<rect x="2912.46" y="1145.84" width="35.89" height="1.11" style="fill:#C10534"/>
	<rect x="2915.70" y="1149.08" width="29.41" height="-5.37" style="fill:none;stroke:#C10534;stroke-width:6.48"/>
	<rect x="2948.34" y="1145.84" width="35.89" height="1.11" style="fill:#C10534"/>
	<rect x="2951.58" y="1149.08" width="29.41" height="-5.37" style="fill:none;stroke:#C10534;stroke-width:6.48"/>
	<rect x="3271.21" y="1146.33" width="35.89" height="0.62" style="fill:#C10534"/>
	<rect x="3274.45" y="1149.57" width="29.41" height="-5.86" style="fill:none;stroke:#C10534;stroke-width:6.48"/>
	<text x="3302.76" y="724.99" style="font-family:'Helvetica';font-size:74.99px;fill:#000000" text-anchor="middle">k_orf Gr 2 Rd 1</text>
	<line x1="2273.04" y1="1146.95" x2="2273.04" y2="138.98" style="stroke:#000000;stroke-width:4.32"/>
	<line x1="2273.04" y1="1146.95" x2="2242.97" y2="1146.95" style="stroke:#000000;stroke-width:4.32"/>
	<text x="2205.44" y="1146.95" style="font-family:'Helvetica';font-size:74.99px;fill:#000000" transform="rotate(-90 2205.44,1146.95)" text-anchor="middle">0</text>
	<line x1="2273.04" y1="826.80" x2="2242.97" y2="826.80" style="stroke:#000000;stroke-width:4.32"/>
	<text x="2205.44" y="826.80" style="font-family:'Helvetica';font-size:74.99px;fill:#000000" transform="rotate(-90 2205.44,826.80)" text-anchor="middle">.05</text>
	<line x1="2273.04" y1="506.65" x2="2242.97" y2="506.65" style="stroke:#000000;stroke-width:4.32"/>
	<text x="2205.44" y="506.65" style="font-family:'Helvetica';font-size:74.99px;fill:#000000" transform="rotate(-90 2205.44,506.65)" text-anchor="middle">.1</text>
	<line x1="2273.04" y1="186.50" x2="2242.97" y2="186.50" style="stroke:#000000;stroke-width:4.32"/>
	<text x="2205.44" y="186.50" style="font-family:'Helvetica';font-size:74.99px;fill:#000000" transform="rotate(-90 2205.44,186.50)" text-anchor="middle">.15</text>
	<text x="2123.02" y="642.90" style="font-family:'Helvetica';font-size:74.99px;fill:#000000" transform="rotate(-90 2123.02,642.90)" text-anchor="middle">Density</text>
	<line x1="2273.04" y1="1146.95" x2="3820.91" y2="1146.95" style="stroke:#000000;stroke-width:4.32"/>
	<line x1="2338.50" y1="1146.95" x2="2338.50" y2="1176.90" style="stroke:#000000;stroke-width:4.32"/>
	<text x="2338.50" y="1244.31" style="font-family:'Helvetica';font-size:74.99px;fill:#000000" text-anchor="middle">0</text>
	<line x1="2697.26" y1="1146.95" x2="2697.26" y2="1176.90" style="stroke:#000000;stroke-width:4.32"/>
	<text x="2697.26" y="1244.31" style="font-family:'Helvetica';font-size:74.99px;fill:#000000" text-anchor="middle">50</text>
	<line x1="3055.88" y1="1146.95" x2="3055.88" y2="1176.90" style="stroke:#000000;stroke-width:4.32"/>
	<text x="3055.88" y="1244.31" style="font-family:'Helvetica';font-size:74.99px;fill:#000000" text-anchor="middle">100</text>
	<line x1="3414.63" y1="1146.95" x2="3414.63" y2="1176.90" style="stroke:#000000;stroke-width:4.32"/>
	<text x="3414.63" y="1244.31" style="font-family:'Helvetica';font-size:74.99px;fill:#000000" text-anchor="middle">150</text>
	<line x1="3773.39" y1="1146.95" x2="3773.39" y2="1176.90" style="stroke:#000000;stroke-width:4.32"/>
	<text x="3773.39" y="1244.31" style="font-family:'Helvetica';font-size:74.99px;fill:#000000" text-anchor="middle">200</text>
	<text x="3046.97" y="1326.85" style="font-family:'Helvetica';font-size:74.99px;fill:#000000" text-anchor="middle">Oral Reading Fluency (Kiswahili)</text>
	<rect x="63.36" y="1440.00" width="1916.64" height="1376.64" style="fill:#EAF2F3"/>
	<rect x="65.52" y="1442.16" width="1912.32" height="1372.32" style="fill:none;stroke:#EAF2F3;stroke-width:4.32"/>
	<rect x="356.40" y="1515.61" width="1547.99" height="1007.98" style="fill:#FFFFFF"/>
	<rect x="358.56" y="1517.77" width="1543.67" height="1003.66" style="fill:none;stroke:#FFFFFF;stroke-width:4.32"/>
	<line x1="356.40" y1="2523.59" x2="1904.39" y2="2523.59" style="stroke:#EAF2F3;stroke-width:6.48"/>
	<line x1="356.40" y1="2203.44" x2="1904.39" y2="2203.44" style="stroke:#EAF2F3;stroke-width:6.48"/>
	<line x1="356.40" y1="1883.29" x2="1904.39" y2="1883.29" style="stroke:#EAF2F3;stroke-width:6.48"/>
	<line x1="356.40" y1="1563.14" x2="1904.39" y2="1563.14" style="stroke:#EAF2F3;stroke-width:6.48"/>
	<rect x="421.86" y="2019.42" width="35.89" height="504.17" style="fill:#ADD8E6"/>
	<rect x="425.10" y="2022.66" width="29.41" height="497.69" style="fill:none;stroke:#ADD8E6;stroke-width:6.48"/>
	<rect x="457.75" y="2446.74" width="35.89" height="76.85" style="fill:#ADD8E6"/>
	<rect x="460.99" y="2449.98" width="29.41" height="70.37" style="fill:none;stroke:#ADD8E6;stroke-width:6.48"/>
	<rect x="493.64" y="2409.36" width="35.89" height="114.22" style="fill:#ADD8E6"/>
	<rect x="496.88" y="2412.60" width="29.41" height="107.75" style="fill:none;stroke:#ADD8E6;stroke-width:6.48"/>
	<rect x="529.53" y="2426.07" width="35.89" height="97.52" style="fill:#ADD8E6"/>
	<rect x="532.77" y="2429.31" width="29.41" height="91.04" style="fill:none;stroke:#ADD8E6;stroke-width:6.48"/>
	<rect x="565.41" y="2418.65" width="35.89" height="104.94" style="fill:#ADD8E6"/>
	<rect x="568.65" y="2421.89" width="29.41" height="98.46" style="fill:none;stroke:#ADD8E6;stroke-width:6.48"/>
	<rect x="601.30" y="2411.10" width="35.89" height="112.49" style="fill:#ADD8E6"/>
	<rect x="604.54" y="2414.34" width="29.41" height="106.01" style="fill:none;stroke:#ADD8E6;stroke-width:6.48"/>
	<rect x="637.19" y="2445.50" width="35.76" height="78.09" style="fill:#ADD8E6"/>
	<rect x="640.43" y="2448.74" width="29.28" height="71.61" style="fill:none;stroke:#ADD8E6;stroke-width:6.48"/>
	<rect x="672.95" y="2454.78" width="35.89" height="68.81" style="fill:#ADD8E6"/>
	<rect x="676.19" y="2458.02" width="29.41" height="62.33" style="fill:none;stroke:#ADD8E6;stroke-width:6.48"/>
	<rect x="708.84" y="2463.94" width="35.89" height="59.65" style="fill:#ADD8E6"/>
	<rect x="712.08" y="2467.18" width="29.41" height="53.17" style="fill:none;stroke:#ADD8E6;stroke-width:6.48"/>
	<rect x="744.73" y="2490.30" width="35.89" height="33.29" style="fill:#ADD8E6"/>
	<rect x="747.97" y="2493.54" width="29.41" height="26.81" style="fill:none;stroke:#ADD8E6;stroke-width:6.48"/>
	<rect x="780.62" y="2509.73" width="35.89" height="13.86" style="fill:#ADD8E6"/>
	<rect x="783.85" y="2512.97" width="29.41" height="7.38" style="fill:none;stroke:#ADD8E6;stroke-width:6.48"/>
	<rect x="816.50" y="2514.43" width="35.89" height="9.16" style="fill:#ADD8E6"/>
	<rect x="819.74" y="2517.67" width="29.41" height="2.68" style="fill:none;stroke:#ADD8E6;stroke-width:6.48"/>
	<rect x="852.39" y="2518.39" width="35.89" height="5.20" style="fill:#ADD8E6"/>
	<rect x="855.63" y="2521.63" width="29.41" height="-1.28" style="fill:none;stroke:#ADD8E6;stroke-width:6.48"/>
	<rect x="888.28" y="2522.97" width="35.89" height="0.62" style="fill:#ADD8E6"/>
	<rect x="891.52" y="2526.21" width="29.41" height="-5.86" style="fill:none;stroke:#ADD8E6;stroke-width:6.48"/>
	<rect x="960.05" y="2522.97" width="35.76" height="0.62" style="fill:#ADD8E6"/>
	<rect x="963.29" y="2526.21" width="29.28" height="-5.86" style="fill:none;stroke:#ADD8E6;stroke-width:6.48"/>
	<rect x="995.82" y="2522.97" width="35.89" height="0.62" style="fill:#ADD8E6"/>
	<rect x="999.06" y="2526.21" width="29.41" height="-5.86" style="fill:none;stroke:#ADD8E6;stroke-width:6.48"/>
	<rect x="1211.14" y="2522.97" width="35.89" height="0.62" style="fill:#ADD8E6"/>
	<rect x="1214.38" y="2526.21" width="29.41" height="-5.86" style="fill:none;stroke:#ADD8E6;stroke-width:6.48"/>
	<rect x="1605.66" y="2522.97" width="35.89" height="0.62" style="fill:#ADD8E6"/>
	<rect x="1608.90" y="2526.21" width="29.41" height="-5.86" style="fill:none;stroke:#ADD8E6;stroke-width:6.48"/>
	<text x="1386.12" y="2101.63" style="font-family:'Helvetica';font-size:74.99px;fill:#000000" text-anchor="middle">k_orf Gr 1 Rd 2</text>
	<line x1="356.40" y1="2523.59" x2="356.40" y2="1515.61" style="stroke:#000000;stroke-width:4.32"/>
	<line x1="356.40" y1="2523.59" x2="326.45" y2="2523.59" style="stroke:#000000;stroke-width:4.32"/>
	<text x="288.92" y="2523.59" style="font-family:'Helvetica';font-size:74.99px;fill:#000000" transform="rotate(-90 288.92,2523.59)" text-anchor="middle">0</text>
	<line x1="356.40" y1="2203.44" x2="326.45" y2="2203.44" style="stroke:#000000;stroke-width:4.32"/>
	<text x="288.92" y="2203.44" style="font-family:'Helvetica';font-size:74.99px;fill:#000000" transform="rotate(-90 288.92,2203.44)" text-anchor="middle">.05</text>
	<line x1="356.40" y1="1883.29" x2="326.45" y2="1883.29" style="stroke:#000000;stroke-width:4.32"/>
	<text x="288.92" y="1883.29" style="font-family:'Helvetica';font-size:74.99px;fill:#000000" transform="rotate(-90 288.92,1883.29)" text-anchor="middle">.1</text>
	<line x1="356.40" y1="1563.14" x2="326.45" y2="1563.14" style="stroke:#000000;stroke-width:4.32"/>
	<text x="288.92" y="1563.14" style="font-family:'Helvetica';font-size:74.99px;fill:#000000" transform="rotate(-90 288.92,1563.14)" text-anchor="middle">.15</text>
	<text x="206.38" y="2019.54" style="font-family:'Helvetica';font-size:74.99px;fill:#000000" transform="rotate(-90 206.38,2019.54)" text-anchor="middle">Density</text>
	<line x1="356.40" y1="2523.59" x2="1904.39" y2="2523.59" style="stroke:#000000;stroke-width:4.32"/>
	<line x1="421.86" y1="2523.59" x2="421.86" y2="2553.54" style="stroke:#000000;stroke-width:4.32"/>
	<text x="421.86" y="2620.95" style="font-family:'Helvetica';font-size:74.99px;fill:#000000" text-anchor="middle">0</text>
	<line x1="780.62" y1="2523.59" x2="780.62" y2="2553.54" style="stroke:#000000;stroke-width:4.32"/>
	<text x="780.62" y="2620.95" style="font-family:'Helvetica';font-size:74.99px;fill:#000000" text-anchor="middle">50</text>
	<line x1="1139.37" y1="2523.59" x2="1139.37" y2="2553.54" style="stroke:#000000;stroke-width:4.32"/>
	<text x="1139.37" y="2620.95" style="font-family:'Helvetica';font-size:74.99px;fill:#000000" text-anchor="middle">100</text>
	<line x1="1498.12" y1="2523.59" x2="1498.12" y2="2553.54" style="stroke:#000000;stroke-width:4.32"/>
	<text x="1498.12" y="2620.95" style="font-family:'Helvetica';font-size:74.99px;fill:#000000" text-anchor="middle">150</text>
	<line x1="1856.87" y1="2523.59" x2="1856.87" y2="2553.54" style="stroke:#000000;stroke-width:4.32"/>
	<text x="1856.87" y="2620.95" style="font-family:'Helvetica';font-size:74.99px;fill:#000000" text-anchor="middle">200</text>
	<text x="1130.33" y="2703.49" style="font-family:'Helvetica';font-size:74.99px;fill:#000000" text-anchor="middle">Oral Reading Fluency (Kiswahili)</text>
	<rect x="1980.00" y="1440.00" width="1916.52" height="1376.64" style="fill:#EAF2F3"/>
	<rect x="1982.16" y="1442.16" width="1912.20" height="1372.32" style="fill:none;stroke:#EAF2F3;stroke-width:4.32"/>
	<rect x="2273.04" y="1515.61" width="1547.87" height="1007.98" style="fill:#FFFFFF"/>
	<rect x="2275.20" y="1517.77" width="1543.55" height="1003.66" style="fill:none;stroke:#FFFFFF;stroke-width:4.32"/>
	<line x1="2273.04" y1="2523.59" x2="3820.91" y2="2523.59" style="stroke:#EAF2F3;stroke-width:6.48"/>
	<line x1="2273.04" y1="2203.44" x2="3820.91" y2="2203.44" style="stroke:#EAF2F3;stroke-width:6.48"/>
	<line x1="2273.04" y1="1883.29" x2="3820.91" y2="1883.29" style="stroke:#EAF2F3;stroke-width:6.48"/>
	<line x1="2273.04" y1="1563.14" x2="3820.91" y2="1563.14" style="stroke:#EAF2F3;stroke-width:6.48"/>
	<rect x="2338.50" y="2326.45" width="35.89" height="197.14" style="fill:#C10534"/>
	<rect x="2341.74" y="2329.69" width="29.41" height="190.66" style="fill:none;stroke:#C10534;stroke-width:6.48"/>
	<rect x="2374.39" y="2474.09" width="35.89" height="49.50" style="fill:#C10534"/>
	<rect x="2377.63" y="2477.33" width="29.41" height="43.02" style="fill:none;stroke:#C10534;stroke-width:6.48"/>
	<rect x="2410.28" y="2456.14" width="35.76" height="67.45" style="fill:#C10534"/>
	<rect x="2413.52" y="2459.38" width="29.28" height="60.97" style="fill:none;stroke:#C10534;stroke-width:6.48"/>
	<rect x="2446.04" y="2443.77" width="35.89" height="79.82" style="fill:#C10534"/>
	<rect x="2449.28" y="2447.01" width="29.41" height="73.34" style="fill:none;stroke:#C10534;stroke-width:6.48"/>
	<rect x="2481.93" y="2411.22" width="35.89" height="112.37" style="fill:#C10534"/>
	<rect x="2485.17" y="2414.46" width="29.41" height="105.89" style="fill:none;stroke:#C10534;stroke-width:6.48"/>
	<rect x="2517.82" y="2379.79" width="35.89" height="143.80" style="fill:#C10534"/>
	<rect x="2521.06" y="2383.03" width="29.41" height="137.32" style="fill:none;stroke:#C10534;stroke-width:6.48"/>
	<rect x="2553.70" y="2392.16" width="35.89" height="131.43" style="fill:#C10534"/>
	<rect x="2556.94" y="2395.40" width="29.41" height="124.95" style="fill:none;stroke:#C10534;stroke-width:6.48"/>
	<rect x="2589.59" y="2402.81" width="35.89" height="120.78" style="fill:#C10534"/>
	<rect x="2592.83" y="2406.04" width="29.41" height="114.30" style="fill:none;stroke:#C10534;stroke-width:6.48"/>
	<rect x="2625.48" y="2370.26" width="35.89" height="153.33" style="fill:#C10534"/>
	<rect x="2628.72" y="2373.50" width="29.41" height="146.85" style="fill:none;stroke:#C10534;stroke-width:6.48"/>
	<rect x="2661.37" y="2437.58" width="35.89" height="86.01" style="fill:#C10534"/>
	<rect x="2664.61" y="2440.82" width="29.41" height="79.53" style="fill:none;stroke:#C10534;stroke-width:6.48"/>
	<rect x="2697.26" y="2457.26" width="35.89" height="66.33" style="fill:#C10534"/>
	<rect x="2700.49" y="2460.50" width="29.41" height="59.85" style="fill:none;stroke:#C10534;stroke-width:6.48"/>
	<rect x="2733.14" y="2493.76" width="35.76" height="29.82" style="fill:#C10534"/>
	<rect x="2736.38" y="2497.00" width="29.28" height="23.34" style="fill:none;stroke:#C10534;stroke-width:6.48"/>
	<rect x="2768.91" y="2508.37" width="35.89" height="15.22" style="fill:#C10534"/>
	<rect x="2772.15" y="2511.61" width="29.41" height="8.74" style="fill:none;stroke:#C10534;stroke-width:6.48"/>
	<rect x="2804.79" y="2505.52" width="35.89" height="18.07" style="fill:#C10534"/>
	<rect x="2808.03" y="2508.76" width="29.41" height="11.59" style="fill:none;stroke:#C10534;stroke-width:6.48"/>
	<rect x="2840.68" y="2517.90" width="35.89" height="5.69" style="fill:#C10534"/>
	<rect x="2843.92" y="2521.14" width="29.41" height="-0.79" style="fill:none;stroke:#C10534;stroke-width:6.48"/>
	<rect x="2876.57" y="2522.97" width="35.89" height="0.62" style="fill:#C10534"/>
	<rect x="2879.81" y="2526.21" width="29.41" height="-5.86" style="fill:none;stroke:#C10534;stroke-width:6.48"/>
	<rect x="2912.46" y="2521.24" width="35.89" height="2.35" style="fill:#C10534"/>
	<rect x="2915.70" y="2524.48" width="29.41" height="-4.13" style="fill:none;stroke:#C10534;stroke-width:6.48"/>
	<rect x="2948.34" y="2522.97" width="35.89" height="0.62" style="fill:#C10534"/>
	<rect x="2951.58" y="2526.21" width="29.41" height="-5.86" style="fill:none;stroke:#C10534;stroke-width:6.48"/>
	<rect x="3020.12" y="2522.97" width="35.76" height="0.62" style="fill:#C10534"/>
	<rect x="3023.36" y="2526.21" width="29.28" height="-5.86" style="fill:none;stroke:#C10534;stroke-width:6.48"/>
	<rect x="3055.88" y="2522.97" width="35.89" height="0.62" style="fill:#C10534"/>
	<rect x="3059.12" y="2526.21" width="29.41" height="-5.86" style="fill:none;stroke:#C10534;stroke-width:6.48"/>
	<text x="3302.76" y="2101.63" style="font-family:'Helvetica';font-size:74.99px;fill:#000000" text-anchor="middle">k_orf Gr 2 Rd 2</text>
	<line x1="2273.04" y1="2523.59" x2="2273.04" y2="1515.61" style="stroke:#000000;stroke-width:4.32"/>
	<line x1="2273.04" y1="2523.59" x2="2242.97" y2="2523.59" style="stroke:#000000;stroke-width:4.32"/>
	<text x="2205.44" y="2523.59" style="font-family:'Helvetica';font-size:74.99px;fill:#000000" transform="rotate(-90 2205.44,2523.59)" text-anchor="middle">0</text>
	<line x1="2273.04" y1="2203.44" x2="2242.97" y2="2203.44" style="stroke:#000000;stroke-width:4.32"/>
	<text x="2205.44" y="2203.44" style="font-family:'Helvetica';font-size:74.99px;fill:#000000" transform="rotate(-90 2205.44,2203.44)" text-anchor="middle">.05</text>
	<line x1="2273.04" y1="1883.29" x2="2242.97" y2="1883.29" style="stroke:#000000;stroke-width:4.32"/>
	<text x="2205.44" y="1883.29" style="font-family:'Helvetica';font-size:74.99px;fill:#000000" transform="rotate(-90 2205.44,1883.29)" text-anchor="middle">.1</text>
	<line x1="2273.04" y1="1563.14" x2="2242.97" y2="1563.14" style="stroke:#000000;stroke-width:4.32"/>
	<text x="2205.44" y="1563.14" style="font-family:'Helvetica';font-size:74.99px;fill:#000000" transform="rotate(-90 2205.44,1563.14)" text-anchor="middle">.15</text>
	<text x="2123.02" y="2019.54" style="font-family:'Helvetica';font-size:74.99px;fill:#000000" transform="rotate(-90 2123.02,2019.54)" text-anchor="middle">Density</text>
	<line x1="2273.04" y1="2523.59" x2="3820.91" y2="2523.59" style="stroke:#000000;stroke-width:4.32"/>
	<line x1="2338.50" y1="2523.59" x2="2338.50" y2="2553.54" style="stroke:#000000;stroke-width:4.32"/>
	<text x="2338.50" y="2620.95" style="font-family:'Helvetica';font-size:74.99px;fill:#000000" text-anchor="middle">0</text>
	<line x1="2697.26" y1="2523.59" x2="2697.26" y2="2553.54" style="stroke:#000000;stroke-width:4.32"/>
	<text x="2697.26" y="2620.95" style="font-family:'Helvetica';font-size:74.99px;fill:#000000" text-anchor="middle">50</text>
	<line x1="3055.88" y1="2523.59" x2="3055.88" y2="2553.54" style="stroke:#000000;stroke-width:4.32"/>
	<text x="3055.88" y="2620.95" style="font-family:'Helvetica';font-size:74.99px;fill:#000000" text-anchor="middle">100</text>
	<line x1="3414.63" y1="2523.59" x2="3414.63" y2="2553.54" style="stroke:#000000;stroke-width:4.32"/>
	<text x="3414.63" y="2620.95" style="font-family:'Helvetica';font-size:74.99px;fill:#000000" text-anchor="middle">150</text>
	<line x1="3773.39" y1="2523.59" x2="3773.39" y2="2553.54" style="stroke:#000000;stroke-width:4.32"/>
	<text x="3773.39" y="2620.95" style="font-family:'Helvetica';font-size:74.99px;fill:#000000" text-anchor="middle">200</text>
	<text x="3046.97" y="2703.49" style="font-family:'Helvetica';font-size:74.99px;fill:#000000" text-anchor="middle">Oral Reading Fluency (Kiswahili)</text>
</svg>
