<?xml version="1.0" encoding="UTF-8" standalone="no"?>
<!-- This is a Stata 15.1 generated SVG file (http://www.stata.com) -->

<svg version="1.1" width="5.50in" height="4.00in" viewBox="0 0 3960 2880" xmlns="http://www.w3.org/2000/svg" xmlns:xlink="http://www.w3.org/1999/xlink">
	<desc>Stata Graph - kis_Gr1_Midline</desc>
	<rect x="0" y="0" width="3960" height="2880" style="fill:#EAF2F3;stroke:none"/>
	<rect x="0.00" y="0.00" width="3959.88" height="2880.00" style="fill:#EAF2F3"/>
	<rect x="2.88" y="2.88" width="3954.12" height="2874.24" style="fill:none;stroke:#EAF2F3;stroke-width:5.76"/>
	<rect x="390.80" y="100.86" width="3468.22" height="2388.33" style="fill:#FFFFFF"/>
	<rect x="393.68" y="103.74" width="3462.46" height="2382.57" style="fill:none;stroke:#FFFFFF;stroke-width:5.76"/>
	<line x1="390.80" y1="2489.19" x2="3859.02" y2="2489.19" style="stroke:#EAF2F3;stroke-width:8.64"/>
	<line x1="390.80" y1="1907.91" x2="3859.02" y2="1907.91" style="stroke:#EAF2F3;stroke-width:8.64"/>
	<line x1="390.80" y1="1326.64" x2="3859.02" y2="1326.64" style="stroke:#EAF2F3;stroke-width:8.64"/>
	<line x1="390.80" y1="745.37" x2="3859.02" y2="745.37" style="stroke:#EAF2F3;stroke-width:8.64"/>
	<line x1="390.80" y1="164.22" x2="3859.02" y2="164.22" style="stroke:#EAF2F3;stroke-width:8.64"/>
	<rect x="495.37" y="201.10" width="82.54" height="2288.09" style="fill:#D9C263"/>
	<rect x="499.69" y="205.42" width="73.90" height="2279.45" style="fill:none;stroke:#D9C263;stroke-width:8.64"/>
	<rect x="577.91" y="2140.45" width="82.54" height="348.74" style="fill:#D9C263"/>
	<rect x="582.23" y="2144.77" width="73.90" height="340.10" style="fill:none;stroke:#D9C263;stroke-width:8.64"/>
	<rect x="660.45" y="1971.15" width="82.42" height="518.03" style="fill:#D9C263"/>
	<rect x="664.77" y="1975.47" width="73.78" height="509.39" style="fill:none;stroke:#D9C263;stroke-width:8.64"/>
	<rect x="742.87" y="2046.64" width="82.54" height="442.54" style="fill:#D9C263"/>
	<rect x="747.19" y="2050.96" width="73.90" height="433.90" style="fill:none;stroke:#D9C263;stroke-width:8.64"/>
	<rect x="825.41" y="2012.86" width="82.54" height="476.33" style="fill:#D9C263"/>
	<rect x="829.73" y="2017.18" width="73.90" height="467.69" style="fill:none;stroke:#D9C263;stroke-width:8.64"/>
	<rect x="907.95" y="1978.95" width="82.54" height="510.24" style="fill:#D9C263"/>
	<rect x="912.27" y="1983.27" width="73.90" height="501.60" style="fill:none;stroke:#D9C263;stroke-width:8.64"/>
	<rect x="990.50" y="2135.25" width="82.42" height="353.94" style="fill:#D9C263"/>
	<rect x="994.81" y="2139.57" width="73.78" height="345.30" style="fill:none;stroke:#D9C263;stroke-width:8.64"/>
	<rect x="1072.91" y="2176.83" width="82.54" height="312.35" style="fill:#D9C263"/>
	<rect x="1077.23" y="2181.15" width="73.90" height="303.72" style="fill:none;stroke:#D9C263;stroke-width:8.64"/>
	<rect x="1155.45" y="2218.54" width="82.54" height="270.65" style="fill:#D9C263"/>
	<rect x="1159.77" y="2222.86" width="73.90" height="262.01" style="fill:none;stroke:#D9C263;stroke-width:8.64"/>
	<rect x="1237.99" y="2338.21" width="82.54" height="150.98" style="fill:#D9C263"/>
	<rect x="1242.31" y="2342.53" width="73.90" height="142.34" style="fill:none;stroke:#D9C263;stroke-width:8.64"/>
	<rect x="1320.54" y="2426.69" width="82.42" height="62.50" style="fill:#D9C263"/>
	<rect x="1324.86" y="2431.01" width="73.78" height="53.86" style="fill:none;stroke:#D9C263;stroke-width:8.64"/>
	<rect x="1402.95" y="2447.60" width="82.54" height="41.58" style="fill:#D9C263"/>
	<rect x="1407.27" y="2451.92" width="73.90" height="32.94" style="fill:none;stroke:#D9C263;stroke-width:8.64"/>
	<rect x="1485.49" y="2465.80" width="82.54" height="23.39" style="fill:#D9C263"/>
	<rect x="1489.81" y="2470.12" width="73.90" height="14.75" style="fill:none;stroke:#D9C263;stroke-width:8.64"/>
	<rect x="1568.04" y="2486.59" width="82.42" height="2.60" style="fill:#D9C263"/>
	<rect x="1572.36" y="2490.91" width="73.78" height="-6.04" style="fill:none;stroke:#D9C263;stroke-width:8.64"/>
	<rect x="1732.99" y="2486.59" width="82.54" height="2.60" style="fill:#D9C263"/>
	<rect x="1737.31" y="2490.91" width="73.90" height="-6.04" style="fill:none;stroke:#D9C263;stroke-width:8.64"/>
	<rect x="1815.54" y="2486.59" width="82.54" height="2.60" style="fill:#D9C263"/>
	<rect x="1819.86" y="2490.91" width="73.90" height="-6.04" style="fill:none;stroke:#D9C263;stroke-width:8.64"/>
	<rect x="2310.54" y="2486.59" width="82.54" height="2.60" style="fill:#D9C263"/>
	<rect x="2314.86" y="2490.91" width="73.90" height="-6.04" style="fill:none;stroke:#D9C263;stroke-width:8.64"/>
	<rect x="3218.12" y="2486.59" width="82.54" height="2.60" style="fill:#D9C263"/>
	<rect x="3222.44" y="2490.91" width="73.90" height="-6.04" style="fill:none;stroke:#D9C263;stroke-width:8.64"/>
	<text x="2713.22" y="489.82" style="font-family:'Helvetica';font-size:99.99px;fill:#000000" text-anchor="middle">kis Gr1_Midline</text>
	<line x1="390.80" y1="2489.19" x2="390.80" y2="100.86" style="stroke:#000000;stroke-width:5.76"/>
	<line x1="390.80" y1="2489.19" x2="350.83" y2="2489.19" style="stroke:#000000;stroke-width:5.76"/>
	<text x="300.72" y="2489.19" style="font-family:'Helvetica';font-size:99.99px;fill:#000000" transform="rotate(-90 300.72,2489.19)" text-anchor="middle">0</text>
	<line x1="390.80" y1="1907.91" x2="350.83" y2="1907.91" style="stroke:#000000;stroke-width:5.76"/>
	<text x="300.72" y="1907.91" style="font-family:'Helvetica';font-size:99.99px;fill:#000000" transform="rotate(-90 300.72,1907.91)" text-anchor="middle">.02</text>
	<line x1="390.80" y1="1326.64" x2="350.83" y2="1326.64" style="stroke:#000000;stroke-width:5.76"/>
	<text x="300.72" y="1326.64" style="font-family:'Helvetica';font-size:99.99px;fill:#000000" transform="rotate(-90 300.72,1326.64)" text-anchor="middle">.04</text>
	<line x1="390.80" y1="745.37" x2="350.83" y2="745.37" style="stroke:#000000;stroke-width:5.76"/>
	<text x="300.72" y="745.37" style="font-family:'Helvetica';font-size:99.99px;fill:#000000" transform="rotate(-90 300.72,745.37)" text-anchor="middle">.06</text>
	<line x1="390.80" y1="164.22" x2="350.83" y2="164.22" style="stroke:#000000;stroke-width:5.76"/>
	<text x="300.72" y="164.22" style="font-family:'Helvetica';font-size:99.99px;fill:#000000" transform="rotate(-90 300.72,164.22)" text-anchor="middle">.08</text>
	<text x="190.71" y="1294.96" style="font-family:'Helvetica';font-size:99.99px;fill:#000000" transform="rotate(-90 190.71,1294.96)" text-anchor="middle">Density</text>
	<line x1="390.80" y1="2489.19" x2="3859.02" y2="2489.19" style="stroke:#000000;stroke-width:5.76"/>
	<line x1="495.37" y1="2489.19" x2="495.37" y2="2529.16" style="stroke:#000000;stroke-width:5.76"/>
	<text x="495.37" y="2619.14" style="font-family:'Helvetica';font-size:99.99px;fill:#000000" text-anchor="middle">0</text>
	<line x1="1320.54" y1="2489.19" x2="1320.54" y2="2529.16" style="stroke:#000000;stroke-width:5.76"/>
	<text x="1320.54" y="2619.14" style="font-family:'Helvetica';font-size:99.99px;fill:#000000" text-anchor="middle">50</text>
	<line x1="2145.58" y1="2489.19" x2="2145.58" y2="2529.16" style="stroke:#000000;stroke-width:5.76"/>
	<text x="2145.58" y="2619.14" style="font-family:'Helvetica';font-size:99.99px;fill:#000000" text-anchor="middle">100</text>
	<line x1="2970.62" y1="2489.19" x2="2970.62" y2="2529.16" style="stroke:#000000;stroke-width:5.76"/>
	<text x="2970.62" y="2619.14" style="font-family:'Helvetica';font-size:99.99px;fill:#000000" text-anchor="middle">150</text>
	<line x1="3795.66" y1="2489.19" x2="3795.66" y2="2529.16" style="stroke:#000000;stroke-width:5.76"/>
	<text x="3795.66" y="2619.14" style="font-family:'Helvetica';font-size:99.99px;fill:#000000" text-anchor="middle">200</text>
	<text x="2124.91" y="2729.16" style="font-family:'Helvetica';font-size:99.99px;fill:#000000" text-anchor="middle">Oral Reading Fluency (Kiswahili)</text>
</svg>
