<?xml version="1.0" encoding="UTF-8" standalone="no"?>
<!-- This is a Stata 15.1 generated SVG file (http://www.stata.com) -->

<svg version="1.1" width="5.50in" height="4.00in" viewBox="0 0 3960 2880" xmlns="http://www.w3.org/2000/svg" xmlns:xlink="http://www.w3.org/1999/xlink">
	<desc>Stata Graph - k_orf_gr2_phase2</desc>
	<rect x="0" y="0" width="3960" height="2880" style="fill:#EAF2F3;stroke:none"/>
	<rect x="0.00" y="0.00" width="3959.88" height="2880.00" style="fill:#EAF2F3"/>
	<rect x="2.88" y="2.88" width="3954.12" height="2874.24" style="fill:none;stroke:#EAF2F3;stroke-width:5.76"/>
	<rect x="390.80" y="100.86" width="3468.22" height="2388.33" style="fill:#FFFFFF"/>
	<rect x="393.68" y="103.74" width="3462.46" height="2382.57" style="fill:none;stroke:#FFFFFF;stroke-width:5.76"/>
	<line x1="390.80" y1="2489.19" x2="3859.02" y2="2489.19" style="stroke:#EAF2F3;stroke-width:8.64"/>
	<line x1="390.80" y1="1734.04" x2="3859.02" y2="1734.04" style="stroke:#EAF2F3;stroke-width:8.64"/>
	<line x1="390.80" y1="978.89" x2="3859.02" y2="978.89" style="stroke:#EAF2F3;stroke-width:8.64"/>
	<line x1="390.80" y1="223.75" x2="3859.02" y2="223.75" style="stroke:#EAF2F3;stroke-width:8.64"/>
	<rect x="531.88" y="164.22" width="155.43" height="2324.96" style="fill:#C10534"/>
	<rect x="536.20" y="168.54" width="146.79" height="2316.32" style="fill:none;stroke:#C10534;stroke-width:8.64"/>
	<rect x="687.31" y="1906.30" width="155.43" height="582.88" style="fill:#C10534"/>
	<rect x="691.63" y="1910.62" width="146.79" height="574.24" style="fill:none;stroke:#C10534;stroke-width:8.64"/>
	<rect x="842.74" y="1694.31" width="155.43" height="794.87" style="fill:#C10534"/>
	<rect x="847.06" y="1698.63" width="146.79" height="786.23" style="fill:none;stroke:#C10534;stroke-width:8.64"/>
	<rect x="998.17" y="1548.53" width="155.43" height="940.65" style="fill:#C10534"/>
	<rect x="1002.49" y="1552.85" width="146.79" height="932.01" style="fill:none;stroke:#C10534;stroke-width:8.64"/>
	<rect x="1153.60" y="1164.40" width="155.31" height="1324.79" style="fill:#C10534"/>
	<rect x="1157.92" y="1168.72" width="146.67" height="1316.15" style="fill:none;stroke:#C10534;stroke-width:8.64"/>
	<rect x="1308.90" y="793.39" width="155.43" height="1695.80" style="fill:#C10534"/>
	<rect x="1313.22" y="797.71" width="146.79" height="1687.16" style="fill:none;stroke:#C10534;stroke-width:8.64"/>
	<rect x="1464.33" y="939.17" width="155.43" height="1550.02" style="fill:#C10534"/>
	<rect x="1468.65" y="943.49" width="146.79" height="1541.38" style="fill:none;stroke:#C10534;stroke-width:8.64"/>
	<rect x="1619.76" y="1065.03" width="155.43" height="1424.16" style="fill:#C10534"/>
	<rect x="1624.08" y="1069.35" width="146.79" height="1415.52" style="fill:none;stroke:#C10534;stroke-width:8.64"/>
	<rect x="1775.19" y="680.89" width="155.43" height="1808.29" style="fill:#C10534"/>
	<rect x="1779.51" y="685.21" width="146.79" height="1799.65" style="fill:none;stroke:#C10534;stroke-width:8.64"/>
	<rect x="1930.62" y="1475.76" width="155.43" height="1013.42" style="fill:#C10534"/>
	<rect x="1934.94" y="1480.08" width="146.79" height="1004.78" style="fill:none;stroke:#C10534;stroke-width:8.64"/>
	<rect x="2086.05" y="1707.56" width="155.43" height="781.63" style="fill:#C10534"/>
	<rect x="2090.37" y="1711.88" width="146.79" height="772.99" style="fill:none;stroke:#C10534;stroke-width:8.64"/>
	<rect x="2241.48" y="2138.10" width="155.43" height="351.09" style="fill:#C10534"/>
	<rect x="2245.80" y="2142.42" width="146.79" height="342.45" style="fill:none;stroke:#C10534;stroke-width:8.64"/>
	<rect x="2396.91" y="2310.36" width="155.43" height="178.82" style="fill:#C10534"/>
	<rect x="2401.23" y="2314.68" width="146.79" height="170.18" style="fill:none;stroke:#C10534;stroke-width:8.64"/>
	<rect x="2552.34" y="2277.19" width="155.43" height="211.99" style="fill:#C10534"/>
	<rect x="2556.66" y="2281.51" width="146.79" height="203.35" style="fill:none;stroke:#C10534;stroke-width:8.64"/>
	<rect x="2707.77" y="2422.98" width="155.43" height="66.21" style="fill:#C10534"/>
	<rect x="2712.09" y="2427.30" width="146.79" height="57.57" style="fill:none;stroke:#C10534;stroke-width:8.64"/>
	<rect x="2863.20" y="2482.63" width="155.43" height="6.56" style="fill:#C10534"/>
	<rect x="2867.52" y="2486.95" width="146.79" height="-2.08" style="fill:none;stroke:#C10534;stroke-width:8.64"/>
	<rect x="3018.63" y="2462.70" width="155.43" height="26.48" style="fill:#C10534"/>
	<rect x="3022.95" y="2467.02" width="146.79" height="17.84" style="fill:none;stroke:#C10534;stroke-width:8.64"/>
	<rect x="3174.06" y="2482.63" width="155.43" height="6.56" style="fill:#C10534"/>
	<rect x="3178.38" y="2486.95" width="146.79" height="-2.08" style="fill:none;stroke:#C10534;stroke-width:8.64"/>
	<rect x="3484.92" y="2482.63" width="155.43" height="6.56" style="fill:#C10534"/>
	<rect x="3489.24" y="2486.95" width="146.79" height="-2.08" style="fill:none;stroke:#C10534;stroke-width:8.64"/>
	<rect x="3640.35" y="2482.63" width="155.31" height="6.56" style="fill:#C10534"/>
	<rect x="3644.67" y="2486.95" width="146.67" height="-2.08" style="fill:none;stroke:#C10534;stroke-width:8.64"/>
	<text x="4709.55" y="-2761.81" style="font-family:'Helvetica';font-size:99.99px;fill:#000000" text-anchor="middle">k_orf Gr 2 Rd 2</text>
	<line x1="390.80" y1="2489.19" x2="390.80" y2="100.86" style="stroke:#000000;stroke-width:5.76"/>
	<line x1="390.80" y1="2489.19" x2="350.83" y2="2489.19" style="stroke:#000000;stroke-width:5.76"/>
	<text x="300.72" y="2489.19" style="font-family:'Helvetica';font-size:99.99px;fill:#000000" transform="rotate(-90 300.72,2489.19)" text-anchor="middle">0</text>
	<line x1="390.80" y1="1734.04" x2="350.83" y2="1734.04" style="stroke:#000000;stroke-width:5.76"/>
	<text x="300.72" y="1734.04" style="font-family:'Helvetica';font-size:99.99px;fill:#000000" transform="rotate(-90 300.72,1734.04)" text-anchor="middle">.01</text>
	<line x1="390.80" y1="978.89" x2="350.83" y2="978.89" style="stroke:#000000;stroke-width:5.76"/>
	<text x="300.72" y="978.89" style="font-family:'Helvetica';font-size:99.99px;fill:#000000" transform="rotate(-90 300.72,978.89)" text-anchor="middle">.02</text>
	<line x1="390.80" y1="223.75" x2="350.83" y2="223.75" style="stroke:#000000;stroke-width:5.76"/>
	<text x="300.72" y="223.75" style="font-family:'Helvetica';font-size:99.99px;fill:#000000" transform="rotate(-90 300.72,223.75)" text-anchor="middle">.03</text>
	<text x="190.71" y="1294.96" style="font-family:'Helvetica';font-size:99.99px;fill:#000000" transform="rotate(-90 190.71,1294.96)" text-anchor="middle">Density</text>
	<line x1="390.80" y1="2489.19" x2="3859.02" y2="2489.19" style="stroke:#000000;stroke-width:5.76"/>
	<line x1="531.88" y1="2489.19" x2="531.88" y2="2529.16" style="stroke:#000000;stroke-width:5.76"/>
	<text x="531.88" y="2619.14" style="font-family:'Helvetica';font-size:99.99px;fill:#000000" text-anchor="middle">0</text>
	<line x1="1153.60" y1="2489.19" x2="1153.60" y2="2529.16" style="stroke:#000000;stroke-width:5.76"/>
	<text x="1153.60" y="2619.14" style="font-family:'Helvetica';font-size:99.99px;fill:#000000" text-anchor="middle">20</text>
	<line x1="1775.19" y1="2489.19" x2="1775.19" y2="2529.16" style="stroke:#000000;stroke-width:5.76"/>
	<text x="1775.19" y="2619.14" style="font-family:'Helvetica';font-size:99.99px;fill:#000000" text-anchor="middle">40</text>
	<line x1="2396.91" y1="2489.19" x2="2396.91" y2="2529.16" style="stroke:#000000;stroke-width:5.76"/>
	<text x="2396.91" y="2619.14" style="font-family:'Helvetica';font-size:99.99px;fill:#000000" text-anchor="middle">60</text>
	<line x1="3018.63" y1="2489.19" x2="3018.63" y2="2529.16" style="stroke:#000000;stroke-width:5.76"/>
	<text x="3018.63" y="2619.14" style="font-family:'Helvetica';font-size:99.99px;fill:#000000" text-anchor="middle">80</text>
	<line x1="3640.35" y1="2489.19" x2="3640.35" y2="2529.16" style="stroke:#000000;stroke-width:5.76"/>
	<text x="3640.35" y="2619.14" style="font-family:'Helvetica';font-size:99.99px;fill:#000000" text-anchor="middle">100</text>
	<text x="2124.91" y="2729.16" style="font-family:'Helvetica';font-size:99.99px;fill:#000000" text-anchor="middle">Oral Reading Fluency (Kiswahili)</text>
</svg>
