<?xml version="1.0" encoding="UTF-8" standalone="no"?>
<!-- This is a Stata 15.1 generated SVG file (http://www.stata.com) -->

<svg version="1.1" width="5.50in" height="4.00in" viewBox="0 0 3960 2880" xmlns="http://www.w3.org/2000/svg" xmlns:xlink="http://www.w3.org/1999/xlink">
	<desc>Stata Graph - e_orf_a_gr2_phase2</desc>
	<rect x="0" y="0" width="3960" height="2880" style="fill:#EAF2F3;stroke:none"/>
	<rect x="0.00" y="0.00" width="3959.88" height="2880.00" style="fill:#EAF2F3"/>
	<rect x="2.88" y="2.88" width="3954.12" height="2874.24" style="fill:none;stroke:#EAF2F3;stroke-width:5.76"/>
	<rect x="390.80" y="100.86" width="3468.22" height="2388.33" style="fill:#FFFFFF"/>
	<rect x="393.68" y="103.74" width="3462.46" height="2382.57" style="fill:none;stroke:#FFFFFF;stroke-width:5.76"/>
	<line x1="390.80" y1="2489.19" x2="3859.02" y2="2489.19" style="stroke:#EAF2F3;stroke-width:8.64"/>
	<line x1="390.80" y1="1950.11" x2="3859.02" y2="1950.11" style="stroke:#EAF2F3;stroke-width:8.64"/>
	<line x1="390.80" y1="1410.92" x2="3859.02" y2="1410.92" style="stroke:#EAF2F3;stroke-width:8.64"/>
	<line x1="390.80" y1="871.72" x2="3859.02" y2="871.72" style="stroke:#EAF2F3;stroke-width:8.64"/>
	<line x1="390.80" y1="332.65" x2="3859.02" y2="332.65" style="stroke:#EAF2F3;stroke-width:8.64"/>
	<rect x="493.39" y="164.22" width="78.71" height="2324.96" style="fill:#C10534"/>
	<rect x="497.71" y="168.54" width="70.07" height="2316.32" style="fill:none;stroke:#C10534;stroke-width:8.64"/>
	<rect x="572.10" y="1827.84" width="78.58" height="661.34" style="fill:#C10534"/>
	<rect x="576.42" y="1832.16" width="69.94" height="652.70" style="fill:none;stroke:#C10534;stroke-width:8.64"/>
	<rect x="650.68" y="1962.24" width="78.71" height="526.94" style="fill:#C10534"/>
	<rect x="655.00" y="1966.56" width="70.07" height="518.30" style="fill:none;stroke:#C10534;stroke-width:8.64"/>
	<rect x="729.38" y="1610.90" width="78.58" height="878.28" style="fill:#C10534"/>
	<rect x="733.70" y="1615.22" width="69.94" height="869.64" style="fill:none;stroke:#C10534;stroke-width:8.64"/>
	<rect x="807.96" y="1683.18" width="78.58" height="806.01" style="fill:#C10534"/>
	<rect x="812.28" y="1687.50" width="69.94" height="797.37" style="fill:none;stroke:#C10534;stroke-width:8.64"/>
	<rect x="886.54" y="1745.18" width="78.71" height="744.01" style="fill:#C10534"/>
	<rect x="890.86" y="1749.50" width="70.07" height="735.37" style="fill:none;stroke:#C10534;stroke-width:8.64"/>
	<rect x="965.25" y="1786.51" width="78.58" height="702.67" style="fill:#C10534"/>
	<rect x="969.57" y="1790.83" width="69.94" height="694.03" style="fill:none;stroke:#C10534;stroke-width:8.64"/>
	<rect x="1043.83" y="1445.57" width="78.58" height="1043.62" style="fill:#C10534"/>
	<rect x="1048.15" y="1449.89" width="69.94" height="1034.98" style="fill:none;stroke:#C10534;stroke-width:8.64"/>
	<rect x="1122.41" y="1269.84" width="78.71" height="1219.35" style="fill:#C10534"/>
	<rect x="1126.73" y="1274.16" width="70.07" height="1210.71" style="fill:none;stroke:#C10534;stroke-width:8.64"/>
	<rect x="1201.12" y="1352.51" width="78.58" height="1136.68" style="fill:#C10534"/>
	<rect x="1205.44" y="1356.83" width="69.94" height="1128.04" style="fill:none;stroke:#C10534;stroke-width:8.64"/>
	<rect x="1279.70" y="1383.57" width="78.58" height="1105.62" style="fill:#C10534"/>
	<rect x="1284.02" y="1387.89" width="69.94" height="1096.98" style="fill:none;stroke:#C10534;stroke-width:8.64"/>
	<rect x="1358.28" y="1331.84" width="78.70" height="1157.35" style="fill:#C10534"/>
	<rect x="1362.60" y="1336.16" width="70.07" height="1148.71" style="fill:none;stroke:#C10534;stroke-width:8.64"/>
	<rect x="1436.98" y="1476.51" width="78.58" height="1012.68" style="fill:#C10534"/>
	<rect x="1441.30" y="1480.83" width="69.94" height="1004.04" style="fill:none;stroke:#C10534;stroke-width:8.64"/>
	<rect x="1515.57" y="1052.90" width="78.58" height="1436.29" style="fill:#C10534"/>
	<rect x="1519.89" y="1057.22" width="69.94" height="1427.65" style="fill:none;stroke:#C10534;stroke-width:8.64"/>
	<rect x="1594.15" y="1538.51" width="78.70" height="950.68" style="fill:#C10534"/>
	<rect x="1598.47" y="1542.83" width="70.07" height="942.04" style="fill:none;stroke:#C10534;stroke-width:8.64"/>
	<rect x="1672.85" y="1393.84" width="78.58" height="1095.35" style="fill:#C10534"/>
	<rect x="1677.17" y="1398.16" width="69.94" height="1086.71" style="fill:none;stroke:#C10534;stroke-width:8.64"/>
	<rect x="1751.43" y="1631.57" width="78.71" height="857.61" style="fill:#C10534"/>
	<rect x="1755.75" y="1635.89" width="70.07" height="848.97" style="fill:none;stroke:#C10534;stroke-width:8.64"/>
	<rect x="1830.14" y="1807.18" width="78.58" height="682.01" style="fill:#C10534"/>
	<rect x="1834.46" y="1811.50" width="69.94" height="673.37" style="fill:none;stroke:#C10534;stroke-width:8.64"/>
	<rect x="1908.72" y="1745.18" width="78.58" height="744.01" style="fill:#C10534"/>
	<rect x="1913.04" y="1749.50" width="69.94" height="735.37" style="fill:none;stroke:#C10534;stroke-width:8.64"/>
	<rect x="1987.30" y="1982.91" width="78.70" height="506.28" style="fill:#C10534"/>
	<rect x="1991.62" y="1987.23" width="70.07" height="497.64" style="fill:none;stroke:#C10534;stroke-width:8.64"/>
	<rect x="2066.01" y="2003.58" width="78.58" height="485.61" style="fill:#C10534"/>
	<rect x="2070.33" y="2007.89" width="69.94" height="476.97" style="fill:none;stroke:#C10534;stroke-width:8.64"/>
	<rect x="2144.59" y="2055.18" width="78.58" height="434.00" style="fill:#C10534"/>
	<rect x="2148.91" y="2059.50" width="69.94" height="425.37" style="fill:none;stroke:#C10534;stroke-width:8.64"/>
	<rect x="2223.17" y="2179.18" width="78.71" height="310.00" style="fill:#C10534"/>
	<rect x="2227.49" y="2183.50" width="70.07" height="301.36" style="fill:none;stroke:#C10534;stroke-width:8.64"/>
	<rect x="2301.87" y="2354.91" width="78.58" height="134.27" style="fill:#C10534"/>
	<rect x="2306.19" y="2359.23" width="69.94" height="125.63" style="fill:none;stroke:#C10534;stroke-width:8.64"/>
	<rect x="2380.45" y="2251.58" width="78.58" height="237.61" style="fill:#C10534"/>
	<rect x="2384.77" y="2255.90" width="69.94" height="228.97" style="fill:none;stroke:#C10534;stroke-width:8.64"/>
	<rect x="2459.04" y="2416.91" width="78.70" height="72.27" style="fill:#C10534"/>
	<rect x="2463.36" y="2421.23" width="70.07" height="63.63" style="fill:none;stroke:#C10534;stroke-width:8.64"/>
	<rect x="2537.74" y="2447.85" width="78.58" height="41.33" style="fill:#C10534"/>
	<rect x="2542.06" y="2452.17" width="69.94" height="32.69" style="fill:none;stroke:#C10534;stroke-width:8.64"/>
	<rect x="2616.32" y="2406.52" width="78.58" height="82.67" style="fill:#C10534"/>
	<rect x="2620.64" y="2410.84" width="69.94" height="74.03" style="fill:none;stroke:#C10534;stroke-width:8.64"/>
	<rect x="2694.90" y="2427.18" width="78.70" height="62.00" style="fill:#C10534"/>
	<rect x="2699.22" y="2431.50" width="70.07" height="53.36" style="fill:none;stroke:#C10534;stroke-width:8.64"/>
	<rect x="2773.61" y="2478.91" width="78.58" height="10.27" style="fill:#C10534"/>
	<rect x="2777.93" y="2483.23" width="69.94" height="1.63" style="fill:none;stroke:#C10534;stroke-width:8.64"/>
	<rect x="2852.19" y="2458.25" width="78.70" height="30.94" style="fill:#C10534"/>
	<rect x="2856.51" y="2462.57" width="70.07" height="22.30" style="fill:none;stroke:#C10534;stroke-width:8.64"/>
	<rect x="3009.48" y="2447.85" width="78.58" height="41.33" style="fill:#C10534"/>
	<rect x="3013.80" y="2452.17" width="69.94" height="32.69" style="fill:none;stroke:#C10534;stroke-width:8.64"/>
	<rect x="3088.06" y="2478.91" width="78.70" height="10.27" style="fill:#C10534"/>
	<rect x="3092.38" y="2483.23" width="70.07" height="1.63" style="fill:none;stroke:#C10534;stroke-width:8.64"/>
	<rect x="3166.76" y="2478.91" width="78.58" height="10.27" style="fill:#C10534"/>
	<rect x="3171.08" y="2483.23" width="69.94" height="1.63" style="fill:none;stroke:#C10534;stroke-width:8.64"/>
	<rect x="3717.08" y="2478.91" width="78.58" height="10.27" style="fill:#C10534"/>
	<rect x="3721.40" y="2483.23" width="69.94" height="1.63" style="fill:none;stroke:#C10534;stroke-width:8.64"/>
	<text x="3135.21" y="3086.43" style="font-family:'Helvetica';font-size:99.99px;fill:#000000" text-anchor="middle">e_orf_a Gr 2 Rd 2</text>
	<line x1="390.80" y1="2489.19" x2="390.80" y2="100.86" style="stroke:#000000;stroke-width:5.76"/>
	<line x1="390.80" y1="2489.19" x2="350.83" y2="2489.19" style="stroke:#000000;stroke-width:5.76"/>
	<text x="300.72" y="2489.19" style="font-family:'Helvetica';font-size:99.99px;fill:#000000" transform="rotate(-90 300.72,2489.19)" text-anchor="middle">0</text>
	<line x1="390.80" y1="1950.11" x2="350.83" y2="1950.11" style="stroke:#000000;stroke-width:5.76"/>
	<text x="300.72" y="1950.11" style="font-family:'Helvetica';font-size:99.99px;fill:#000000" transform="rotate(-90 300.72,1950.11)" text-anchor="middle">.005</text>
	<line x1="390.80" y1="1410.92" x2="350.83" y2="1410.92" style="stroke:#000000;stroke-width:5.76"/>
	<text x="300.72" y="1410.92" style="font-family:'Helvetica';font-size:99.99px;fill:#000000" transform="rotate(-90 300.72,1410.92)" text-anchor="middle">.01</text>
	<line x1="390.80" y1="871.72" x2="350.83" y2="871.72" style="stroke:#000000;stroke-width:5.76"/>
	<text x="300.72" y="871.72" style="font-family:'Helvetica';font-size:99.99px;fill:#000000" transform="rotate(-90 300.72,871.72)" text-anchor="middle">.015</text>
	<line x1="390.80" y1="332.65" x2="350.83" y2="332.65" style="stroke:#000000;stroke-width:5.76"/>
	<text x="300.72" y="332.65" style="font-family:'Helvetica';font-size:99.99px;fill:#000000" transform="rotate(-90 300.72,332.65)" text-anchor="middle">.02</text>
	<text x="190.71" y="1294.96" style="font-family:'Helvetica';font-size:99.99px;fill:#000000" transform="rotate(-90 190.71,1294.96)" text-anchor="middle">Density</text>
	<line x1="390.80" y1="2489.19" x2="3859.02" y2="2489.19" style="stroke:#000000;stroke-width:5.76"/>
	<line x1="493.39" y1="2489.19" x2="493.39" y2="2529.16" style="stroke:#000000;stroke-width:5.76"/>
	<text x="493.39" y="2619.14" style="font-family:'Helvetica';font-size:99.99px;fill:#000000" text-anchor="middle">0</text>
	<line x1="1279.70" y1="2489.19" x2="1279.70" y2="2529.16" style="stroke:#000000;stroke-width:5.76"/>
	<text x="1279.70" y="2619.14" style="font-family:'Helvetica';font-size:99.99px;fill:#000000" text-anchor="middle">50</text>
	<line x1="2066.01" y1="2489.19" x2="2066.01" y2="2529.16" style="stroke:#000000;stroke-width:5.76"/>
	<text x="2066.01" y="2619.14" style="font-family:'Helvetica';font-size:99.99px;fill:#000000" text-anchor="middle">100</text>
	<line x1="2852.19" y1="2489.19" x2="2852.19" y2="2529.16" style="stroke:#000000;stroke-width:5.76"/>
	<text x="2852.19" y="2619.14" style="font-family:'Helvetica';font-size:99.99px;fill:#000000" text-anchor="middle">150</text>
	<line x1="3638.50" y1="2489.19" x2="3638.50" y2="2529.16" style="stroke:#000000;stroke-width:5.76"/>
	<text x="3638.50" y="2619.14" style="font-family:'Helvetica';font-size:99.99px;fill:#000000" text-anchor="middle">200</text>
	<text x="2124.91" y="2729.16" style="font-family:'Helvetica';font-size:99.99px;fill:#000000" text-anchor="middle">Oral Reading Fluency - A (English)</text>
</svg>
