<?xml version="1.0" encoding="UTF-8" standalone="no"?>
<!-- This is a Stata 15.1 generated SVG file (http://www.stata.com) -->

<svg version="1.1" width="5.50in" height="4.00in" viewBox="0 0 3960 2880" xmlns="http://www.w3.org/2000/svg" xmlns:xlink="http://www.w3.org/1999/xlink">
	<desc>Stata Graph - e_orf_a_gr1_phase1</desc>
	<rect x="0" y="0" width="3960" height="2880" style="fill:#EAF2F3;stroke:none"/>
	<rect x="0.00" y="0.00" width="3959.88" height="2880.00" style="fill:#EAF2F3"/>
	<rect x="2.88" y="2.88" width="3954.12" height="2874.24" style="fill:none;stroke:#EAF2F3;stroke-width:5.76"/>
	<rect x="390.80" y="100.86" width="3468.22" height="2388.33" style="fill:#FFFFFF"/>
	<rect x="393.68" y="103.74" width="3462.46" height="2382.57" style="fill:none;stroke:#FFFFFF;stroke-width:5.76"/>
	<line x1="390.80" y1="2489.19" x2="3859.02" y2="2489.19" style="stroke:#EAF2F3;stroke-width:8.64"/>
	<line x1="390.80" y1="1962.98" x2="3859.02" y2="1962.98" style="stroke:#EAF2F3;stroke-width:8.64"/>
	<line x1="390.80" y1="1436.78" x2="3859.02" y2="1436.78" style="stroke:#EAF2F3;stroke-width:8.64"/>
	<line x1="390.80" y1="910.46" x2="3859.02" y2="910.46" style="stroke:#EAF2F3;stroke-width:8.64"/>
	<line x1="390.80" y1="384.26" x2="3859.02" y2="384.26" style="stroke:#EAF2F3;stroke-width:8.64"/>
	<rect x="508.86" y="164.22" width="109.64" height="2324.96" style="fill:#ADD8E6"/>
	<rect x="513.18" y="168.54" width="101.00" height="2316.32" style="fill:none;stroke:#ADD8E6;stroke-width:8.64"/>
	<rect x="618.50" y="2129.68" width="109.52" height="359.50" style="fill:#ADD8E6"/>
	<rect x="622.82" y="2134.00" width="100.88" height="350.87" style="fill:none;stroke:#ADD8E6;stroke-width:8.64"/>
	<rect x="728.02" y="2138.34" width="109.52" height="350.84" style="fill:#ADD8E6"/>
	<rect x="732.34" y="2142.66" width="100.88" height="342.20" style="fill:none;stroke:#ADD8E6;stroke-width:8.64"/>
	<rect x="837.54" y="2116.56" width="109.64" height="372.62" style="fill:#ADD8E6"/>
	<rect x="841.86" y="2120.88" width="101.00" height="363.98" style="fill:none;stroke:#ADD8E6;stroke-width:8.64"/>
	<rect x="947.18" y="2201.58" width="109.52" height="287.60" style="fill:#ADD8E6"/>
	<rect x="951.50" y="2205.90" width="100.88" height="278.96" style="fill:none;stroke:#ADD8E6;stroke-width:8.64"/>
	<rect x="1056.70" y="2158.02" width="109.52" height="331.17" style="fill:#ADD8E6"/>
	<rect x="1061.02" y="2162.34" width="100.88" height="322.53" style="fill:none;stroke:#ADD8E6;stroke-width:8.64"/>
	<rect x="1166.22" y="2306.15" width="109.64" height="183.03" style="fill:#ADD8E6"/>
	<rect x="1170.54" y="2310.47" width="101.00" height="174.39" style="fill:none;stroke:#ADD8E6;stroke-width:8.64"/>
	<rect x="1275.86" y="2301.82" width="109.52" height="187.36" style="fill:#ADD8E6"/>
	<rect x="1280.18" y="2306.14" width="100.88" height="178.72" style="fill:none;stroke:#ADD8E6;stroke-width:8.64"/>
	<rect x="1385.38" y="2349.71" width="109.52" height="139.47" style="fill:#ADD8E6"/>
	<rect x="1389.70" y="2354.03" width="100.88" height="130.83" style="fill:none;stroke:#ADD8E6;stroke-width:8.64"/>
	<rect x="1494.90" y="2362.83" width="109.64" height="126.35" style="fill:#ADD8E6"/>
	<rect x="1499.22" y="2367.15" width="101.00" height="117.71" style="fill:none;stroke:#ADD8E6;stroke-width:8.64"/>
	<rect x="1604.54" y="2406.39" width="109.52" height="82.79" style="fill:#ADD8E6"/>
	<rect x="1608.86" y="2410.71" width="100.88" height="74.15" style="fill:none;stroke:#ADD8E6;stroke-width:8.64"/>
	<rect x="1714.06" y="2391.17" width="109.52" height="98.01" style="fill:#ADD8E6"/>
	<rect x="1718.38" y="2395.49" width="100.88" height="89.37" style="fill:none;stroke:#ADD8E6;stroke-width:8.64"/>
	<rect x="1823.58" y="2397.73" width="109.64" height="91.45" style="fill:#ADD8E6"/>
	<rect x="1827.90" y="2402.05" width="101.00" height="82.81" style="fill:none;stroke:#ADD8E6;stroke-width:8.64"/>
	<rect x="1933.22" y="2410.73" width="109.52" height="78.46" style="fill:#ADD8E6"/>
	<rect x="1937.54" y="2415.05" width="100.88" height="69.82" style="fill:none;stroke:#ADD8E6;stroke-width:8.64"/>
	<rect x="2042.74" y="2419.51" width="109.52" height="69.67" style="fill:#ADD8E6"/>
	<rect x="2047.06" y="2423.83" width="100.88" height="61.03" style="fill:none;stroke:#ADD8E6;stroke-width:8.64"/>
	<rect x="2152.26" y="2443.40" width="109.64" height="45.79" style="fill:#ADD8E6"/>
	<rect x="2156.58" y="2447.72" width="101.00" height="37.15" style="fill:none;stroke:#ADD8E6;stroke-width:8.64"/>
	<rect x="2261.90" y="2449.96" width="109.52" height="39.23" style="fill:#ADD8E6"/>
	<rect x="2266.22" y="2454.28" width="100.88" height="30.59" style="fill:none;stroke:#ADD8E6;stroke-width:8.64"/>
	<rect x="2371.42" y="2467.40" width="109.52" height="21.78" style="fill:#ADD8E6"/>
	<rect x="2375.74" y="2471.72" width="100.88" height="13.14" style="fill:none;stroke:#ADD8E6;stroke-width:8.64"/>
	<rect x="2480.94" y="2465.18" width="109.64" height="24.01" style="fill:#ADD8E6"/>
	<rect x="2485.26" y="2469.50" width="101.00" height="15.37" style="fill:none;stroke:#ADD8E6;stroke-width:8.64"/>
	<rect x="2590.58" y="2482.63" width="109.52" height="6.56" style="fill:#ADD8E6"/>
	<rect x="2594.90" y="2486.95" width="100.88" height="-2.08" style="fill:none;stroke:#ADD8E6;stroke-width:8.64"/>
	<rect x="2700.10" y="2473.96" width="109.52" height="15.22" style="fill:#ADD8E6"/>
	<rect x="2704.42" y="2478.28" width="100.88" height="6.58" style="fill:none;stroke:#ADD8E6;stroke-width:8.64"/>
	<rect x="2809.62" y="2476.19" width="109.64" height="12.99" style="fill:#ADD8E6"/>
	<rect x="2813.94" y="2480.51" width="101.00" height="4.35" style="fill:none;stroke:#ADD8E6;stroke-width:8.64"/>
	<rect x="2919.26" y="2484.85" width="109.52" height="4.33" style="fill:#ADD8E6"/>
	<rect x="2923.58" y="2489.17" width="100.88" height="-4.31" style="fill:none;stroke:#ADD8E6;stroke-width:8.64"/>
	<rect x="3138.30" y="2487.08" width="109.64" height="2.10" style="fill:#ADD8E6"/>
	<rect x="3142.62" y="2491.40" width="101.00" height="-6.54" style="fill:none;stroke:#ADD8E6;stroke-width:8.64"/>
	<rect x="3247.94" y="2487.08" width="109.52" height="2.10" style="fill:#ADD8E6"/>
	<rect x="3252.26" y="2491.40" width="100.88" height="-6.54" style="fill:none;stroke:#ADD8E6;stroke-width:8.64"/>
	<rect x="3466.98" y="2487.08" width="109.64" height="2.10" style="fill:#ADD8E6"/>
	<rect x="3471.30" y="2491.40" width="101.00" height="-6.54" style="fill:none;stroke:#ADD8E6;stroke-width:8.64"/>
	<rect x="3686.14" y="2487.08" width="109.52" height="2.10" style="fill:#ADD8E6"/>
	<rect x="3690.46" y="2491.40" width="100.88" height="-6.54" style="fill:none;stroke:#ADD8E6;stroke-width:8.64"/>
	<text x="4190.18" y="682.39" style="font-family:'Helvetica';font-size:99.99px;fill:#000000" text-anchor="middle">e_orf_a Gr 1 Rd 1</text>
	<line x1="390.80" y1="2489.19" x2="390.80" y2="100.86" style="stroke:#000000;stroke-width:5.76"/>
	<line x1="390.80" y1="2489.19" x2="350.83" y2="2489.19" style="stroke:#000000;stroke-width:5.76"/>
	<text x="300.72" y="2489.19" style="font-family:'Helvetica';font-size:99.99px;fill:#000000" transform="rotate(-90 300.72,2489.19)" text-anchor="middle">0</text>
	<line x1="390.80" y1="1962.98" x2="350.83" y2="1962.98" style="stroke:#000000;stroke-width:5.76"/>
	<text x="300.72" y="1962.98" style="font-family:'Helvetica';font-size:99.99px;fill:#000000" transform="rotate(-90 300.72,1962.98)" text-anchor="middle">.02</text>
	<line x1="390.80" y1="1436.78" x2="350.83" y2="1436.78" style="stroke:#000000;stroke-width:5.76"/>
	<text x="300.72" y="1436.78" style="font-family:'Helvetica';font-size:99.99px;fill:#000000" transform="rotate(-90 300.72,1436.78)" text-anchor="middle">.04</text>
	<line x1="390.80" y1="910.46" x2="350.83" y2="910.46" style="stroke:#000000;stroke-width:5.76"/>
	<text x="300.72" y="910.46" style="font-family:'Helvetica';font-size:99.99px;fill:#000000" transform="rotate(-90 300.72,910.46)" text-anchor="middle">.06</text>
	<line x1="390.80" y1="384.26" x2="350.83" y2="384.26" style="stroke:#000000;stroke-width:5.76"/>
	<text x="300.72" y="384.26" style="font-family:'Helvetica';font-size:99.99px;fill:#000000" transform="rotate(-90 300.72,384.26)" text-anchor="middle">.08</text>
	<text x="190.71" y="1294.96" style="font-family:'Helvetica';font-size:99.99px;fill:#000000" transform="rotate(-90 190.71,1294.96)" text-anchor="middle">Density</text>
	<line x1="390.80" y1="2489.19" x2="3859.02" y2="2489.19" style="stroke:#000000;stroke-width:5.76"/>
	<line x1="508.86" y1="2489.19" x2="508.86" y2="2529.16" style="stroke:#000000;stroke-width:5.76"/>
	<text x="508.86" y="2619.14" style="font-family:'Helvetica';font-size:99.99px;fill:#000000" text-anchor="middle">0</text>
	<line x1="1604.54" y1="2489.19" x2="1604.54" y2="2529.16" style="stroke:#000000;stroke-width:5.76"/>
	<text x="1604.54" y="2619.14" style="font-family:'Helvetica';font-size:99.99px;fill:#000000" text-anchor="middle">50</text>
	<line x1="2700.10" y1="2489.19" x2="2700.10" y2="2529.16" style="stroke:#000000;stroke-width:5.76"/>
	<text x="2700.10" y="2619.14" style="font-family:'Helvetica';font-size:99.99px;fill:#000000" text-anchor="middle">100</text>
	<line x1="3795.66" y1="2489.19" x2="3795.66" y2="2529.16" style="stroke:#000000;stroke-width:5.76"/>
	<text x="3795.66" y="2619.14" style="font-family:'Helvetica';font-size:99.99px;fill:#000000" text-anchor="middle">150</text>
	<text x="2124.91" y="2729.16" style="font-family:'Helvetica';font-size:99.99px;fill:#000000" text-anchor="middle">Oral Reading Fluency - A (English)</text>
</svg>
