<?xml version="1.0" encoding="UTF-8" standalone="no"?>
<!-- This is a Stata 15.1 generated SVG file (http://www.stata.com) -->

<svg version="1.1" width="5.50in" height="4.00in" viewBox="0 0 3960 2880" xmlns="http://www.w3.org/2000/svg" xmlns:xlink="http://www.w3.org/1999/xlink">
	<desc>Stata Graph - histograms_combined_e_orf_a</desc>
	<rect x="0" y="0" width="3960" height="2880" style="fill:#EAF2F3;stroke:none"/>
	<rect x="0.00" y="0.00" width="3959.88" height="2880.00" style="fill:#EAF2F3"/>
	<rect x="2.88" y="2.88" width="3954.12" height="2874.24" style="fill:none;stroke:#EAF2F3;stroke-width:5.76"/>
	<rect x="63.36" y="63.36" width="1916.64" height="1376.64" style="fill:#EAF2F3"/>
	<rect x="65.52" y="65.52" width="1912.32" height="1372.32" style="fill:none;stroke:#EAF2F3;stroke-width:4.32"/>
	<rect x="356.40" y="138.98" width="1547.99" height="1007.98" style="fill:#FFFFFF"/>
	<rect x="358.56" y="141.14" width="1543.67" height="1003.66" style="fill:none;stroke:#FFFFFF;stroke-width:4.32"/>
	<line x1="356.40" y1="1146.95" x2="1904.39" y2="1146.95" style="stroke:#EAF2F3;stroke-width:6.48"/>
	<line x1="356.40" y1="929.52" x2="1904.39" y2="929.52" style="stroke:#EAF2F3;stroke-width:6.48"/>
	<line x1="356.40" y1="712.20" x2="1904.39" y2="712.20" style="stroke:#EAF2F3;stroke-width:6.48"/>
	<line x1="356.40" y1="494.77" x2="1904.39" y2="494.77" style="stroke:#EAF2F3;stroke-width:6.48"/>
	<line x1="356.40" y1="277.33" x2="1904.39" y2="277.33" style="stroke:#EAF2F3;stroke-width:6.48"/>
	<rect x="421.00" y="186.50" width="34.28" height="960.45" style="fill:#ADD8E6"/>
	<rect x="424.24" y="189.74" width="27.80" height="953.97" style="fill:none;stroke:#ADD8E6;stroke-width:6.48"/>
	<rect x="455.28" y="998.45" width="34.15" height="148.50" style="fill:#ADD8E6"/>
	<rect x="458.52" y="1001.69" width="27.68" height="142.02" style="fill:none;stroke:#ADD8E6;stroke-width:6.48"/>
	<rect x="489.43" y="1002.04" width="34.15" height="144.92" style="fill:#ADD8E6"/>
	<rect x="492.67" y="1005.27" width="27.68" height="138.44" style="fill:none;stroke:#ADD8E6;stroke-width:6.48"/>
	<rect x="523.59" y="993.00" width="34.16" height="153.95" style="fill:#ADD8E6"/>
	<rect x="526.83" y="996.24" width="27.68" height="147.47" style="fill:none;stroke:#ADD8E6;stroke-width:6.48"/>
	<rect x="557.74" y="1028.15" width="34.28" height="118.80" style="fill:#ADD8E6"/>
	<rect x="560.98" y="1031.39" width="27.80" height="112.32" style="fill:none;stroke:#ADD8E6;stroke-width:6.48"/>
	<rect x="592.02" y="1010.08" width="34.15" height="136.87" style="fill:#ADD8E6"/>
	<rect x="595.26" y="1013.32" width="27.68" height="130.39" style="fill:none;stroke:#ADD8E6;stroke-width:6.48"/>
	<rect x="626.17" y="1071.34" width="34.16" height="75.61" style="fill:#ADD8E6"/>
	<rect x="629.41" y="1074.58" width="27.68" height="69.13" style="fill:none;stroke:#ADD8E6;stroke-width:6.48"/>
	<rect x="660.33" y="1069.48" width="34.15" height="77.47" style="fill:#ADD8E6"/>
	<rect x="663.57" y="1072.72" width="27.68" height="70.99" style="fill:none;stroke:#ADD8E6;stroke-width:6.48"/>
	<rect x="694.49" y="1089.28" width="34.28" height="57.67" style="fill:#ADD8E6"/>
	<rect x="697.72" y="1092.52" width="27.80" height="51.19" style="fill:none;stroke:#ADD8E6;stroke-width:6.48"/>
	<rect x="728.76" y="1094.73" width="34.16" height="52.22" style="fill:#ADD8E6"/>
	<rect x="732.00" y="1097.97" width="27.68" height="45.74" style="fill:none;stroke:#ADD8E6;stroke-width:6.48"/>
	<rect x="762.92" y="1112.67" width="34.15" height="34.28" style="fill:#ADD8E6"/>
	<rect x="766.16" y="1115.91" width="27.68" height="27.80" style="fill:none;stroke:#ADD8E6;stroke-width:6.48"/>
	<rect x="797.07" y="1106.36" width="34.15" height="40.59" style="fill:#ADD8E6"/>
	<rect x="800.31" y="1109.60" width="27.68" height="34.11" style="fill:none;stroke:#ADD8E6;stroke-width:6.48"/>
	<rect x="831.23" y="1109.08" width="34.28" height="37.87" style="fill:#ADD8E6"/>
	<rect x="834.47" y="1112.32" width="27.80" height="31.39" style="fill:none;stroke:#ADD8E6;stroke-width:6.48"/>
	<rect x="865.51" y="1114.53" width="34.15" height="32.42" style="fill:#ADD8E6"/>
	<rect x="868.75" y="1117.77" width="27.68" height="25.94" style="fill:none;stroke:#ADD8E6;stroke-width:6.48"/>
	<rect x="899.66" y="1118.12" width="34.15" height="28.83" style="fill:#ADD8E6"/>
	<rect x="902.90" y="1121.36" width="27.68" height="22.35" style="fill:none;stroke:#ADD8E6;stroke-width:6.48"/>
	<rect x="933.82" y="1128.02" width="34.15" height="18.93" style="fill:#ADD8E6"/>
	<rect x="937.06" y="1131.26" width="27.68" height="12.45" style="fill:none;stroke:#ADD8E6;stroke-width:6.48"/>
	<rect x="967.97" y="1130.74" width="34.28" height="16.21" style="fill:#ADD8E6"/>
	<rect x="971.21" y="1133.98" width="27.80" height="9.73" style="fill:none;stroke:#ADD8E6;stroke-width:6.48"/>
	<rect x="1002.25" y="1137.92" width="34.15" height="9.03" style="fill:#ADD8E6"/>
	<rect x="1005.49" y="1141.16" width="27.68" height="2.55" style="fill:none;stroke:#ADD8E6;stroke-width:6.48"/>
	<rect x="1036.41" y="1137.05" width="34.15" height="9.90" style="fill:#ADD8E6"/>
	<rect x="1039.65" y="1140.29" width="27.68" height="3.42" style="fill:none;stroke:#ADD8E6;stroke-width:6.48"/>
	<rect x="1070.56" y="1144.23" width="34.15" height="2.72" style="fill:#ADD8E6"/>
	<rect x="1073.80" y="1147.47" width="27.68" height="-3.76" style="fill:none;stroke:#ADD8E6;stroke-width:6.48"/>
	<rect x="1104.72" y="1140.64" width="34.28" height="6.31" style="fill:#ADD8E6"/>
	<rect x="1107.96" y="1143.88" width="27.80" height="-0.17" style="fill:none;stroke:#ADD8E6;stroke-width:6.48"/>
	<rect x="1138.99" y="1141.51" width="34.16" height="5.45" style="fill:#ADD8E6"/>
	<rect x="1142.23" y="1144.75" width="27.68" height="-1.03" style="fill:none;stroke:#ADD8E6;stroke-width:6.48"/>
	<rect x="1173.15" y="1145.09" width="34.15" height="1.86" style="fill:#ADD8E6"/>
	<rect x="1176.39" y="1148.33" width="27.68" height="-4.62" style="fill:none;stroke:#ADD8E6;stroke-width:6.48"/>
	<rect x="1241.46" y="1145.96" width="34.28" height="0.99" style="fill:#ADD8E6"/>
	<rect x="1244.70" y="1149.20" width="27.80" height="-5.49" style="fill:none;stroke:#ADD8E6;stroke-width:6.48"/>
	<rect x="1275.74" y="1145.96" width="34.15" height="0.99" style="fill:#ADD8E6"/>
	<rect x="1278.98" y="1149.20" width="27.68" height="-5.49" style="fill:none;stroke:#ADD8E6;stroke-width:6.48"/>
	<rect x="1344.05" y="1145.96" width="34.15" height="0.99" style="fill:#ADD8E6"/>
	<rect x="1347.29" y="1149.20" width="27.68" height="-5.49" style="fill:none;stroke:#ADD8E6;stroke-width:6.48"/>
	<rect x="1412.36" y="1145.96" width="34.28" height="0.99" style="fill:#ADD8E6"/>
	<rect x="1415.60" y="1149.20" width="27.80" height="-5.49" style="fill:none;stroke:#ADD8E6;stroke-width:6.48"/>
	<text x="1569.64" y="412.39" style="font-family:'Helvetica';font-size:74.99px;fill:#000000" text-anchor="middle">e_orf_a Gr 1 Rd 1</text>
	<line x1="356.40" y1="1146.95" x2="356.40" y2="138.98" style="stroke:#000000;stroke-width:4.32"/>
	<line x1="356.40" y1="1146.95" x2="326.45" y2="1146.95" style="stroke:#000000;stroke-width:4.32"/>
	<text x="288.92" y="1146.95" style="font-family:'Helvetica';font-size:74.99px;fill:#000000" transform="rotate(-90 288.92,1146.95)" text-anchor="middle">0</text>
	<line x1="356.40" y1="929.52" x2="326.45" y2="929.52" style="stroke:#000000;stroke-width:4.32"/>
	<text x="288.92" y="929.52" style="font-family:'Helvetica';font-size:74.99px;fill:#000000" transform="rotate(-90 288.92,929.52)" text-anchor="middle">.02</text>
	<line x1="356.40" y1="712.20" x2="326.45" y2="712.20" style="stroke:#000000;stroke-width:4.32"/>
	<text x="288.92" y="712.20" style="font-family:'Helvetica';font-size:74.99px;fill:#000000" transform="rotate(-90 288.92,712.20)" text-anchor="middle">.04</text>
	<line x1="356.40" y1="494.77" x2="326.45" y2="494.77" style="stroke:#000000;stroke-width:4.32"/>
	<text x="288.92" y="494.77" style="font-family:'Helvetica';font-size:74.99px;fill:#000000" transform="rotate(-90 288.92,494.77)" text-anchor="middle">.06</text>
	<line x1="356.40" y1="277.33" x2="326.45" y2="277.33" style="stroke:#000000;stroke-width:4.32"/>
	<text x="288.92" y="277.33" style="font-family:'Helvetica';font-size:74.99px;fill:#000000" transform="rotate(-90 288.92,277.33)" text-anchor="middle">.08</text>
	<text x="206.38" y="642.90" style="font-family:'Helvetica';font-size:74.99px;fill:#000000" transform="rotate(-90 206.38,642.90)" text-anchor="middle">Density</text>
	<line x1="356.40" y1="1146.95" x2="1904.39" y2="1146.95" style="stroke:#000000;stroke-width:4.32"/>
	<line x1="421.00" y1="1146.95" x2="421.00" y2="1176.90" style="stroke:#000000;stroke-width:4.32"/>
	<text x="421.00" y="1244.31" style="font-family:'Helvetica';font-size:74.99px;fill:#000000" text-anchor="middle">0</text>
	<line x1="762.92" y1="1146.95" x2="762.92" y2="1176.90" style="stroke:#000000;stroke-width:4.32"/>
	<text x="762.92" y="1244.31" style="font-family:'Helvetica';font-size:74.99px;fill:#000000" text-anchor="middle">50</text>
	<line x1="1104.72" y1="1146.95" x2="1104.72" y2="1176.90" style="stroke:#000000;stroke-width:4.32"/>
	<text x="1104.72" y="1244.31" style="font-family:'Helvetica';font-size:74.99px;fill:#000000" text-anchor="middle">100</text>
	<line x1="1446.64" y1="1146.95" x2="1446.64" y2="1176.90" style="stroke:#000000;stroke-width:4.32"/>
	<text x="1446.64" y="1244.31" style="font-family:'Helvetica';font-size:74.99px;fill:#000000" text-anchor="middle">150</text>
	<line x1="1788.43" y1="1146.95" x2="1788.43" y2="1176.90" style="stroke:#000000;stroke-width:4.32"/>
	<text x="1788.43" y="1244.31" style="font-family:'Helvetica';font-size:74.99px;fill:#000000" text-anchor="middle">200</text>
	<text x="1130.33" y="1326.85" style="font-family:'Helvetica';font-size:74.99px;fill:#000000" text-anchor="middle">Oral Reading Fluency - A (English)</text>
	<rect x="1980.00" y="63.36" width="1916.52" height="1376.64" style="fill:#EAF2F3"/>
	<rect x="1982.16" y="65.52" width="1912.20" height="1372.32" style="fill:none;stroke:#EAF2F3;stroke-width:4.32"/>
	<rect x="2273.04" y="138.98" width="1547.87" height="1007.98" style="fill:#FFFFFF"/>
	<rect x="2275.20" y="141.14" width="1543.55" height="1003.66" style="fill:none;stroke:#FFFFFF;stroke-width:4.32"/>
	<line x1="2273.04" y1="1146.95" x2="3820.91" y2="1146.95" style="stroke:#EAF2F3;stroke-width:6.48"/>
	<line x1="2273.04" y1="929.52" x2="3820.91" y2="929.52" style="stroke:#EAF2F3;stroke-width:6.48"/>
	<line x1="2273.04" y1="712.20" x2="3820.91" y2="712.20" style="stroke:#EAF2F3;stroke-width:6.48"/>
	<line x1="2273.04" y1="494.77" x2="3820.91" y2="494.77" style="stroke:#EAF2F3;stroke-width:6.48"/>
	<line x1="2273.04" y1="277.33" x2="3820.91" y2="277.33" style="stroke:#EAF2F3;stroke-width:6.48"/>
	<rect x="2337.64" y="541.42" width="34.16" height="605.53" style="fill:#C10534"/>
	<rect x="2340.88" y="544.66" width="27.68" height="599.05" style="fill:none;stroke:#C10534;stroke-width:6.48"/>
	<rect x="2371.79" y="1072.57" width="34.16" height="74.38" style="fill:#C10534"/>
	<rect x="2375.03" y="1075.81" width="27.68" height="67.90" style="fill:none;stroke:#C10534;stroke-width:6.48"/>
	<rect x="2405.95" y="1039.41" width="34.28" height="107.54" style="fill:#C10534"/>
	<rect x="2409.19" y="1042.65" width="27.80" height="101.06" style="fill:none;stroke:#C10534;stroke-width:6.48"/>
	<rect x="2440.23" y="1050.18" width="34.15" height="96.78" style="fill:#C10534"/>
	<rect x="2443.47" y="1053.42" width="27.68" height="90.30" style="fill:none;stroke:#C10534;stroke-width:6.48"/>
	<rect x="2474.38" y="1038.54" width="34.16" height="108.41" style="fill:#C10534"/>
	<rect x="2477.62" y="1041.78" width="27.68" height="101.93" style="fill:none;stroke:#C10534;stroke-width:6.48"/>
	<rect x="2508.54" y="1041.27" width="34.15" height="105.69" style="fill:#C10534"/>
	<rect x="2511.78" y="1044.50" width="27.68" height="99.21" style="fill:none;stroke:#C10534;stroke-width:6.48"/>
	<rect x="2542.69" y="1072.57" width="34.28" height="74.38" style="fill:#C10534"/>
	<rect x="2545.93" y="1075.81" width="27.80" height="67.90" style="fill:none;stroke:#C10534;stroke-width:6.48"/>
	<rect x="2576.97" y="1053.76" width="34.16" height="93.19" style="fill:#C10534"/>
	<rect x="2580.21" y="1057.00" width="27.68" height="86.71" style="fill:none;stroke:#C10534;stroke-width:6.48"/>
	<rect x="2611.13" y="1059.09" width="34.16" height="87.87" style="fill:#C10534"/>
	<rect x="2614.36" y="1062.33" width="27.68" height="81.39" style="fill:none;stroke:#C10534;stroke-width:6.48"/>
	<rect x="2645.28" y="1051.04" width="34.15" height="95.91" style="fill:#C10534"/>
	<rect x="2648.52" y="1054.28" width="27.68" height="89.43" style="fill:none;stroke:#C10534;stroke-width:6.48"/>
	<rect x="2679.43" y="1051.04" width="34.28" height="95.91" style="fill:#C10534"/>
	<rect x="2682.67" y="1054.28" width="27.80" height="89.43" style="fill:none;stroke:#C10534;stroke-width:6.48"/>
	<rect x="2713.71" y="1055.50" width="34.16" height="91.45" style="fill:#C10534"/>
	<rect x="2716.95" y="1058.74" width="27.68" height="84.97" style="fill:none;stroke:#C10534;stroke-width:6.48"/>
	<rect x="2747.87" y="1084.21" width="34.15" height="62.74" style="fill:#C10534"/>
	<rect x="2751.11" y="1087.45" width="27.68" height="56.26" style="fill:none;stroke:#C10534;stroke-width:6.48"/>
	<rect x="2782.02" y="1045.72" width="34.16" height="101.23" style="fill:#C10534"/>
	<rect x="2785.26" y="1048.96" width="27.68" height="94.75" style="fill:none;stroke:#C10534;stroke-width:6.48"/>
	<rect x="2816.18" y="1071.71" width="34.28" height="75.24" style="fill:#C10534"/>
	<rect x="2819.42" y="1074.95" width="27.80" height="68.76" style="fill:none;stroke:#C10534;stroke-width:6.48"/>
	<rect x="2850.46" y="1075.30" width="34.16" height="71.65" style="fill:#C10534"/>
	<rect x="2853.70" y="1078.54" width="27.68" height="65.17" style="fill:none;stroke:#C10534;stroke-width:6.48"/>
	<rect x="2884.61" y="1097.70" width="34.15" height="49.25" style="fill:#C10534"/>
	<rect x="2887.85" y="1100.94" width="27.68" height="42.77" style="fill:none;stroke:#C10534;stroke-width:6.48"/>
	<rect x="2918.77" y="1106.61" width="34.16" height="40.34" style="fill:#C10534"/>
	<rect x="2922.01" y="1109.85" width="27.68" height="33.86" style="fill:none;stroke:#C10534;stroke-width:6.48"/>
	<rect x="2952.92" y="1102.15" width="34.28" height="44.80" style="fill:#C10534"/>
	<rect x="2956.16" y="1105.39" width="27.80" height="38.32" style="fill:none;stroke:#C10534;stroke-width:6.48"/>
	<rect x="2987.20" y="1122.70" width="34.15" height="24.26" style="fill:#C10534"/>
	<rect x="2990.44" y="1125.93" width="27.68" height="17.78" style="fill:none;stroke:#C10534;stroke-width:6.48"/>
	<rect x="3021.36" y="1136.18" width="34.16" height="10.77" style="fill:#C10534"/>
	<rect x="3024.60" y="1139.42" width="27.68" height="4.29" style="fill:none;stroke:#C10534;stroke-width:6.48"/>
	<rect x="3055.51" y="1130.74" width="34.16" height="16.21" style="fill:#C10534"/>
	<rect x="3058.75" y="1133.98" width="27.68" height="9.73" style="fill:none;stroke:#C10534;stroke-width:6.48"/>
	<rect x="3089.67" y="1133.46" width="34.28" height="13.49" style="fill:#C10534"/>
	<rect x="3092.91" y="1136.70" width="27.80" height="7.01" style="fill:none;stroke:#C10534;stroke-width:6.48"/>
	<rect x="3123.95" y="1138.78" width="34.15" height="8.17" style="fill:#C10534"/>
	<rect x="3127.18" y="1142.02" width="27.68" height="1.69" style="fill:none;stroke:#C10534;stroke-width:6.48"/>
	<rect x="3158.10" y="1143.36" width="34.16" height="3.59" style="fill:#C10534"/>
	<rect x="3161.34" y="1146.60" width="27.68" height="-2.89" style="fill:none;stroke:#C10534;stroke-width:6.48"/>
	<rect x="3192.26" y="1144.23" width="34.15" height="2.72" style="fill:#C10534"/>
	<rect x="3195.49" y="1147.47" width="27.68" height="-3.76" style="fill:none;stroke:#C10534;stroke-width:6.48"/>
	<rect x="3226.41" y="1143.36" width="34.28" height="3.59" style="fill:#C10534"/>
	<rect x="3229.65" y="1146.60" width="27.80" height="-2.89" style="fill:none;stroke:#C10534;stroke-width:6.48"/>
	<rect x="3260.69" y="1141.51" width="34.16" height="5.45" style="fill:#C10534"/>
	<rect x="3263.93" y="1144.75" width="27.68" height="-1.03" style="fill:none;stroke:#C10534;stroke-width:6.48"/>
	<rect x="3294.84" y="1145.96" width="34.16" height="0.99" style="fill:#C10534"/>
	<rect x="3298.08" y="1149.20" width="27.68" height="-5.49" style="fill:none;stroke:#C10534;stroke-width:6.48"/>
	<rect x="3329.00" y="1145.96" width="34.15" height="0.99" style="fill:#C10534"/>
	<rect x="3332.24" y="1149.20" width="27.68" height="-5.49" style="fill:none;stroke:#C10534;stroke-width:6.48"/>
	<rect x="3363.15" y="1145.96" width="34.16" height="0.99" style="fill:#C10534"/>
	<rect x="3366.39" y="1149.20" width="27.68" height="-5.49" style="fill:none;stroke:#C10534;stroke-width:6.48"/>
	<rect x="3397.31" y="1145.96" width="34.28" height="0.99" style="fill:#C10534"/>
	<rect x="3400.55" y="1149.20" width="27.80" height="-5.49" style="fill:none;stroke:#C10534;stroke-width:6.48"/>
	<rect x="3431.59" y="1145.96" width="34.15" height="0.99" style="fill:#C10534"/>
	<rect x="3434.83" y="1149.20" width="27.68" height="-5.49" style="fill:none;stroke:#C10534;stroke-width:6.48"/>
	<text x="3486.28" y="412.39" style="font-family:'Helvetica';font-size:74.99px;fill:#000000" text-anchor="middle">e_orf_a Gr 2 Rd 1</text>
	<line x1="2273.04" y1="1146.95" x2="2273.04" y2="138.98" style="stroke:#000000;stroke-width:4.32"/>
	<line x1="2273.04" y1="1146.95" x2="2242.97" y2="1146.95" style="stroke:#000000;stroke-width:4.32"/>
	<text x="2205.44" y="1146.95" style="font-family:'Helvetica';font-size:74.99px;fill:#000000" transform="rotate(-90 2205.44,1146.95)" text-anchor="middle">0</text>
	<line x1="2273.04" y1="929.52" x2="2242.97" y2="929.52" style="stroke:#000000;stroke-width:4.32"/>
	<text x="2205.44" y="929.52" style="font-family:'Helvetica';font-size:74.99px;fill:#000000" transform="rotate(-90 2205.44,929.52)" text-anchor="middle">.02</text>
	<line x1="2273.04" y1="712.20" x2="2242.97" y2="712.20" style="stroke:#000000;stroke-width:4.32"/>
	<text x="2205.44" y="712.20" style="font-family:'Helvetica';font-size:74.99px;fill:#000000" transform="rotate(-90 2205.44,712.20)" text-anchor="middle">.04</text>
	<line x1="2273.04" y1="494.77" x2="2242.97" y2="494.77" style="stroke:#000000;stroke-width:4.32"/>
	<text x="2205.44" y="494.77" style="font-family:'Helvetica';font-size:74.99px;fill:#000000" transform="rotate(-90 2205.44,494.77)" text-anchor="middle">.06</text>
	<line x1="2273.04" y1="277.33" x2="2242.97" y2="277.33" style="stroke:#000000;stroke-width:4.32"/>
	<text x="2205.44" y="277.33" style="font-family:'Helvetica';font-size:74.99px;fill:#000000" transform="rotate(-90 2205.44,277.33)" text-anchor="middle">.08</text>
	<text x="2123.02" y="642.90" style="font-family:'Helvetica';font-size:74.99px;fill:#000000" transform="rotate(-90 2123.02,642.90)" text-anchor="middle">Density</text>
	<line x1="2273.04" y1="1146.95" x2="3820.91" y2="1146.95" style="stroke:#000000;stroke-width:4.32"/>
	<line x1="2337.64" y1="1146.95" x2="2337.64" y2="1176.90" style="stroke:#000000;stroke-width:4.32"/>
	<text x="2337.64" y="1244.31" style="font-family:'Helvetica';font-size:74.99px;fill:#000000" text-anchor="middle">0</text>
	<line x1="2679.43" y1="1146.95" x2="2679.43" y2="1176.90" style="stroke:#000000;stroke-width:4.32"/>
	<text x="2679.43" y="1244.31" style="font-family:'Helvetica';font-size:74.99px;fill:#000000" text-anchor="middle">50</text>
	<line x1="3021.36" y1="1146.95" x2="3021.36" y2="1176.90" style="stroke:#000000;stroke-width:4.32"/>
	<text x="3021.36" y="1244.31" style="font-family:'Helvetica';font-size:74.99px;fill:#000000" text-anchor="middle">100</text>
	<line x1="3363.15" y1="1146.95" x2="3363.15" y2="1176.90" style="stroke:#000000;stroke-width:4.32"/>
	<text x="3363.15" y="1244.31" style="font-family:'Helvetica';font-size:74.99px;fill:#000000" text-anchor="middle">150</text>
	<line x1="3705.07" y1="1146.95" x2="3705.07" y2="1176.90" style="stroke:#000000;stroke-width:4.32"/>
	<text x="3705.07" y="1244.31" style="font-family:'Helvetica';font-size:74.99px;fill:#000000" text-anchor="middle">200</text>
	<text x="3046.97" y="1326.85" style="font-family:'Helvetica';font-size:74.99px;fill:#000000" text-anchor="middle">Oral Reading Fluency - A (English)</text>
	<rect x="63.36" y="1440.00" width="1916.64" height="1376.64" style="fill:#EAF2F3"/>
	<rect x="65.52" y="1442.16" width="1912.32" height="1372.32" style="fill:none;stroke:#EAF2F3;stroke-width:4.32"/>
	<rect x="356.40" y="1515.61" width="1547.99" height="1007.98" style="fill:#FFFFFF"/>
	<rect x="358.56" y="1517.77" width="1543.67" height="1003.66" style="fill:none;stroke:#FFFFFF;stroke-width:4.32"/>
	<line x1="356.40" y1="2523.59" x2="1904.39" y2="2523.59" style="stroke:#EAF2F3;stroke-width:6.48"/>
	<line x1="356.40" y1="2306.15" x2="1904.39" y2="2306.15" style="stroke:#EAF2F3;stroke-width:6.48"/>
	<line x1="356.40" y1="2088.84" x2="1904.39" y2="2088.84" style="stroke:#EAF2F3;stroke-width:6.48"/>
	<line x1="356.40" y1="1871.41" x2="1904.39" y2="1871.41" style="stroke:#EAF2F3;stroke-width:6.48"/>
	<line x1="356.40" y1="1653.97" x2="1904.39" y2="1653.97" style="stroke:#EAF2F3;stroke-width:6.48"/>
	<rect x="421.00" y="1971.52" width="34.28" height="552.07" style="fill:#ADD8E6"/>
	<rect x="424.24" y="1974.76" width="27.80" height="545.59" style="fill:none;stroke:#ADD8E6;stroke-width:6.48"/>
	<rect x="455.28" y="2365.18" width="34.15" height="158.40" style="fill:#ADD8E6"/>
	<rect x="458.52" y="2368.42" width="27.68" height="151.93" style="fill:none;stroke:#ADD8E6;stroke-width:6.48"/>
	<rect x="489.43" y="2402.68" width="34.15" height="120.91" style="fill:#ADD8E6"/>
	<rect x="492.67" y="2405.92" width="27.68" height="114.43" style="fill:none;stroke:#ADD8E6;stroke-width:6.48"/>
	<rect x="523.59" y="2382.88" width="34.16" height="140.71" style="fill:#ADD8E6"/>
	<rect x="526.83" y="2386.12" width="27.68" height="134.23" style="fill:none;stroke:#ADD8E6;stroke-width:6.48"/>
	<rect x="557.74" y="2377.68" width="34.28" height="145.91" style="fill:#ADD8E6"/>
	<rect x="560.98" y="2380.92" width="27.80" height="139.43" style="fill:none;stroke:#ADD8E6;stroke-width:6.48"/>
	<rect x="592.02" y="2390.18" width="34.15" height="133.41" style="fill:#ADD8E6"/>
	<rect x="595.26" y="2393.42" width="27.68" height="126.93" style="fill:none;stroke:#ADD8E6;stroke-width:6.48"/>
	<rect x="626.17" y="2428.79" width="34.16" height="94.80" style="fill:#ADD8E6"/>
	<rect x="629.41" y="2432.03" width="27.68" height="88.32" style="fill:none;stroke:#ADD8E6;stroke-width:6.48"/>
	<rect x="660.33" y="2424.59" width="34.15" height="99.00" style="fill:#ADD8E6"/>
	<rect x="663.57" y="2427.83" width="27.68" height="92.52" style="fill:none;stroke:#ADD8E6;stroke-width:6.48"/>
	<rect x="694.49" y="2427.68" width="34.28" height="95.91" style="fill:#ADD8E6"/>
	<rect x="697.72" y="2430.92" width="27.80" height="89.43" style="fill:none;stroke:#ADD8E6;stroke-width:6.48"/>
	<rect x="728.76" y="2429.78" width="34.16" height="93.81" style="fill:#ADD8E6"/>
	<rect x="732.00" y="2433.02" width="27.68" height="87.33" style="fill:none;stroke:#ADD8E6;stroke-width:6.48"/>
	<rect x="762.92" y="2442.28" width="34.15" height="81.31" style="fill:#ADD8E6"/>
	<rect x="766.16" y="2445.52" width="27.68" height="74.83" style="fill:none;stroke:#ADD8E6;stroke-width:6.48"/>
	<rect x="797.07" y="2454.78" width="34.15" height="68.81" style="fill:#ADD8E6"/>
	<rect x="800.31" y="2458.02" width="27.68" height="62.33" style="fill:none;stroke:#ADD8E6;stroke-width:6.48"/>
	<rect x="831.23" y="2458.99" width="34.28" height="64.60" style="fill:#ADD8E6"/>
	<rect x="834.47" y="2462.23" width="27.80" height="58.12" style="fill:none;stroke:#ADD8E6;stroke-width:6.48"/>
	<rect x="865.51" y="2444.39" width="34.15" height="79.20" style="fill:#ADD8E6"/>
	<rect x="868.75" y="2447.63" width="27.68" height="72.72" style="fill:none;stroke:#ADD8E6;stroke-width:6.48"/>
	<rect x="899.66" y="2482.87" width="34.15" height="40.72" style="fill:#ADD8E6"/>
	<rect x="902.90" y="2486.11" width="27.68" height="34.24" style="fill:none;stroke:#ADD8E6;stroke-width:6.48"/>
	<rect x="933.82" y="2479.78" width="34.15" height="43.81" style="fill:#ADD8E6"/>
	<rect x="937.06" y="2483.02" width="27.68" height="37.33" style="fill:none;stroke:#ADD8E6;stroke-width:6.48"/>
	<rect x="967.97" y="2482.87" width="34.28" height="40.72" style="fill:#ADD8E6"/>
	<rect x="971.21" y="2486.11" width="27.80" height="34.24" style="fill:none;stroke:#ADD8E6;stroke-width:6.48"/>
	<rect x="1002.25" y="2497.48" width="34.15" height="26.11" style="fill:#ADD8E6"/>
	<rect x="1005.49" y="2500.72" width="27.68" height="19.63" style="fill:none;stroke:#ADD8E6;stroke-width:6.48"/>
	<rect x="1036.41" y="2497.48" width="34.15" height="26.11" style="fill:#ADD8E6"/>
	<rect x="1039.65" y="2500.72" width="27.68" height="19.63" style="fill:none;stroke:#ADD8E6;stroke-width:6.48"/>
	<rect x="1070.56" y="2502.67" width="34.15" height="20.91" style="fill:#ADD8E6"/>
	<rect x="1073.80" y="2505.91" width="27.68" height="14.43" style="fill:none;stroke:#ADD8E6;stroke-width:6.48"/>
	<rect x="1104.72" y="2506.88" width="34.28" height="16.71" style="fill:#ADD8E6"/>
	<rect x="1107.96" y="2510.12" width="27.80" height="10.23" style="fill:none;stroke:#ADD8E6;stroke-width:6.48"/>
	<rect x="1138.99" y="2516.29" width="34.16" height="7.30" style="fill:#ADD8E6"/>
	<rect x="1142.23" y="2519.53" width="27.68" height="0.82" style="fill:none;stroke:#ADD8E6;stroke-width:6.48"/>
	<rect x="1173.15" y="2514.18" width="34.15" height="9.41" style="fill:#ADD8E6"/>
	<rect x="1176.39" y="2517.42" width="27.68" height="2.93" style="fill:none;stroke:#ADD8E6;stroke-width:6.48"/>
	<rect x="1207.31" y="2519.38" width="34.15" height="4.21" style="fill:#ADD8E6"/>
	<rect x="1210.54" y="2522.62" width="27.68" height="-2.27" style="fill:none;stroke:#ADD8E6;stroke-width:6.48"/>
	<rect x="1241.46" y="2518.39" width="34.28" height="5.20" style="fill:#ADD8E6"/>
	<rect x="1244.70" y="2521.63" width="27.80" height="-1.28" style="fill:none;stroke:#ADD8E6;stroke-width:6.48"/>
	<rect x="1275.74" y="2522.48" width="34.15" height="1.11" style="fill:#ADD8E6"/>
	<rect x="1278.98" y="2525.71" width="27.68" height="-5.37" style="fill:none;stroke:#ADD8E6;stroke-width:6.48"/>
	<rect x="1309.89" y="2522.48" width="34.15" height="1.11" style="fill:#ADD8E6"/>
	<rect x="1313.13" y="2525.71" width="27.68" height="-5.37" style="fill:none;stroke:#ADD8E6;stroke-width:6.48"/>
	<rect x="1344.05" y="2522.48" width="34.15" height="1.11" style="fill:#ADD8E6"/>
	<rect x="1347.29" y="2525.71" width="27.68" height="-5.37" style="fill:none;stroke:#ADD8E6;stroke-width:6.48"/>
	<rect x="1480.79" y="2522.48" width="34.15" height="1.11" style="fill:#ADD8E6"/>
	<rect x="1484.03" y="2525.71" width="27.68" height="-5.37" style="fill:none;stroke:#ADD8E6;stroke-width:6.48"/>
	<rect x="1720.13" y="2522.48" width="34.15" height="1.11" style="fill:#ADD8E6"/>
	<rect x="1723.36" y="2525.71" width="27.68" height="-5.37" style="fill:none;stroke:#ADD8E6;stroke-width:6.48"/>
	<text x="1569.64" y="1789.03" style="font-family:'Helvetica';font-size:74.99px;fill:#000000" text-anchor="middle">e_orf_a Gr 1 Rd 2</text>
	<line x1="356.40" y1="2523.59" x2="356.40" y2="1515.61" style="stroke:#000000;stroke-width:4.32"/>
	<line x1="356.40" y1="2523.59" x2="326.45" y2="2523.59" style="stroke:#000000;stroke-width:4.32"/>
	<text x="288.92" y="2523.59" style="font-family:'Helvetica';font-size:74.99px;fill:#000000" transform="rotate(-90 288.92,2523.59)" text-anchor="middle">0</text>
	<line x1="356.40" y1="2306.15" x2="326.45" y2="2306.15" style="stroke:#000000;stroke-width:4.32"/>
	<text x="288.92" y="2306.15" style="font-family:'Helvetica';font-size:74.99px;fill:#000000" transform="rotate(-90 288.92,2306.15)" text-anchor="middle">.02</text>
	<line x1="356.40" y1="2088.84" x2="326.45" y2="2088.84" style="stroke:#000000;stroke-width:4.32"/>
	<text x="288.92" y="2088.84" style="font-family:'Helvetica';font-size:74.99px;fill:#000000" transform="rotate(-90 288.92,2088.84)" text-anchor="middle">.04</text>
	<line x1="356.40" y1="1871.41" x2="326.45" y2="1871.41" style="stroke:#000000;stroke-width:4.32"/>
	<text x="288.92" y="1871.41" style="font-family:'Helvetica';font-size:74.99px;fill:#000000" transform="rotate(-90 288.92,1871.41)" text-anchor="middle">.06</text>
	<line x1="356.40" y1="1653.97" x2="326.45" y2="1653.97" style="stroke:#000000;stroke-width:4.32"/>
	<text x="288.92" y="1653.97" style="font-family:'Helvetica';font-size:74.99px;fill:#000000" transform="rotate(-90 288.92,1653.97)" text-anchor="middle">.08</text>
	<text x="206.38" y="2019.54" style="font-family:'Helvetica';font-size:74.99px;fill:#000000" transform="rotate(-90 206.38,2019.54)" text-anchor="middle">Density</text>
	<line x1="356.40" y1="2523.59" x2="1904.39" y2="2523.59" style="stroke:#000000;stroke-width:4.32"/>
	<line x1="421.00" y1="2523.59" x2="421.00" y2="2553.54" style="stroke:#000000;stroke-width:4.32"/>
	<text x="421.00" y="2620.95" style="font-family:'Helvetica';font-size:74.99px;fill:#000000" text-anchor="middle">0</text>
	<line x1="762.92" y1="2523.59" x2="762.92" y2="2553.54" style="stroke:#000000;stroke-width:4.32"/>
	<text x="762.92" y="2620.95" style="font-family:'Helvetica';font-size:74.99px;fill:#000000" text-anchor="middle">50</text>
	<line x1="1104.72" y1="2523.59" x2="1104.72" y2="2553.54" style="stroke:#000000;stroke-width:4.32"/>
	<text x="1104.72" y="2620.95" style="font-family:'Helvetica';font-size:74.99px;fill:#000000" text-anchor="middle">100</text>
	<line x1="1446.64" y1="2523.59" x2="1446.64" y2="2553.54" style="stroke:#000000;stroke-width:4.32"/>
	<text x="1446.64" y="2620.95" style="font-family:'Helvetica';font-size:74.99px;fill:#000000" text-anchor="middle">150</text>
	<line x1="1788.43" y1="2523.59" x2="1788.43" y2="2553.54" style="stroke:#000000;stroke-width:4.32"/>
	<text x="1788.43" y="2620.95" style="font-family:'Helvetica';font-size:74.99px;fill:#000000" text-anchor="middle">200</text>
	<text x="1130.33" y="2703.49" style="font-family:'Helvetica';font-size:74.99px;fill:#000000" text-anchor="middle">Oral Reading Fluency - A (English)</text>
	<rect x="1980.00" y="1440.00" width="1916.52" height="1376.64" style="fill:#EAF2F3"/>
	<rect x="1982.16" y="1442.16" width="1912.20" height="1372.32" style="fill:none;stroke:#EAF2F3;stroke-width:4.32"/>
	<rect x="2273.04" y="1515.61" width="1547.87" height="1007.98" style="fill:#FFFFFF"/>
	<rect x="2275.20" y="1517.77" width="1543.55" height="1003.66" style="fill:none;stroke:#FFFFFF;stroke-width:4.32"/>
	<line x1="2273.04" y1="2523.59" x2="3820.91" y2="2523.59" style="stroke:#EAF2F3;stroke-width:6.48"/>
	<line x1="2273.04" y1="2306.15" x2="3820.91" y2="2306.15" style="stroke:#EAF2F3;stroke-width:6.48"/>
	<line x1="2273.04" y1="2088.84" x2="3820.91" y2="2088.84" style="stroke:#EAF2F3;stroke-width:6.48"/>
	<line x1="2273.04" y1="1871.41" x2="3820.91" y2="1871.41" style="stroke:#EAF2F3;stroke-width:6.48"/>
	<line x1="2273.04" y1="1653.97" x2="3820.91" y2="1653.97" style="stroke:#EAF2F3;stroke-width:6.48"/>
	<rect x="2337.64" y="2289.20" width="34.16" height="234.39" style="fill:#C10534"/>
	<rect x="2340.88" y="2292.44" width="27.68" height="227.91" style="fill:none;stroke:#C10534;stroke-width:6.48"/>
	<rect x="2371.79" y="2456.89" width="34.16" height="66.70" style="fill:#C10534"/>
	<rect x="2375.03" y="2460.13" width="27.68" height="60.22" style="fill:none;stroke:#C10534;stroke-width:6.48"/>
	<rect x="2405.95" y="2470.37" width="34.28" height="53.21" style="fill:#C10534"/>
	<rect x="2409.19" y="2473.61" width="27.80" height="46.73" style="fill:none;stroke:#C10534;stroke-width:6.48"/>
	<rect x="2440.23" y="2434.98" width="34.15" height="88.61" style="fill:#C10534"/>
	<rect x="2443.47" y="2438.22" width="27.68" height="82.13" style="fill:none;stroke:#C10534;stroke-width:6.48"/>
	<rect x="2474.38" y="2442.28" width="34.16" height="81.31" style="fill:#C10534"/>
	<rect x="2477.62" y="2445.52" width="27.68" height="74.83" style="fill:none;stroke:#C10534;stroke-width:6.48"/>
	<rect x="2508.54" y="2448.59" width="34.15" height="74.99" style="fill:#C10534"/>
	<rect x="2511.78" y="2451.83" width="27.68" height="68.52" style="fill:none;stroke:#C10534;stroke-width:6.48"/>
	<rect x="2542.69" y="2452.68" width="34.28" height="70.91" style="fill:#C10534"/>
	<rect x="2545.93" y="2455.92" width="27.80" height="64.43" style="fill:none;stroke:#C10534;stroke-width:6.48"/>
	<rect x="2576.97" y="2418.40" width="34.16" height="105.19" style="fill:#C10534"/>
	<rect x="2580.21" y="2421.64" width="27.68" height="98.71" style="fill:none;stroke:#C10534;stroke-width:6.48"/>
	<rect x="2611.13" y="2400.58" width="34.16" height="123.01" style="fill:#C10534"/>
	<rect x="2614.36" y="2403.82" width="27.68" height="116.53" style="fill:none;stroke:#C10534;stroke-width:6.48"/>
	<rect x="2645.28" y="2408.99" width="34.15" height="114.60" style="fill:#C10534"/>
	<rect x="2648.52" y="2412.23" width="27.68" height="108.12" style="fill:none;stroke:#C10534;stroke-width:6.48"/>
	<rect x="2679.43" y="2412.09" width="34.28" height="111.50" style="fill:#C10534"/>
	<rect x="2682.67" y="2415.33" width="27.80" height="105.02" style="fill:none;stroke:#C10534;stroke-width:6.48"/>
	<rect x="2713.71" y="2406.89" width="34.16" height="116.70" style="fill:#C10534"/>
	<rect x="2716.95" y="2410.13" width="27.68" height="110.22" style="fill:none;stroke:#C10534;stroke-width:6.48"/>
	<rect x="2747.87" y="2421.49" width="34.15" height="102.10" style="fill:#C10534"/>
	<rect x="2751.11" y="2424.73" width="27.68" height="95.62" style="fill:none;stroke:#C10534;stroke-width:6.48"/>
	<rect x="2782.02" y="2378.80" width="34.16" height="144.79" style="fill:#C10534"/>
	<rect x="2785.26" y="2382.04" width="27.68" height="138.31" style="fill:none;stroke:#C10534;stroke-width:6.48"/>
	<rect x="2816.18" y="2427.68" width="34.28" height="95.91" style="fill:#C10534"/>
	<rect x="2819.42" y="2430.92" width="27.80" height="89.43" style="fill:none;stroke:#C10534;stroke-width:6.48"/>
	<rect x="2850.46" y="2413.08" width="34.16" height="110.51" style="fill:#C10534"/>
	<rect x="2853.70" y="2416.32" width="27.68" height="104.03" style="fill:none;stroke:#C10534;stroke-width:6.48"/>
	<rect x="2884.61" y="2437.08" width="34.15" height="86.50" style="fill:#C10534"/>
	<rect x="2887.85" y="2440.32" width="27.68" height="80.02" style="fill:none;stroke:#C10534;stroke-width:6.48"/>
	<rect x="2918.77" y="2454.78" width="34.16" height="68.81" style="fill:#C10534"/>
	<rect x="2922.01" y="2458.02" width="27.68" height="62.33" style="fill:none;stroke:#C10534;stroke-width:6.48"/>
	<rect x="2952.92" y="2448.59" width="34.28" height="74.99" style="fill:#C10534"/>
	<rect x="2956.16" y="2451.83" width="27.80" height="68.52" style="fill:none;stroke:#C10534;stroke-width:6.48"/>
	<rect x="2987.20" y="2472.48" width="34.15" height="51.11" style="fill:#C10534"/>
	<rect x="2990.44" y="2475.72" width="27.68" height="44.63" style="fill:none;stroke:#C10534;stroke-width:6.48"/>
	<rect x="3021.36" y="2474.58" width="34.16" height="49.01" style="fill:#C10534"/>
	<rect x="3024.60" y="2477.82" width="27.68" height="42.53" style="fill:none;stroke:#C10534;stroke-width:6.48"/>
	<rect x="3055.51" y="2479.78" width="34.16" height="43.81" style="fill:#C10534"/>
	<rect x="3058.75" y="2483.02" width="27.68" height="37.33" style="fill:none;stroke:#C10534;stroke-width:6.48"/>
	<rect x="3089.67" y="2492.28" width="34.28" height="31.31" style="fill:#C10534"/>
	<rect x="3092.91" y="2495.52" width="27.80" height="24.83" style="fill:none;stroke:#C10534;stroke-width:6.48"/>
	<rect x="3123.95" y="2509.98" width="34.15" height="13.61" style="fill:#C10534"/>
	<rect x="3127.18" y="2513.22" width="27.68" height="7.13" style="fill:none;stroke:#C10534;stroke-width:6.48"/>
	<rect x="3158.10" y="2499.58" width="34.16" height="24.01" style="fill:#C10534"/>
	<rect x="3161.34" y="2502.82" width="27.68" height="17.53" style="fill:none;stroke:#C10534;stroke-width:6.48"/>
	<rect x="3192.26" y="2516.29" width="34.15" height="7.30" style="fill:#C10534"/>
	<rect x="3195.49" y="2519.53" width="27.68" height="0.82" style="fill:none;stroke:#C10534;stroke-width:6.48"/>
	<rect x="3226.41" y="2519.38" width="34.28" height="4.21" style="fill:#C10534"/>
	<rect x="3229.65" y="2522.62" width="27.80" height="-2.27" style="fill:none;stroke:#C10534;stroke-width:6.48"/>
	<rect x="3260.69" y="2515.17" width="34.16" height="8.42" style="fill:#C10534"/>
	<rect x="3263.93" y="2518.41" width="27.68" height="1.94" style="fill:none;stroke:#C10534;stroke-width:6.48"/>
	<rect x="3294.84" y="2517.28" width="34.16" height="6.31" style="fill:#C10534"/>
	<rect x="3298.08" y="2520.52" width="27.68" height="-0.17" style="fill:none;stroke:#C10534;stroke-width:6.48"/>
	<rect x="3329.00" y="2522.48" width="34.15" height="1.11" style="fill:#C10534"/>
	<rect x="3332.24" y="2525.71" width="27.68" height="-5.37" style="fill:none;stroke:#C10534;stroke-width:6.48"/>
	<rect x="3363.15" y="2520.37" width="34.16" height="3.22" style="fill:#C10534"/>
	<rect x="3366.39" y="2523.61" width="27.68" height="-3.26" style="fill:none;stroke:#C10534;stroke-width:6.48"/>
	<rect x="3431.59" y="2519.38" width="34.15" height="4.21" style="fill:#C10534"/>
	<rect x="3434.83" y="2522.62" width="27.68" height="-2.27" style="fill:none;stroke:#C10534;stroke-width:6.48"/>
	<rect x="3465.74" y="2522.48" width="34.16" height="1.11" style="fill:#C10534"/>
	<rect x="3468.98" y="2525.71" width="27.68" height="-5.37" style="fill:none;stroke:#C10534;stroke-width:6.48"/>
	<rect x="3499.90" y="2522.48" width="34.15" height="1.11" style="fill:#C10534"/>
	<rect x="3503.14" y="2525.71" width="27.68" height="-5.37" style="fill:none;stroke:#C10534;stroke-width:6.48"/>
	<rect x="3739.23" y="2522.48" width="34.16" height="1.11" style="fill:#C10534"/>
	<rect x="3742.47" y="2525.71" width="27.68" height="-5.37" style="fill:none;stroke:#C10534;stroke-width:6.48"/>
	<text x="3486.28" y="1789.03" style="font-family:'Helvetica';font-size:74.99px;fill:#000000" text-anchor="middle">e_orf_a Gr 2 Rd 2</text>
	<line x1="2273.04" y1="2523.59" x2="2273.04" y2="1515.61" style="stroke:#000000;stroke-width:4.32"/>
	<line x1="2273.04" y1="2523.59" x2="2242.97" y2="2523.59" style="stroke:#000000;stroke-width:4.32"/>
	<text x="2205.44" y="2523.59" style="font-family:'Helvetica';font-size:74.99px;fill:#000000" transform="rotate(-90 2205.44,2523.59)" text-anchor="middle">0</text>
	<line x1="2273.04" y1="2306.15" x2="2242.97" y2="2306.15" style="stroke:#000000;stroke-width:4.32"/>
	<text x="2205.44" y="2306.15" style="font-family:'Helvetica';font-size:74.99px;fill:#000000" transform="rotate(-90 2205.44,2306.15)" text-anchor="middle">.02</text>
	<line x1="2273.04" y1="2088.84" x2="2242.97" y2="2088.84" style="stroke:#000000;stroke-width:4.32"/>
	<text x="2205.44" y="2088.84" style="font-family:'Helvetica';font-size:74.99px;fill:#000000" transform="rotate(-90 2205.44,2088.84)" text-anchor="middle">.04</text>
	<line x1="2273.04" y1="1871.41" x2="2242.97" y2="1871.41" style="stroke:#000000;stroke-width:4.32"/>
	<text x="2205.44" y="1871.41" style="font-family:'Helvetica';font-size:74.99px;fill:#000000" transform="rotate(-90 2205.44,1871.41)" text-anchor="middle">.06</text>
	<line x1="2273.04" y1="1653.97" x2="2242.97" y2="1653.97" style="stroke:#000000;stroke-width:4.32"/>
	<text x="2205.44" y="1653.97" style="font-family:'Helvetica';font-size:74.99px;fill:#000000" transform="rotate(-90 2205.44,1653.97)" text-anchor="middle">.08</text>
	<text x="2123.02" y="2019.54" style="font-family:'Helvetica';font-size:74.99px;fill:#000000" transform="rotate(-90 2123.02,2019.54)" text-anchor="middle">Density</text>
	<line x1="2273.04" y1="2523.59" x2="3820.91" y2="2523.59" style="stroke:#000000;stroke-width:4.32"/>
	<line x1="2337.64" y1="2523.59" x2="2337.64" y2="2553.54" style="stroke:#000000;stroke-width:4.32"/>
	<text x="2337.64" y="2620.95" style="font-family:'Helvetica';font-size:74.99px;fill:#000000" text-anchor="middle">0</text>
	<line x1="2679.43" y1="2523.59" x2="2679.43" y2="2553.54" style="stroke:#000000;stroke-width:4.32"/>
	<text x="2679.43" y="2620.95" style="font-family:'Helvetica';font-size:74.99px;fill:#000000" text-anchor="middle">50</text>
	<line x1="3021.36" y1="2523.59" x2="3021.36" y2="2553.54" style="stroke:#000000;stroke-width:4.32"/>
	<text x="3021.36" y="2620.95" style="font-family:'Helvetica';font-size:74.99px;fill:#000000" text-anchor="middle">100</text>
	<line x1="3363.15" y1="2523.59" x2="3363.15" y2="2553.54" style="stroke:#000000;stroke-width:4.32"/>
	<text x="3363.15" y="2620.95" style="font-family:'Helvetica';font-size:74.99px;fill:#000000" text-anchor="middle">150</text>
	<line x1="3705.07" y1="2523.59" x2="3705.07" y2="2553.54" style="stroke:#000000;stroke-width:4.32"/>
	<text x="3705.07" y="2620.95" style="font-family:'Helvetica';font-size:74.99px;fill:#000000" text-anchor="middle">200</text>
	<text x="3046.97" y="2703.49" style="font-family:'Helvetica';font-size:74.99px;fill:#000000" text-anchor="middle">Oral Reading Fluency - A (English)</text>
</svg>
