<?xml version="1.0" encoding="UTF-8" standalone="no"?>
<!-- This is a Stata 15.1 generated SVG file (http://www.stata.com) -->

<svg version="1.1" width="5.50in" height="4.00in" viewBox="0 0 3960 2880" xmlns="http://www.w3.org/2000/svg" xmlns:xlink="http://www.w3.org/1999/xlink">
	<desc>Stata Graph - pshare_kis_g2_r2</desc>
	<rect x="0" y="0" width="3960" height="2880" style="fill:#EAF2F3;stroke:none"/>
	<rect x="0.00" y="0.00" width="3959.88" height="2880.00" style="fill:#EAF2F3"/>
	<rect x="2.88" y="2.88" width="3954.12" height="2874.24" style="fill:none;stroke:#EAF2F3;stroke-width:5.76"/>
	<rect x="390.80" y="245.40" width="3468.22" height="1988.23" style="fill:#FFFFFF"/>
	<rect x="393.68" y="248.28" width="3462.46" height="1982.47" style="fill:none;stroke:#FFFFFF;stroke-width:5.76"/>
	<line x1="390.80" y1="2154.55" x2="3859.02" y2="2154.55" style="stroke:#EAF2F3;stroke-width:8.64"/>
	<line x1="390.80" y1="1712.75" x2="3859.02" y2="1712.75" style="stroke:#EAF2F3;stroke-width:8.64"/>
	<line x1="390.80" y1="1270.95" x2="3859.02" y2="1270.95" style="stroke:#EAF2F3;stroke-width:8.64"/>
	<line x1="390.80" y1="829.15" x2="3859.02" y2="829.15" style="stroke:#EAF2F3;stroke-width:8.64"/>
	<line x1="390.80" y1="387.35" x2="3859.02" y2="387.35" style="stroke:#EAF2F3;stroke-width:8.64"/>
	<rect x="454.16" y="2151.71" width="668.25" height="2.85" style="fill:#486C8C"/>
	<rect x="458.48" y="2156.03" width="659.61" height="-5.79" style="fill:none;stroke:#1A476F;stroke-width:8.64"/>
	<rect x="1122.41" y="1674.14" width="668.37" height="480.41" style="fill:#486C8C"/>
	<rect x="1126.73" y="1678.46" width="659.73" height="471.77" style="fill:none;stroke:#1A476F;stroke-width:8.64"/>
	<rect x="1790.79" y="1227.64" width="668.25" height="926.92" style="fill:#486C8C"/>
	<rect x="1795.11" y="1231.96" width="659.61" height="918.28" style="fill:none;stroke:#1A476F;stroke-width:8.64"/>
	<rect x="2459.04" y="878.90" width="668.37" height="1275.65" style="fill:#486C8C"/>
	<rect x="2463.36" y="883.22" width="659.73" height="1267.02" style="fill:none;stroke:#1A476F;stroke-width:8.64"/>
	<rect x="3127.41" y="422.50" width="668.25" height="1732.06" style="fill:#486C8C"/>
	<rect x="3131.73" y="426.82" width="659.61" height="1723.42" style="fill:none;stroke:#1A476F;stroke-width:8.64"/>
	<line x1="788.29" y1="2170.27" x2="788.29" y2="2133.02" style="stroke:#90353B;stroke-width:8.64"/>
	<line x1="766.26" y1="2133.02" x2="810.32" y2="2133.02" stroke-linecap="round" style="stroke:#90353B;stroke-width:8.64"/>
	<line x1="766.26" y1="2170.27" x2="810.32" y2="2170.27" stroke-linecap="round" style="stroke:#90353B;stroke-width:8.64"/>
	<line x1="1456.66" y1="1813.24" x2="1456.66" y2="1534.92" style="stroke:#90353B;stroke-width:8.64"/>
	<line x1="1434.63" y1="1534.92" x2="1478.69" y2="1534.92" stroke-linecap="round" style="stroke:#90353B;stroke-width:8.64"/>
	<line x1="1434.63" y1="1813.24" x2="1478.69" y2="1813.24" stroke-linecap="round" style="stroke:#90353B;stroke-width:8.64"/>
	<line x1="2124.91" y1="1245.46" x2="2124.91" y2="1209.94" style="stroke:#90353B;stroke-width:8.64"/>
	<line x1="2102.88" y1="1209.94" x2="2146.94" y2="1209.94" stroke-linecap="round" style="stroke:#90353B;stroke-width:8.64"/>
	<line x1="2102.88" y1="1245.46" x2="2146.94" y2="1245.46" stroke-linecap="round" style="stroke:#90353B;stroke-width:8.64"/>
	<line x1="2793.28" y1="935.58" x2="2793.28" y2="822.34" style="stroke:#90353B;stroke-width:8.64"/>
	<line x1="2771.26" y1="822.34" x2="2815.31" y2="822.34" stroke-linecap="round" style="stroke:#90353B;stroke-width:8.64"/>
	<line x1="2771.26" y1="935.58" x2="2815.31" y2="935.58" stroke-linecap="round" style="stroke:#90353B;stroke-width:8.64"/>
	<line x1="3461.53" y1="536.35" x2="3461.53" y2="308.77" style="stroke:#90353B;stroke-width:8.64"/>
	<line x1="3439.51" y1="308.77" x2="3483.56" y2="308.77" stroke-linecap="round" style="stroke:#90353B;stroke-width:8.64"/>
	<line x1="3439.51" y1="536.35" x2="3483.56" y2="536.35" stroke-linecap="round" style="stroke:#90353B;stroke-width:8.64"/>
	<line x1="390.80" y1="2233.63" x2="390.80" y2="245.40" style="stroke:#000000;stroke-width:5.76"/>
	<line x1="390.80" y1="2154.55" x2="350.83" y2="2154.55" style="stroke:#000000;stroke-width:5.76"/>
	<text x="300.72" y="2154.55" style="font-family:'Helvetica';font-size:99.99px;fill:#000000" transform="rotate(-90 300.72,2154.55)" text-anchor="middle">0</text>
	<line x1="390.80" y1="1712.75" x2="350.83" y2="1712.75" style="stroke:#000000;stroke-width:5.76"/>
	<text x="300.72" y="1712.75" style="font-family:'Helvetica';font-size:99.99px;fill:#000000" transform="rotate(-90 300.72,1712.75)" text-anchor="middle">.1</text>
	<line x1="390.80" y1="1270.95" x2="350.83" y2="1270.95" style="stroke:#000000;stroke-width:5.76"/>
	<text x="300.72" y="1270.95" style="font-family:'Helvetica';font-size:99.99px;fill:#000000" transform="rotate(-90 300.72,1270.95)" text-anchor="middle">.2</text>
	<line x1="390.80" y1="829.15" x2="350.83" y2="829.15" style="stroke:#000000;stroke-width:5.76"/>
	<text x="300.72" y="829.15" style="font-family:'Helvetica';font-size:99.99px;fill:#000000" transform="rotate(-90 300.72,829.15)" text-anchor="middle">.3</text>
	<line x1="390.80" y1="387.35" x2="350.83" y2="387.35" style="stroke:#000000;stroke-width:5.76"/>
	<text x="300.72" y="387.35" style="font-family:'Helvetica';font-size:99.99px;fill:#000000" transform="rotate(-90 300.72,387.35)" text-anchor="middle">.4</text>
	<text x="190.71" y="1239.52" style="font-family:'Helvetica';font-size:99.99px;fill:#000000" transform="rotate(-90 190.71,1239.52)" text-anchor="middle">outcome share (proportion)</text>
	<line x1="390.80" y1="2233.63" x2="3859.02" y2="2233.63" style="stroke:#000000;stroke-width:5.76"/>
	<line x1="454.16" y1="2233.63" x2="454.16" y2="2273.73" style="stroke:#000000;stroke-width:5.76"/>
	<text x="454.16" y="2363.59" style="font-family:'Helvetica';font-size:99.99px;fill:#000000" text-anchor="middle">0</text>
	<line x1="1122.41" y1="2233.63" x2="1122.41" y2="2273.73" style="stroke:#000000;stroke-width:5.76"/>
	<text x="1122.41" y="2363.59" style="font-family:'Helvetica';font-size:99.99px;fill:#000000" text-anchor="middle">20</text>
	<line x1="1790.79" y1="2233.63" x2="1790.79" y2="2273.73" style="stroke:#000000;stroke-width:5.76"/>
	<text x="1790.79" y="2363.59" style="font-family:'Helvetica';font-size:99.99px;fill:#000000" text-anchor="middle">40</text>
	<line x1="2459.04" y1="2233.63" x2="2459.04" y2="2273.73" style="stroke:#000000;stroke-width:5.76"/>
	<text x="2459.04" y="2363.59" style="font-family:'Helvetica';font-size:99.99px;fill:#000000" text-anchor="middle">60</text>
	<line x1="3127.41" y1="2233.63" x2="3127.41" y2="2273.73" style="stroke:#000000;stroke-width:5.76"/>
	<text x="3127.41" y="2363.59" style="font-family:'Helvetica';font-size:99.99px;fill:#000000" text-anchor="middle">80</text>
	<line x1="3795.66" y1="2233.63" x2="3795.66" y2="2273.73" style="stroke:#000000;stroke-width:5.76"/>
	<text x="3795.66" y="2363.59" style="font-family:'Helvetica';font-size:99.99px;fill:#000000" text-anchor="middle">100</text>
	<text x="2124.91" y="2473.60" style="font-family:'Helvetica';font-size:99.99px;fill:#000000" text-anchor="middle">population percentage</text>
	<rect x="1061.16" y="2558.24" width="2127.63" height="186.37" style="fill:#FFFFFF"/>
	<rect x="1064.04" y="2561.12" width="2121.87" height="180.61" style="fill:none;stroke:#000000;stroke-width:5.76"/>
	<rect x="1104.35" y="2601.43" width="374.34" height="99.99" style="fill:#486C8C"/>
	<rect x="1108.66" y="2605.75" width="365.70" height="91.35" style="fill:none;stroke:#1A476F;stroke-width:8.64"/>
	<line x1="2369.94" y1="2651.43" x2="2744.28" y2="2651.43" style="stroke:#90353B;stroke-width:8.64"/>
	<line x1="2369.94" y1="2673.45" x2="2369.94" y2="2629.40" style="stroke:#90353B;stroke-width:8.64"/>
	<line x1="2744.28" y1="2673.45" x2="2744.28" y2="2629.40" style="stroke:#90353B;stroke-width:8.64"/>
	<text x="1538.71" y="2686.46" style="font-family:'Helvetica';font-size:99.99px;fill:#000000">outcome share</text>
	<text x="2804.30" y="2686.46" style="font-family:'Helvetica';font-size:99.99px;fill:#000000">95% CI</text>
	<text x="2124.91" y="195.01" style="font-family:'Helvetica';font-size:110.01px;fill:#000000" text-anchor="middle">Gini = .401</text>
</svg>
