<?xml version="1.0" encoding="UTF-8" standalone="no"?>
<!-- This is a Stata 15.1 generated SVG file (http://www.stata.com) -->

<svg version="1.1" width="5.50in" height="4.00in" viewBox="0 0 3960 2880" xmlns="http://www.w3.org/2000/svg" xmlns:xlink="http://www.w3.org/1999/xlink">
	<desc>Stata Graph - e_orf_a_gr1_phase2</desc>
	<rect x="0" y="0" width="3960" height="2880" style="fill:#EAF2F3;stroke:none"/>
	<rect x="0.00" y="0.00" width="3959.88" height="2880.00" style="fill:#EAF2F3"/>
	<rect x="2.88" y="2.88" width="3954.12" height="2874.24" style="fill:none;stroke:#EAF2F3;stroke-width:5.76"/>
	<rect x="390.80" y="100.86" width="3468.22" height="2388.33" style="fill:#FFFFFF"/>
	<rect x="393.68" y="103.74" width="3462.46" height="2382.57" style="fill:none;stroke:#FFFFFF;stroke-width:5.76"/>
	<line x1="390.80" y1="2489.19" x2="3859.02" y2="2489.19" style="stroke:#EAF2F3;stroke-width:8.64"/>
	<line x1="390.80" y1="2031.42" x2="3859.02" y2="2031.42" style="stroke:#EAF2F3;stroke-width:8.64"/>
	<line x1="390.80" y1="1573.65" x2="3859.02" y2="1573.65" style="stroke:#EAF2F3;stroke-width:8.64"/>
	<line x1="390.80" y1="1115.89" x2="3859.02" y2="1115.89" style="stroke:#EAF2F3;stroke-width:8.64"/>
	<line x1="390.80" y1="658.12" x2="3859.02" y2="658.12" style="stroke:#EAF2F3;stroke-width:8.64"/>
	<line x1="390.80" y1="200.36" x2="3859.02" y2="200.36" style="stroke:#EAF2F3;stroke-width:8.64"/>
	<rect x="495.37" y="164.22" width="82.54" height="2324.96" style="fill:#ADD8E6"/>
	<rect x="499.69" y="168.54" width="73.90" height="2316.32" style="fill:none;stroke:#ADD8E6;stroke-width:8.64"/>
	<rect x="577.91" y="1822.40" width="82.54" height="666.79" style="fill:#ADD8E6"/>
	<rect x="582.23" y="1826.72" width="73.90" height="658.15" style="fill:none;stroke:#ADD8E6;stroke-width:8.64"/>
	<rect x="660.45" y="1980.31" width="82.42" height="508.88" style="fill:#ADD8E6"/>
	<rect x="664.77" y="1984.63" width="73.78" height="500.24" style="fill:none;stroke:#ADD8E6;stroke-width:8.64"/>
	<rect x="742.87" y="1897.02" width="82.54" height="592.16" style="fill:#ADD8E6"/>
	<rect x="747.19" y="1901.34" width="73.90" height="583.52" style="fill:none;stroke:#ADD8E6;stroke-width:8.64"/>
	<rect x="825.41" y="1874.99" width="82.54" height="614.19" style="fill:#ADD8E6"/>
	<rect x="829.73" y="1879.31" width="73.90" height="605.55" style="fill:none;stroke:#ADD8E6;stroke-width:8.64"/>
	<rect x="907.95" y="1927.71" width="82.54" height="561.47" style="fill:#ADD8E6"/>
	<rect x="912.27" y="1932.03" width="73.90" height="552.83" style="fill:none;stroke:#ADD8E6;stroke-width:8.64"/>
	<rect x="990.50" y="2089.96" width="82.42" height="399.23" style="fill:#ADD8E6"/>
	<rect x="994.81" y="2094.28" width="73.78" height="390.59" style="fill:none;stroke:#ADD8E6;stroke-width:8.64"/>
	<rect x="1072.91" y="2072.51" width="82.54" height="416.68" style="fill:#ADD8E6"/>
	<rect x="1077.23" y="2076.83" width="73.90" height="408.04" style="fill:none;stroke:#ADD8E6;stroke-width:8.64"/>
	<rect x="1155.45" y="2085.62" width="82.54" height="403.56" style="fill:#ADD8E6"/>
	<rect x="1159.77" y="2089.94" width="73.90" height="394.92" style="fill:none;stroke:#ADD8E6;stroke-width:8.64"/>
	<rect x="1237.99" y="2094.41" width="82.54" height="394.77" style="fill:#ADD8E6"/>
	<rect x="1242.31" y="2098.73" width="73.90" height="386.14" style="fill:none;stroke:#ADD8E6;stroke-width:8.64"/>
	<rect x="1320.54" y="2147.01" width="82.42" height="342.18" style="fill:#ADD8E6"/>
	<rect x="1324.86" y="2151.33" width="73.78" height="333.54" style="fill:none;stroke:#ADD8E6;stroke-width:8.64"/>
	<rect x="1402.95" y="2199.72" width="82.54" height="289.46" style="fill:#ADD8E6"/>
	<rect x="1407.27" y="2204.04" width="73.90" height="280.82" style="fill:none;stroke:#ADD8E6;stroke-width:8.64"/>
	<rect x="1485.49" y="2217.17" width="82.54" height="272.01" style="fill:#ADD8E6"/>
	<rect x="1489.81" y="2221.49" width="73.90" height="263.37" style="fill:none;stroke:#ADD8E6;stroke-width:8.64"/>
	<rect x="1568.04" y="2155.79" width="82.42" height="333.39" style="fill:#ADD8E6"/>
	<rect x="1572.36" y="2160.11" width="73.78" height="324.75" style="fill:none;stroke:#ADD8E6;stroke-width:8.64"/>
	<rect x="1650.45" y="2318.16" width="82.54" height="171.03" style="fill:#ADD8E6"/>
	<rect x="1654.77" y="2322.48" width="73.90" height="162.39" style="fill:none;stroke:#ADD8E6;stroke-width:8.64"/>
	<rect x="1732.99" y="2304.92" width="82.54" height="184.27" style="fill:#ADD8E6"/>
	<rect x="1737.31" y="2309.24" width="73.90" height="175.63" style="fill:none;stroke:#ADD8E6;stroke-width:8.64"/>
	<rect x="1815.54" y="2318.16" width="82.54" height="171.03" style="fill:#ADD8E6"/>
	<rect x="1819.86" y="2322.48" width="73.90" height="162.39" style="fill:none;stroke:#ADD8E6;stroke-width:8.64"/>
	<rect x="1898.08" y="2379.54" width="82.42" height="109.65" style="fill:#ADD8E6"/>
	<rect x="1902.40" y="2383.86" width="73.78" height="101.01" style="fill:none;stroke:#ADD8E6;stroke-width:8.64"/>
	<rect x="1980.49" y="2379.54" width="82.54" height="109.65" style="fill:#ADD8E6"/>
	<rect x="1984.81" y="2383.86" width="73.90" height="101.01" style="fill:none;stroke:#ADD8E6;stroke-width:8.64"/>
	<rect x="2063.04" y="2401.44" width="82.54" height="87.74" style="fill:#ADD8E6"/>
	<rect x="2067.36" y="2405.76" width="73.90" height="79.10" style="fill:none;stroke:#ADD8E6;stroke-width:8.64"/>
	<rect x="2145.58" y="2419.02" width="82.54" height="70.17" style="fill:#ADD8E6"/>
	<rect x="2149.90" y="2423.34" width="73.90" height="61.53" style="fill:none;stroke:#ADD8E6;stroke-width:8.64"/>
	<rect x="2228.12" y="2458.49" width="82.42" height="30.69" style="fill:#ADD8E6"/>
	<rect x="2232.44" y="2462.81" width="73.78" height="22.05" style="fill:none;stroke:#ADD8E6;stroke-width:8.64"/>
	<rect x="2310.54" y="2449.71" width="82.54" height="39.48" style="fill:#ADD8E6"/>
	<rect x="2314.86" y="2454.03" width="73.90" height="30.84" style="fill:none;stroke:#ADD8E6;stroke-width:8.64"/>
	<rect x="2393.08" y="2471.61" width="82.54" height="17.57" style="fill:#ADD8E6"/>
	<rect x="2397.40" y="2475.93" width="73.90" height="8.93" style="fill:none;stroke:#ADD8E6;stroke-width:8.64"/>
	<rect x="2475.62" y="2467.28" width="82.54" height="21.90" style="fill:#ADD8E6"/>
	<rect x="2479.94" y="2471.60" width="73.90" height="13.26" style="fill:none;stroke:#ADD8E6;stroke-width:8.64"/>
	<rect x="2558.16" y="2484.85" width="82.42" height="4.33" style="fill:#ADD8E6"/>
	<rect x="2562.48" y="2489.17" width="73.78" height="-4.31" style="fill:none;stroke:#ADD8E6;stroke-width:8.64"/>
	<rect x="2640.58" y="2484.85" width="82.54" height="4.33" style="fill:#ADD8E6"/>
	<rect x="2644.90" y="2489.17" width="73.90" height="-4.31" style="fill:none;stroke:#ADD8E6;stroke-width:8.64"/>
	<rect x="2723.12" y="2484.85" width="82.54" height="4.33" style="fill:#ADD8E6"/>
	<rect x="2727.44" y="2489.17" width="73.90" height="-4.31" style="fill:none;stroke:#ADD8E6;stroke-width:8.64"/>
	<rect x="3053.16" y="2484.85" width="82.54" height="4.33" style="fill:#ADD8E6"/>
	<rect x="3057.48" y="2489.17" width="73.90" height="-4.31" style="fill:none;stroke:#ADD8E6;stroke-width:8.64"/>
	<rect x="3630.70" y="2484.85" width="82.54" height="4.33" style="fill:#ADD8E6"/>
	<rect x="3635.02" y="2489.17" width="73.90" height="-4.31" style="fill:none;stroke:#ADD8E6;stroke-width:8.64"/>
	<text x="3267.62" y="-680.15" style="font-family:'Helvetica';font-size:99.99px;fill:#000000" text-anchor="middle">e_orf_a Gr 1 Rd 2</text>
	<line x1="390.80" y1="2489.19" x2="390.80" y2="100.86" style="stroke:#000000;stroke-width:5.76"/>
	<line x1="390.80" y1="2489.19" x2="350.83" y2="2489.19" style="stroke:#000000;stroke-width:5.76"/>
	<text x="300.72" y="2489.19" style="font-family:'Helvetica';font-size:99.99px;fill:#000000" transform="rotate(-90 300.72,2489.19)" text-anchor="middle">0</text>
	<line x1="390.80" y1="2031.42" x2="350.83" y2="2031.42" style="stroke:#000000;stroke-width:5.76"/>
	<text x="300.72" y="2031.42" style="font-family:'Helvetica';font-size:99.99px;fill:#000000" transform="rotate(-90 300.72,2031.42)" text-anchor="middle">.01</text>
	<line x1="390.80" y1="1573.65" x2="350.83" y2="1573.65" style="stroke:#000000;stroke-width:5.76"/>
	<text x="300.72" y="1573.65" style="font-family:'Helvetica';font-size:99.99px;fill:#000000" transform="rotate(-90 300.72,1573.65)" text-anchor="middle">.02</text>
	<line x1="390.80" y1="1115.89" x2="350.83" y2="1115.89" style="stroke:#000000;stroke-width:5.76"/>
	<text x="300.72" y="1115.89" style="font-family:'Helvetica';font-size:99.99px;fill:#000000" transform="rotate(-90 300.72,1115.89)" text-anchor="middle">.03</text>
	<line x1="390.80" y1="658.12" x2="350.83" y2="658.12" style="stroke:#000000;stroke-width:5.76"/>
	<text x="300.72" y="658.12" style="font-family:'Helvetica';font-size:99.99px;fill:#000000" transform="rotate(-90 300.72,658.12)" text-anchor="middle">.04</text>
	<line x1="390.80" y1="200.36" x2="350.83" y2="200.36" style="stroke:#000000;stroke-width:5.76"/>
	<text x="300.72" y="200.36" style="font-family:'Helvetica';font-size:99.99px;fill:#000000" transform="rotate(-90 300.72,200.36)" text-anchor="middle">.05</text>
	<text x="190.71" y="1294.96" style="font-family:'Helvetica';font-size:99.99px;fill:#000000" transform="rotate(-90 190.71,1294.96)" text-anchor="middle">Density</text>
	<line x1="390.80" y1="2489.19" x2="3859.02" y2="2489.19" style="stroke:#000000;stroke-width:5.76"/>
	<line x1="495.37" y1="2489.19" x2="495.37" y2="2529.16" style="stroke:#000000;stroke-width:5.76"/>
	<text x="495.37" y="2619.14" style="font-family:'Helvetica';font-size:99.99px;fill:#000000" text-anchor="middle">0</text>
	<line x1="1320.54" y1="2489.19" x2="1320.54" y2="2529.16" style="stroke:#000000;stroke-width:5.76"/>
	<text x="1320.54" y="2619.14" style="font-family:'Helvetica';font-size:99.99px;fill:#000000" text-anchor="middle">50</text>
	<line x1="2145.58" y1="2489.19" x2="2145.58" y2="2529.16" style="stroke:#000000;stroke-width:5.76"/>
	<text x="2145.58" y="2619.14" style="font-family:'Helvetica';font-size:99.99px;fill:#000000" text-anchor="middle">100</text>
	<line x1="2970.62" y1="2489.19" x2="2970.62" y2="2529.16" style="stroke:#000000;stroke-width:5.76"/>
	<text x="2970.62" y="2619.14" style="font-family:'Helvetica';font-size:99.99px;fill:#000000" text-anchor="middle">150</text>
	<line x1="3795.66" y1="2489.19" x2="3795.66" y2="2529.16" style="stroke:#000000;stroke-width:5.76"/>
	<text x="3795.66" y="2619.14" style="font-family:'Helvetica';font-size:99.99px;fill:#000000" text-anchor="middle">200</text>
	<text x="2124.91" y="2729.16" style="font-family:'Helvetica';font-size:99.99px;fill:#000000" text-anchor="middle">Oral Reading Fluency - A (English)</text>
</svg>
