<?xml version="1.0" encoding="UTF-8" standalone="no"?>
<!-- This is a Stata 15.1 generated SVG file (http://www.stata.com) -->

<svg version="1.1" width="5.50in" height="4.00in" viewBox="0 0 3960 2880" xmlns="http://www.w3.org/2000/svg" xmlns:xlink="http://www.w3.org/1999/xlink">
	<desc>Stata Graph - pshare_kis_g1_r2</desc>
	<rect x="0" y="0" width="3960" height="2880" style="fill:#EAF2F3;stroke:none"/>
	<rect x="0.00" y="0.00" width="3959.88" height="2880.00" style="fill:#EAF2F3"/>
	<rect x="2.88" y="2.88" width="3954.12" height="2874.24" style="fill:none;stroke:#EAF2F3;stroke-width:5.76"/>
	<rect x="390.80" y="245.40" width="3468.22" height="1988.23" style="fill:#FFFFFF"/>
	<rect x="393.68" y="248.28" width="3462.46" height="1982.47" style="fill:none;stroke:#FFFFFF;stroke-width:5.76"/>
	<line x1="390.80" y1="2170.27" x2="3859.02" y2="2170.27" style="stroke:#EAF2F3;stroke-width:8.64"/>
	<line x1="390.80" y1="1585.53" x2="3859.02" y2="1585.53" style="stroke:#EAF2F3;stroke-width:8.64"/>
	<line x1="390.80" y1="1000.67" x2="3859.02" y2="1000.67" style="stroke:#EAF2F3;stroke-width:8.64"/>
	<line x1="390.80" y1="415.94" x2="3859.02" y2="415.94" style="stroke:#EAF2F3;stroke-width:8.64"/>
	<rect x="1790.79" y="1910.26" width="668.25" height="260.01" style="fill:#486C8C"/>
	<rect x="1795.11" y="1914.58" width="659.61" height="251.37" style="fill:none;stroke:#1A476F;stroke-width:8.64"/>
	<rect x="2459.04" y="1247.56" width="668.37" height="922.71" style="fill:#486C8C"/>
	<rect x="2463.36" y="1251.88" width="659.73" height="914.07" style="fill:none;stroke:#1A476F;stroke-width:8.64"/>
	<rect x="3127.41" y="429.05" width="668.25" height="1741.22" style="fill:#486C8C"/>
	<rect x="3131.73" y="433.37" width="659.61" height="1732.58" style="fill:none;stroke:#1A476F;stroke-width:8.64"/>
	<line x1="788.29" y1="2170.27" x2="788.29" y2="2170.27" style="stroke:#90353B;stroke-width:8.64"/>
	<line x1="766.26" y1="2170.27" x2="810.32" y2="2170.27" stroke-linecap="round" style="stroke:#90353B;stroke-width:8.64"/>
	<line x1="766.26" y1="2170.27" x2="810.32" y2="2170.27" stroke-linecap="round" style="stroke:#90353B;stroke-width:8.64"/>
	<line x1="1456.66" y1="2170.27" x2="1456.66" y2="2170.27" style="stroke:#90353B;stroke-width:8.64"/>
	<line x1="1434.63" y1="2170.27" x2="1478.69" y2="2170.27" stroke-linecap="round" style="stroke:#90353B;stroke-width:8.64"/>
	<line x1="1434.63" y1="2170.27" x2="1478.69" y2="2170.27" stroke-linecap="round" style="stroke:#90353B;stroke-width:8.64"/>
	<line x1="2124.91" y1="2035.87" x2="2124.91" y2="1784.78" style="stroke:#90353B;stroke-width:8.64"/>
	<line x1="2102.88" y1="1784.78" x2="2146.94" y2="1784.78" stroke-linecap="round" style="stroke:#90353B;stroke-width:8.64"/>
	<line x1="2102.88" y1="2035.87" x2="2146.94" y2="2035.87" stroke-linecap="round" style="stroke:#90353B;stroke-width:8.64"/>
	<line x1="2793.28" y1="1285.31" x2="2793.28" y2="1209.82" style="stroke:#90353B;stroke-width:8.64"/>
	<line x1="2771.26" y1="1209.82" x2="2815.31" y2="1209.82" stroke-linecap="round" style="stroke:#90353B;stroke-width:8.64"/>
	<line x1="2771.26" y1="1285.31" x2="2815.31" y2="1285.31" stroke-linecap="round" style="stroke:#90353B;stroke-width:8.64"/>
	<line x1="3461.53" y1="549.34" x2="3461.53" y2="308.77" style="stroke:#90353B;stroke-width:8.64"/>
	<line x1="3439.51" y1="308.77" x2="3483.56" y2="308.77" stroke-linecap="round" style="stroke:#90353B;stroke-width:8.64"/>
	<line x1="3439.51" y1="549.34" x2="3483.56" y2="549.34" stroke-linecap="round" style="stroke:#90353B;stroke-width:8.64"/>
	<line x1="390.80" y1="2233.63" x2="390.80" y2="245.40" style="stroke:#000000;stroke-width:5.76"/>
	<line x1="390.80" y1="2170.27" x2="350.83" y2="2170.27" style="stroke:#000000;stroke-width:5.76"/>
	<text x="300.72" y="2170.27" style="font-family:'Helvetica';font-size:99.99px;fill:#000000" transform="rotate(-90 300.72,2170.27)" text-anchor="middle">0</text>
	<line x1="390.80" y1="1585.53" x2="350.83" y2="1585.53" style="stroke:#000000;stroke-width:5.76"/>
	<text x="300.72" y="1585.53" style="font-family:'Helvetica';font-size:99.99px;fill:#000000" transform="rotate(-90 300.72,1585.53)" text-anchor="middle">.2</text>
	<line x1="390.80" y1="1000.67" x2="350.83" y2="1000.67" style="stroke:#000000;stroke-width:5.76"/>
	<text x="300.72" y="1000.67" style="font-family:'Helvetica';font-size:99.99px;fill:#000000" transform="rotate(-90 300.72,1000.67)" text-anchor="middle">.4</text>
	<line x1="390.80" y1="415.94" x2="350.83" y2="415.94" style="stroke:#000000;stroke-width:5.76"/>
	<text x="300.72" y="415.94" style="font-family:'Helvetica';font-size:99.99px;fill:#000000" transform="rotate(-90 300.72,415.94)" text-anchor="middle">.6</text>
	<text x="190.71" y="1239.52" style="font-family:'Helvetica';font-size:99.99px;fill:#000000" transform="rotate(-90 190.71,1239.52)" text-anchor="middle">outcome share (proportion)</text>
	<line x1="390.80" y1="2233.63" x2="3859.02" y2="2233.63" style="stroke:#000000;stroke-width:5.76"/>
	<line x1="454.16" y1="2233.63" x2="454.16" y2="2273.73" style="stroke:#000000;stroke-width:5.76"/>
	<text x="454.16" y="2363.59" style="font-family:'Helvetica';font-size:99.99px;fill:#000000" text-anchor="middle">0</text>
	<line x1="1122.41" y1="2233.63" x2="1122.41" y2="2273.73" style="stroke:#000000;stroke-width:5.76"/>
	<text x="1122.41" y="2363.59" style="font-family:'Helvetica';font-size:99.99px;fill:#000000" text-anchor="middle">20</text>
	<line x1="1790.79" y1="2233.63" x2="1790.79" y2="2273.73" style="stroke:#000000;stroke-width:5.76"/>
	<text x="1790.79" y="2363.59" style="font-family:'Helvetica';font-size:99.99px;fill:#000000" text-anchor="middle">40</text>
	<line x1="2459.04" y1="2233.63" x2="2459.04" y2="2273.73" style="stroke:#000000;stroke-width:5.76"/>
	<text x="2459.04" y="2363.59" style="font-family:'Helvetica';font-size:99.99px;fill:#000000" text-anchor="middle">60</text>
	<line x1="3127.41" y1="2233.63" x2="3127.41" y2="2273.73" style="stroke:#000000;stroke-width:5.76"/>
	<text x="3127.41" y="2363.59" style="font-family:'Helvetica';font-size:99.99px;fill:#000000" text-anchor="middle">80</text>
	<line x1="3795.66" y1="2233.63" x2="3795.66" y2="2273.73" style="stroke:#000000;stroke-width:5.76"/>
	<text x="3795.66" y="2363.59" style="font-family:'Helvetica';font-size:99.99px;fill:#000000" text-anchor="middle">100</text>
	<text x="2124.91" y="2473.60" style="font-family:'Helvetica';font-size:99.99px;fill:#000000" text-anchor="middle">population percentage</text>
	<rect x="1061.16" y="2558.24" width="2127.63" height="186.37" style="fill:#FFFFFF"/>
	<rect x="1064.04" y="2561.12" width="2121.87" height="180.61" style="fill:none;stroke:#000000;stroke-width:5.76"/>
	<rect x="1104.35" y="2601.43" width="374.34" height="99.99" style="fill:#486C8C"/>
	<rect x="1108.66" y="2605.75" width="365.70" height="91.35" style="fill:none;stroke:#1A476F;stroke-width:8.64"/>
	<line x1="2369.94" y1="2651.43" x2="2744.28" y2="2651.43" style="stroke:#90353B;stroke-width:8.64"/>
	<line x1="2369.94" y1="2673.45" x2="2369.94" y2="2629.40" style="stroke:#90353B;stroke-width:8.64"/>
	<line x1="2744.28" y1="2673.45" x2="2744.28" y2="2629.40" style="stroke:#90353B;stroke-width:8.64"/>
	<text x="1538.71" y="2686.46" style="font-family:'Helvetica';font-size:99.99px;fill:#000000">outcome share</text>
	<text x="2804.30" y="2686.46" style="font-family:'Helvetica';font-size:99.99px;fill:#000000">95% CI</text>
	<text x="2124.91" y="195.01" style="font-family:'Helvetica';font-size:110.01px;fill:#000000" text-anchor="middle">Gini = .634</text>
</svg>
