<?xml version="1.0" encoding="UTF-8" standalone="no"?>
<!-- This is a Stata 15.1 generated SVG file (http://www.stata.com) -->

<svg version="1.1" width="5.00in" height="5.00in" viewBox="0 0 3600 3600" xmlns="http://www.w3.org/2000/svg" xmlns:xlink="http://www.w3.org/1999/xlink">
	<desc>Stata Graph - mean_plot</desc>
	<rect x="0" y="0" width="3600" height="3600" style="fill:#EAF2F3;stroke:none"/>
	<rect x="0.00" y="0.00" width="3600.00" height="3600.00" style="fill:#EAF2F3"/>
	<rect x="3.60" y="3.60" width="3592.80" height="3592.80" style="fill:none;stroke:#EAF2F3;stroke-width:7.20"/>
	<rect x="1048.05" y="519.19" width="2146.50" height="1786.39" style="fill:#FFFFFF"/>
	<rect x="1051.65" y="522.79" width="2139.30" height="1779.19" style="fill:none;stroke:#FFFFFF;stroke-width:7.20"/>
	<path d=" M1464.86 2068.88 L1417.95 2115.79 L1464.86 2068.88 L1417.95 2115.79 L1896.75 1636.88 L1703.36 1830.38 L1896.75 1636.88 L1703.36 1830.38 L1481.85 2051.78 L1420.20 2113.43 L1481.85 2051.78 L1420.20 2113.43 L1964.47 1569.26 L1764.56 1769.06 L1964.47 1569.26 L1764.56 1769.06 L1410.19 2123.55 L1382.85 2150.89 L1410.19 2123.55 L1382.85 2150.89 L1743.86 1789.88 L1659.38 1874.36 L1743.86 1789.88 L1659.38 1874.36 L2017.80 1515.94 L1810.24 1723.50 L2437.99 1095.75 L2060.10 1473.53 L1990.58 1543.05 L1762.42 1771.31 L2555.10 978.64 L2062.80 1470.82 L1763.55 1770.19 L1664.33 1869.30 L2162.14 1371.60 L1924.99 1608.75 L1553.40 1980.22 L1421.44 2112.19 L1859.85 1673.89 L1621.01 1912.61" stroke-linecap="round" stroke-linejoin="round" style="fill:none;stroke:#C0C0C0;stroke-width:5.40"/>
	<line x1="1382.85" y1="1657.69" x2="1394.66" y2="1638.79" style="stroke:#000000;stroke-width:10.80"/>
	<line x1="1394.66" y1="1638.79" x2="1398.15" y2="1633.28" style="stroke:#000000;stroke-width:10.80"/>
	<line x1="1411.65" y1="1612.01" x2="1418.40" y2="1601.44" style="stroke:#000000;stroke-width:10.80"/>
	<line x1="1418.40" y1="1601.44" x2="1427.17" y2="1587.71" style="stroke:#000000;stroke-width:10.80"/>
	<line x1="1440.90" y1="1566.67" x2="1442.03" y2="1564.99" style="stroke:#000000;stroke-width:10.80"/>
	<line x1="1442.03" y1="1564.99" x2="1453.95" y2="1547.10" style="stroke:#000000;stroke-width:10.80"/>
	<line x1="1453.95" y1="1547.10" x2="1456.88" y2="1542.71" style="stroke:#000000;stroke-width:10.80"/>
	<line x1="1470.94" y1="1521.79" x2="1477.58" y2="1511.89" style="stroke:#000000;stroke-width:10.80"/>
	<line x1="1477.58" y1="1511.89" x2="1487.14" y2="1497.94" style="stroke:#000000;stroke-width:10.80"/>
	<line x1="1501.42" y1="1477.24" x2="1513.13" y2="1460.81" style="stroke:#000000;stroke-width:10.80"/>
	<line x1="1513.13" y1="1460.81" x2="1518.08" y2="1453.84" style="stroke:#000000;stroke-width:10.80"/>
	<line x1="1532.81" y1="1433.36" x2="1536.75" y2="1427.74" style="stroke:#000000;stroke-width:10.80"/>
	<line x1="1536.75" y1="1427.74" x2="1548.67" y2="1411.54" style="stroke:#000000;stroke-width:10.80"/>
	<line x1="1548.67" y1="1411.54" x2="1549.80" y2="1410.07" style="stroke:#000000;stroke-width:10.80"/>
	<line x1="1564.76" y1="1389.82" x2="1572.30" y2="1379.81" style="stroke:#000000;stroke-width:10.80"/>
	<line x1="1572.30" y1="1379.81" x2="1582.20" y2="1366.88" style="stroke:#000000;stroke-width:10.80"/>
	<line x1="1597.61" y1="1346.85" x2="1607.85" y2="1333.80" style="stroke:#000000;stroke-width:10.80"/>
	<line x1="1607.85" y1="1333.80" x2="1615.39" y2="1324.24" style="stroke:#000000;stroke-width:10.80"/>
	<line x1="1631.14" y1="1304.55" x2="1631.47" y2="1304.21" style="stroke:#000000;stroke-width:10.80"/>
	<line x1="1631.47" y1="1304.21" x2="1643.40" y2="1289.70" style="stroke:#000000;stroke-width:10.80"/>
	<line x1="1643.40" y1="1289.70" x2="1649.47" y2="1282.39" style="stroke:#000000;stroke-width:10.80"/>
	<line x1="1665.67" y1="1263.04" x2="1667.03" y2="1261.35" style="stroke:#000000;stroke-width:10.80"/>
	<line x1="1667.03" y1="1261.35" x2="1678.84" y2="1247.51" style="stroke:#000000;stroke-width:10.80"/>
	<line x1="1678.84" y1="1247.51" x2="1684.46" y2="1241.21" style="stroke:#000000;stroke-width:10.80"/>
	<line x1="1701.11" y1="1222.20" x2="1702.58" y2="1220.51" style="stroke:#000000;stroke-width:10.80"/>
	<line x1="1702.58" y1="1220.51" x2="1714.39" y2="1207.35" style="stroke:#000000;stroke-width:10.80"/>
	<line x1="1714.39" y1="1207.35" x2="1720.35" y2="1200.82" style="stroke:#000000;stroke-width:10.80"/>
	<line x1="1737.45" y1="1182.26" x2="1738.13" y2="1181.59" style="stroke:#000000;stroke-width:10.80"/>
	<line x1="1738.13" y1="1181.59" x2="1749.94" y2="1168.99" style="stroke:#000000;stroke-width:10.80"/>
	<line x1="1749.94" y1="1168.99" x2="1757.25" y2="1161.34" style="stroke:#000000;stroke-width:10.80"/>
	<line x1="1774.80" y1="1143.34" x2="1785.49" y2="1132.65" style="stroke:#000000;stroke-width:10.80"/>
	<line x1="1785.49" y1="1132.65" x2="1795.16" y2="1122.97" style="stroke:#000000;stroke-width:10.80"/>
	<line x1="1813.28" y1="1105.43" x2="1820.92" y2="1098.22" style="stroke:#000000;stroke-width:10.80"/>
	<line x1="1820.92" y1="1098.22" x2="1832.85" y2="1087.09" style="stroke:#000000;stroke-width:10.80"/>
	<line x1="1832.85" y1="1087.09" x2="1834.31" y2="1085.74" style="stroke:#000000;stroke-width:10.80"/>
	<line x1="1852.99" y1="1068.86" x2="1856.47" y2="1065.60" style="stroke:#000000;stroke-width:10.80"/>
	<line x1="1856.47" y1="1065.60" x2="1868.29" y2="1055.25" style="stroke:#000000;stroke-width:10.80"/>
	<line x1="1868.29" y1="1055.25" x2="1874.59" y2="1049.85" style="stroke:#000000;stroke-width:10.80"/>
	<line x1="1893.83" y1="1033.43" x2="1903.84" y2="1025.32" style="stroke:#000000;stroke-width:10.80"/>
	<line x1="1903.84" y1="1025.32" x2="1915.65" y2="1015.76" style="stroke:#000000;stroke-width:10.80"/>
	<line x1="1915.65" y1="1015.76" x2="1916.21" y2="1015.20" style="stroke:#000000;stroke-width:10.80"/>
	<line x1="1936.13" y1="999.79" x2="1939.39" y2="997.20" style="stroke:#000000;stroke-width:10.80"/>
	<line x1="1939.39" y1="997.20" x2="1951.20" y2="988.31" style="stroke:#000000;stroke-width:10.80"/>
	<line x1="1951.20" y1="988.31" x2="1959.19" y2="982.46" style="stroke:#000000;stroke-width:10.80"/>
	<line x1="1979.66" y1="967.84" x2="1986.75" y2="962.89" style="stroke:#000000;stroke-width:10.80"/>
	<line x1="1986.75" y1="962.89" x2="1998.56" y2="954.79" style="stroke:#000000;stroke-width:10.80"/>
	<line x1="1998.56" y1="954.79" x2="2003.40" y2="951.53" style="stroke:#000000;stroke-width:10.80"/>
	<line x1="2024.55" y1="937.91" x2="2034.11" y2="931.95" style="stroke:#000000;stroke-width:10.80"/>
	<line x1="2034.11" y1="931.95" x2="2045.92" y2="924.75" style="stroke:#000000;stroke-width:10.80"/>
	<line x1="2045.92" y1="924.75" x2="2049.07" y2="922.84" style="stroke:#000000;stroke-width:10.80"/>
	<line x1="2070.90" y1="910.24" x2="2081.47" y2="904.39" style="stroke:#000000;stroke-width:10.80"/>
	<line x1="2081.47" y1="904.39" x2="2093.29" y2="898.09" style="stroke:#000000;stroke-width:10.80"/>
	<line x1="2093.29" y1="898.09" x2="2096.21" y2="896.51" style="stroke:#000000;stroke-width:10.80"/>
	<line x1="2118.71" y1="885.15" x2="2128.84" y2="880.31" style="stroke:#000000;stroke-width:10.80"/>
	<line x1="2128.84" y1="880.31" x2="2140.65" y2="874.80" style="stroke:#000000;stroke-width:10.80"/>
	<line x1="2140.65" y1="874.80" x2="2144.81" y2="873.00" style="stroke:#000000;stroke-width:10.80"/>
	<line x1="2167.99" y1="862.99" x2="2176.20" y2="859.61" style="stroke:#000000;stroke-width:10.80"/>
	<line x1="2176.20" y1="859.61" x2="2188.01" y2="855.00" style="stroke:#000000;stroke-width:10.80"/>
	<line x1="2188.01" y1="855.00" x2="2194.76" y2="852.53" style="stroke:#000000;stroke-width:10.80"/>
	<line x1="2218.61" y1="844.09" x2="2223.56" y2="842.40" style="stroke:#000000;stroke-width:10.80"/>
	<line x1="2223.56" y1="842.40" x2="2235.38" y2="838.57" style="stroke:#000000;stroke-width:10.80"/>
	<line x1="2235.38" y1="838.57" x2="2246.06" y2="835.31" style="stroke:#000000;stroke-width:10.80"/>
	<line x1="2270.36" y1="828.68" x2="2270.93" y2="828.56" style="stroke:#000000;stroke-width:10.80"/>
	<line x1="2270.93" y1="828.56" x2="2282.74" y2="825.64" style="stroke:#000000;stroke-width:10.80"/>
	<line x1="2282.74" y1="825.64" x2="2294.55" y2="822.94" style="stroke:#000000;stroke-width:10.80"/>
	<line x1="2294.55" y1="822.94" x2="2298.38" y2="822.15" style="stroke:#000000;stroke-width:10.80"/>
	<line x1="2323.13" y1="817.20" x2="2330.10" y2="816.07" style="stroke:#000000;stroke-width:10.80"/>
	<line x1="2330.10" y1="816.07" x2="2341.91" y2="814.28" style="stroke:#000000;stroke-width:10.80"/>
	<line x1="2341.91" y1="814.28" x2="2351.59" y2="812.93" style="stroke:#000000;stroke-width:10.80"/>
	<line x1="2376.56" y1="810.00" x2="2377.46" y2="810.00" style="stroke:#000000;stroke-width:10.80"/>
	<line x1="2377.46" y1="810.00" x2="2389.28" y2="808.99" style="stroke:#000000;stroke-width:10.80"/>
	<line x1="2389.28" y1="808.99" x2="2401.09" y2="808.20" style="stroke:#000000;stroke-width:10.80"/>
	<line x1="2401.09" y1="808.20" x2="2405.25" y2="807.97" style="stroke:#000000;stroke-width:10.80"/>
	<line x1="2430.45" y1="807.19" x2="2436.64" y2="807.07" style="stroke:#000000;stroke-width:10.80"/>
	<line x1="2436.64" y1="807.07" x2="2448.45" y2="807.19" style="stroke:#000000;stroke-width:10.80"/>
	<line x1="2448.45" y1="807.19" x2="2459.25" y2="807.41" style="stroke:#000000;stroke-width:10.80"/>
	<line x1="2484.45" y1="808.88" x2="2495.81" y2="809.66" style="stroke:#000000;stroke-width:10.80"/>
	<line x1="2495.81" y1="809.66" x2="2507.74" y2="810.79" style="stroke:#000000;stroke-width:10.80"/>
	<line x1="2507.74" y1="810.79" x2="2513.14" y2="811.35" style="stroke:#000000;stroke-width:10.80"/>
	<line x1="2538.00" y1="814.72" x2="2543.18" y2="815.51" style="stroke:#000000;stroke-width:10.80"/>
	<line x1="2543.18" y1="815.51" x2="2555.10" y2="817.54" style="stroke:#000000;stroke-width:10.80"/>
	<path d="" stroke-linecap="round" stroke-linejoin="round" style="fill:none;stroke:#000000;stroke-width:10.80"/>
	<line x1="1382.85" y1="1914.53" x2="1394.66" y2="1911.94" style="stroke:#000000;stroke-width:10.80"/>
	<line x1="1394.66" y1="1911.94" x2="1406.59" y2="1909.24" style="stroke:#000000;stroke-width:10.80"/>
	<line x1="1406.59" y1="1909.24" x2="1410.97" y2="1908.11" style="stroke:#000000;stroke-width:10.80"/>
	<line x1="1435.39" y1="1901.59" x2="1442.03" y2="1899.79" style="stroke:#000000;stroke-width:10.80"/>
	<line x1="1442.03" y1="1899.79" x2="1453.95" y2="1896.30" style="stroke:#000000;stroke-width:10.80"/>
	<line x1="1453.95" y1="1896.30" x2="1462.95" y2="1893.60" style="stroke:#000000;stroke-width:10.80"/>
	<line x1="1486.91" y1="1885.72" x2="1489.39" y2="1884.83" style="stroke:#000000;stroke-width:10.80"/>
	<line x1="1489.39" y1="1884.83" x2="1501.31" y2="1880.66" style="stroke:#000000;stroke-width:10.80"/>
	<line x1="1501.31" y1="1880.66" x2="1513.13" y2="1876.39" style="stroke:#000000;stroke-width:10.80"/>
	<line x1="1513.13" y1="1876.39" x2="1514.14" y2="1875.94" style="stroke:#000000;stroke-width:10.80"/>
	<line x1="1537.54" y1="1866.83" x2="1548.67" y2="1862.33" style="stroke:#000000;stroke-width:10.80"/>
	<line x1="1548.67" y1="1862.33" x2="1560.49" y2="1857.26" style="stroke:#000000;stroke-width:10.80"/>
	<line x1="1560.49" y1="1857.26" x2="1564.09" y2="1855.69" style="stroke:#000000;stroke-width:10.80"/>
	<line x1="1587.15" y1="1845.34" x2="1596.04" y2="1841.17" style="stroke:#000000;stroke-width:10.80"/>
	<line x1="1596.04" y1="1841.17" x2="1607.85" y2="1835.44" style="stroke:#000000;stroke-width:10.80"/>
	<line x1="1607.85" y1="1835.44" x2="1613.03" y2="1832.85" style="stroke:#000000;stroke-width:10.80"/>
	<line x1="1635.53" y1="1821.38" x2="1643.40" y2="1817.21" style="stroke:#000000;stroke-width:10.80"/>
	<line x1="1643.40" y1="1817.21" x2="1655.21" y2="1810.80" style="stroke:#000000;stroke-width:10.80"/>
	<line x1="1655.21" y1="1810.80" x2="1660.84" y2="1807.65" style="stroke:#000000;stroke-width:10.80"/>
	<line x1="1682.78" y1="1795.28" x2="1690.76" y2="1790.55" style="stroke:#000000;stroke-width:10.80"/>
	<line x1="1690.76" y1="1790.55" x2="1702.58" y2="1783.46" style="stroke:#000000;stroke-width:10.80"/>
	<line x1="1702.58" y1="1783.46" x2="1707.41" y2="1780.42" style="stroke:#000000;stroke-width:10.80"/>
	<line x1="1728.79" y1="1767.04" x2="1738.13" y2="1761.08" style="stroke:#000000;stroke-width:10.80"/>
	<line x1="1738.13" y1="1761.08" x2="1749.94" y2="1753.31" style="stroke:#000000;stroke-width:10.80"/>
	<line x1="1749.94" y1="1753.31" x2="1752.86" y2="1751.29" style="stroke:#000000;stroke-width:10.80"/>
	<line x1="1773.67" y1="1737.11" x2="1785.49" y2="1728.90" style="stroke:#000000;stroke-width:10.80"/>
	<line x1="1785.49" y1="1728.90" x2="1797.19" y2="1720.46" style="stroke:#000000;stroke-width:10.80"/>
	<line x1="1817.44" y1="1705.50" x2="1820.92" y2="1702.91" style="stroke:#000000;stroke-width:10.80"/>
	<line x1="1820.92" y1="1702.91" x2="1832.85" y2="1693.91" style="stroke:#000000;stroke-width:10.80"/>
	<line x1="1832.85" y1="1693.91" x2="1840.28" y2="1688.06" style="stroke:#000000;stroke-width:10.80"/>
	<line x1="1860.08" y1="1672.42" x2="1868.29" y2="1665.79" style="stroke:#000000;stroke-width:10.80"/>
	<line x1="1868.29" y1="1665.79" x2="1880.21" y2="1656.11" style="stroke:#000000;stroke-width:10.80"/>
	<line x1="1880.21" y1="1656.11" x2="1882.46" y2="1654.31" style="stroke:#000000;stroke-width:10.80"/>
	<line x1="1901.59" y1="1638.00" x2="1903.84" y2="1636.20" style="stroke:#000000;stroke-width:10.80"/>
	<line x1="1903.84" y1="1636.20" x2="1915.65" y2="1625.96" style="stroke:#000000;stroke-width:10.80"/>
	<line x1="1915.65" y1="1625.96" x2="1923.41" y2="1619.10" style="stroke:#000000;stroke-width:10.80"/>
	<line x1="1942.31" y1="1602.34" x2="1951.20" y2="1594.35" style="stroke:#000000;stroke-width:10.80"/>
	<line x1="1951.20" y1="1594.35" x2="1963.01" y2="1583.44" style="stroke:#000000;stroke-width:10.80"/>
	<line x1="1963.01" y1="1583.44" x2="1963.58" y2="1582.88" style="stroke:#000000;stroke-width:10.80"/>
	<line x1="1981.91" y1="1565.66" x2="1986.75" y2="1561.05" style="stroke:#000000;stroke-width:10.80"/>
	<line x1="1986.75" y1="1561.05" x2="1998.56" y2="1549.57" style="stroke:#000000;stroke-width:10.80"/>
	<line x1="1998.56" y1="1549.57" x2="2002.61" y2="1545.53" style="stroke:#000000;stroke-width:10.80"/>
	<line x1="2020.50" y1="1527.86" x2="2022.19" y2="1526.29" style="stroke:#000000;stroke-width:10.80"/>
	<line x1="2022.19" y1="1526.29" x2="2034.11" y2="1514.25" style="stroke:#000000;stroke-width:10.80"/>
	<line x1="2034.11" y1="1514.25" x2="2040.86" y2="1507.39" style="stroke:#000000;stroke-width:10.80"/>
	<line x1="2058.30" y1="1489.39" x2="2069.55" y2="1477.46" style="stroke:#000000;stroke-width:10.80"/>
	<line x1="2069.55" y1="1477.46" x2="2077.99" y2="1468.46" style="stroke:#000000;stroke-width:10.80"/>
	<line x1="2095.20" y1="1449.90" x2="2105.10" y2="1438.99" style="stroke:#000000;stroke-width:10.80"/>
	<line x1="2105.10" y1="1438.99" x2="2114.44" y2="1428.53" style="stroke:#000000;stroke-width:10.80"/>
	<line x1="2131.20" y1="1409.74" x2="2140.65" y2="1399.05" style="stroke:#000000;stroke-width:10.80"/>
	<line x1="2140.65" y1="1399.05" x2="2150.10" y2="1388.03" style="stroke:#000000;stroke-width:10.80"/>
	<line x1="2166.53" y1="1368.90" x2="2176.20" y2="1357.43" style="stroke:#000000;stroke-width:10.80"/>
	<line x1="2176.20" y1="1357.43" x2="2185.09" y2="1346.85" style="stroke:#000000;stroke-width:10.80"/>
	<line x1="2201.06" y1="1327.50" x2="2211.64" y2="1314.34" style="stroke:#000000;stroke-width:10.80"/>
	<line x1="2211.64" y1="1314.34" x2="2219.18" y2="1305.00" style="stroke:#000000;stroke-width:10.80"/>
	<line x1="2234.93" y1="1285.31" x2="2235.38" y2="1284.75" style="stroke:#000000;stroke-width:10.80"/>
	<line x1="2235.38" y1="1284.75" x2="2247.19" y2="1269.68" style="stroke:#000000;stroke-width:10.80"/>
	<line x1="2247.19" y1="1269.68" x2="2252.70" y2="1262.70" style="stroke:#000000;stroke-width:10.80"/>
	<line x1="2268.11" y1="1242.68" x2="2270.93" y2="1239.07" style="stroke:#000000;stroke-width:10.80"/>
	<line x1="2270.93" y1="1239.07" x2="2282.74" y2="1223.55" style="stroke:#000000;stroke-width:10.80"/>
	<line x1="2282.74" y1="1223.55" x2="2285.55" y2="1219.84" style="stroke:#000000;stroke-width:10.80"/>
	<line x1="2300.63" y1="1199.59" x2="2306.36" y2="1191.82" style="stroke:#000000;stroke-width:10.80"/>
	<line x1="2306.36" y1="1191.82" x2="2317.84" y2="1176.41" style="stroke:#000000;stroke-width:10.80"/>
	<line x1="2332.57" y1="1155.94" x2="2341.91" y2="1143.00" style="stroke:#000000;stroke-width:10.80"/>
	<line x1="2341.91" y1="1143.00" x2="2349.34" y2="1132.65" style="stroke:#000000;stroke-width:10.80"/>
	<line x1="2363.96" y1="1112.06" x2="2365.65" y2="1109.59" style="stroke:#000000;stroke-width:10.80"/>
	<line x1="2365.65" y1="1109.59" x2="2377.46" y2="1092.71" style="stroke:#000000;stroke-width:10.80"/>
	<line x1="2377.46" y1="1092.71" x2="2380.39" y2="1088.44" style="stroke:#000000;stroke-width:10.80"/>
	<line x1="2394.68" y1="1067.63" x2="2401.09" y2="1058.18" style="stroke:#000000;stroke-width:10.80"/>
	<line x1="2401.09" y1="1058.18" x2="2410.88" y2="1043.89" style="stroke:#000000;stroke-width:10.80"/>
	<line x1="2424.94" y1="1022.85" x2="2436.64" y2="1005.30" style="stroke:#000000;stroke-width:10.80"/>
	<line x1="2436.64" y1="1005.30" x2="2440.80" y2="998.89" style="stroke:#000000;stroke-width:10.80"/>
	<line x1="2454.64" y1="977.85" x2="2460.38" y2="969.07" style="stroke:#000000;stroke-width:10.80"/>
	<line x1="2460.38" y1="969.07" x2="2470.28" y2="953.66" style="stroke:#000000;stroke-width:10.80"/>
	<line x1="2483.89" y1="932.40" x2="2484.00" y2="932.29" style="stroke:#000000;stroke-width:10.80"/>
	<line x1="2484.00" y1="932.29" x2="2495.81" y2="913.50" style="stroke:#000000;stroke-width:10.80"/>
	<line x1="2495.81" y1="913.50" x2="2499.19" y2="908.10" style="stroke:#000000;stroke-width:10.80"/>
	<line x1="2512.69" y1="886.72" x2="2519.55" y2="875.70" style="stroke:#000000;stroke-width:10.80"/>
	<line x1="2519.55" y1="875.70" x2="2527.76" y2="862.20" style="stroke:#000000;stroke-width:10.80"/>
	<line x1="2540.93" y1="840.71" x2="2543.18" y2="837.11" style="stroke:#000000;stroke-width:10.80"/>
	<line x1="2543.18" y1="837.11" x2="2555.10" y2="817.54" style="stroke:#000000;stroke-width:10.80"/>
	<path d="" stroke-linecap="round" stroke-linejoin="round" style="fill:none;stroke:#000000;stroke-width:10.80"/>
	<circle cx="1464.86" cy="1515.94" r="18.68" style="fill:#C10534"/>
	<circle cx="1464.86" cy="1515.94" r="13.28" style="fill:none;stroke:#C10534;stroke-width:10.80"/>
	<circle cx="1417.95" cy="1723.50" r="18.68" style="fill:#C10534"/>
	<circle cx="1417.95" cy="1723.50" r="13.28" style="fill:none;stroke:#C10534;stroke-width:10.80"/>
	<circle cx="1464.86" cy="1530.68" r="18.68" style="fill:#C10534"/>
	<circle cx="1464.86" cy="1530.68" r="13.28" style="fill:none;stroke:#C10534;stroke-width:10.80"/>
	<circle cx="1417.95" cy="1782.00" r="18.68" style="fill:#C10534"/>
	<circle cx="1417.95" cy="1782.00" r="13.28" style="fill:none;stroke:#C10534;stroke-width:10.80"/>
	<circle cx="1896.75" cy="1095.75" r="18.68" style="fill:#C10534"/>
	<circle cx="1896.75" cy="1095.75" r="13.28" style="fill:none;stroke:#C10534;stroke-width:10.80"/>
	<circle cx="1703.36" cy="1473.53" r="18.68" style="fill:#C10534"/>
	<circle cx="1703.36" cy="1473.53" r="13.28" style="fill:none;stroke:#C10534;stroke-width:10.80"/>
	<circle cx="1896.75" cy="924.64" r="18.68" style="fill:#C10534"/>
	<circle cx="1896.75" cy="924.64" r="13.28" style="fill:none;stroke:#C10534;stroke-width:10.80"/>
	<circle cx="1703.36" cy="1481.63" r="18.68" style="fill:#C10534"/>
	<circle cx="1703.36" cy="1481.63" r="13.28" style="fill:none;stroke:#C10534;stroke-width:10.80"/>
	<circle cx="1481.85" cy="1543.05" r="18.68" style="fill:#C10534"/>
	<circle cx="1481.85" cy="1543.05" r="13.28" style="fill:none;stroke:#C10534;stroke-width:10.80"/>
	<circle cx="1420.20" cy="1771.31" r="18.68" style="fill:#C10534"/>
	<circle cx="1420.20" cy="1771.31" r="13.28" style="fill:none;stroke:#C10534;stroke-width:10.80"/>
	<circle cx="1481.85" cy="1442.47" r="18.68" style="fill:#C10534"/>
	<circle cx="1481.85" cy="1442.47" r="13.28" style="fill:none;stroke:#C10534;stroke-width:10.80"/>
	<circle cx="1420.20" cy="1743.53" r="18.68" style="fill:#C10534"/>
	<circle cx="1420.20" cy="1743.53" r="13.28" style="fill:none;stroke:#C10534;stroke-width:10.80"/>
	<circle cx="1964.47" cy="978.64" r="18.68" style="fill:#C10534"/>
	<circle cx="1964.47" cy="978.64" r="13.28" style="fill:none;stroke:#C10534;stroke-width:10.80"/>
	<circle cx="1764.56" cy="1470.82" r="18.68" style="fill:#C10534"/>
	<circle cx="1764.56" cy="1470.82" r="13.28" style="fill:none;stroke:#C10534;stroke-width:10.80"/>
	<circle cx="1964.47" cy="817.54" r="18.68" style="fill:#C10534"/>
	<circle cx="1964.47" cy="817.54" r="13.28" style="fill:none;stroke:#C10534;stroke-width:10.80"/>
	<circle cx="1764.56" cy="1425.49" r="18.68" style="fill:#C10534"/>
	<circle cx="1764.56" cy="1425.49" r="13.28" style="fill:none;stroke:#C10534;stroke-width:10.80"/>
	<circle cx="1410.19" cy="1770.19" r="18.68" style="fill:#C10534"/>
	<circle cx="1410.19" cy="1770.19" r="13.28" style="fill:none;stroke:#C10534;stroke-width:10.80"/>
	<circle cx="1382.85" cy="1869.30" r="18.68" style="fill:#C10534"/>
	<circle cx="1382.85" cy="1869.30" r="13.28" style="fill:none;stroke:#C10534;stroke-width:10.80"/>
	<circle cx="1410.19" cy="1759.72" r="18.68" style="fill:#C10534"/>
	<circle cx="1410.19" cy="1759.72" r="13.28" style="fill:none;stroke:#C10534;stroke-width:10.80"/>
	<circle cx="1382.85" cy="1914.53" r="18.68" style="fill:#C10534"/>
	<circle cx="1382.85" cy="1914.53" r="13.28" style="fill:none;stroke:#C10534;stroke-width:10.80"/>
	<circle cx="1743.86" cy="1371.60" r="18.68" style="fill:#C10534"/>
	<circle cx="1743.86" cy="1371.60" r="13.28" style="fill:none;stroke:#C10534;stroke-width:10.80"/>
	<circle cx="1659.38" cy="1608.75" r="18.68" style="fill:#C10534"/>
	<circle cx="1659.38" cy="1608.75" r="13.28" style="fill:none;stroke:#C10534;stroke-width:10.80"/>
	<circle cx="1743.86" cy="1230.53" r="18.68" style="fill:#C10534"/>
	<circle cx="1743.86" cy="1230.53" r="13.28" style="fill:none;stroke:#C10534;stroke-width:10.80"/>
	<circle cx="1659.38" cy="1601.66" r="18.68" style="fill:#C10534"/>
	<circle cx="1659.38" cy="1601.66" r="13.28" style="fill:none;stroke:#C10534;stroke-width:10.80"/>
	<circle cx="2017.80" cy="1530.68" r="18.68" style="fill:#C10534"/>
	<circle cx="2017.80" cy="1530.68" r="13.28" style="fill:none;stroke:#C10534;stroke-width:10.80"/>
	<circle cx="1810.24" cy="1782.00" r="18.68" style="fill:#C10534"/>
	<circle cx="1810.24" cy="1782.00" r="13.28" style="fill:none;stroke:#C10534;stroke-width:10.80"/>
	<circle cx="2437.99" cy="924.64" r="18.68" style="fill:#C10534"/>
	<circle cx="2437.99" cy="924.64" r="13.28" style="fill:none;stroke:#C10534;stroke-width:10.80"/>
	<circle cx="2060.10" cy="1481.63" r="18.68" style="fill:#C10534"/>
	<circle cx="2060.10" cy="1481.63" r="13.28" style="fill:none;stroke:#C10534;stroke-width:10.80"/>
	<circle cx="1990.58" cy="1442.47" r="18.68" style="fill:#C10534"/>
	<circle cx="1990.58" cy="1442.47" r="13.28" style="fill:none;stroke:#C10534;stroke-width:10.80"/>
	<circle cx="1762.42" cy="1743.53" r="18.68" style="fill:#C10534"/>
	<circle cx="1762.42" cy="1743.53" r="13.28" style="fill:none;stroke:#C10534;stroke-width:10.80"/>
	<circle cx="2555.10" cy="817.54" r="18.68" style="fill:#C10534"/>
	<circle cx="2555.10" cy="817.54" r="13.28" style="fill:none;stroke:#C10534;stroke-width:10.80"/>
	<circle cx="2062.80" cy="1425.49" r="18.68" style="fill:#C10534"/>
	<circle cx="2062.80" cy="1425.49" r="13.28" style="fill:none;stroke:#C10534;stroke-width:10.80"/>
	<circle cx="1763.55" cy="1759.72" r="18.68" style="fill:#C10534"/>
	<circle cx="1763.55" cy="1759.72" r="13.28" style="fill:none;stroke:#C10534;stroke-width:10.80"/>
	<circle cx="1664.33" cy="1914.53" r="18.68" style="fill:#C10534"/>
	<circle cx="1664.33" cy="1914.53" r="13.28" style="fill:none;stroke:#C10534;stroke-width:10.80"/>
	<circle cx="2162.14" cy="1230.53" r="18.68" style="fill:#C10534"/>
	<circle cx="2162.14" cy="1230.53" r="13.28" style="fill:none;stroke:#C10534;stroke-width:10.80"/>
	<circle cx="1924.99" cy="1601.66" r="18.68" style="fill:#C10534"/>
	<circle cx="1924.99" cy="1601.66" r="13.28" style="fill:none;stroke:#C10534;stroke-width:10.80"/>
	<circle cx="1553.40" cy="1708.31" r="18.68" style="fill:#C10534"/>
	<circle cx="1553.40" cy="1708.31" r="13.28" style="fill:none;stroke:#C10534;stroke-width:10.80"/>
	<circle cx="1421.44" cy="1941.97" r="18.68" style="fill:#C10534"/>
	<circle cx="1421.44" cy="1941.97" r="13.28" style="fill:none;stroke:#C10534;stroke-width:10.80"/>
	<circle cx="1859.85" cy="1211.63" r="18.68" style="fill:#C10534"/>
	<circle cx="1859.85" cy="1211.63" r="13.28" style="fill:none;stroke:#C10534;stroke-width:10.80"/>
	<circle cx="1621.01" cy="1656.45" r="18.68" style="fill:#C10534"/>
	<circle cx="1621.01" cy="1656.45" r="13.28" style="fill:none;stroke:#C10534;stroke-width:10.80"/>
	<line x1="948.60" y1="2305.57" x2="948.60" y2="519.19" style="stroke:#000000;stroke-width:7.20"/>
	<line x1="948.60" y1="2226.38" x2="898.54" y2="2226.38" style="stroke:#000000;stroke-width:7.20"/>
	<text x="836.01" y="2226.38" style="font-family:'Helvetica';font-size:124.99px;fill:#000000" transform="rotate(-90 836.01,2226.38)" text-anchor="middle">0</text>
	<line x1="948.60" y1="1993.84" x2="898.54" y2="1993.84" style="stroke:#000000;stroke-width:7.20"/>
	<text x="836.01" y="1993.84" style="font-family:'Helvetica';font-size:124.99px;fill:#000000" transform="rotate(-90 836.01,1993.84)" text-anchor="middle">10</text>
	<line x1="948.60" y1="1761.30" x2="898.54" y2="1761.30" style="stroke:#000000;stroke-width:7.20"/>
	<text x="836.01" y="1761.30" style="font-family:'Helvetica';font-size:124.99px;fill:#000000" transform="rotate(-90 836.01,1761.30)" text-anchor="middle">20</text>
	<line x1="948.60" y1="1528.65" x2="898.54" y2="1528.65" style="stroke:#000000;stroke-width:7.20"/>
	<text x="836.01" y="1528.65" style="font-family:'Helvetica';font-size:124.99px;fill:#000000" transform="rotate(-90 836.01,1528.65)" text-anchor="middle">30</text>
	<line x1="948.60" y1="1296.11" x2="898.54" y2="1296.11" style="stroke:#000000;stroke-width:7.20"/>
	<text x="836.01" y="1296.11" style="font-family:'Helvetica';font-size:124.99px;fill:#000000" transform="rotate(-90 836.01,1296.11)" text-anchor="middle">40</text>
	<line x1="948.60" y1="1063.57" x2="898.54" y2="1063.57" style="stroke:#000000;stroke-width:7.20"/>
	<text x="836.01" y="1063.57" style="font-family:'Helvetica';font-size:124.99px;fill:#000000" transform="rotate(-90 836.01,1063.57)" text-anchor="middle">50</text>
	<line x1="948.60" y1="830.93" x2="898.54" y2="830.93" style="stroke:#000000;stroke-width:7.20"/>
	<text x="836.01" y="830.93" style="font-family:'Helvetica';font-size:124.99px;fill:#000000" transform="rotate(-90 836.01,830.93)" text-anchor="middle">60</text>
	<line x1="948.60" y1="598.39" x2="898.54" y2="598.39" style="stroke:#000000;stroke-width:7.20"/>
	<text x="836.01" y="598.39" style="font-family:'Helvetica';font-size:124.99px;fill:#000000" transform="rotate(-90 836.01,598.39)" text-anchor="middle">70</text>
	<text x="544.41" y="1412.44" style="font-family:'Helvetica';font-size:124.99px;fill:#000000" transform="rotate(-90 544.41,1412.44)" text-anchor="middle">Mean ORF (cwpm) at t_1</text>
	<line x1="1048.05" y1="2305.57" x2="3194.55" y2="2305.57" style="stroke:#000000;stroke-width:7.20"/>
	<line x1="1307.25" y1="2305.57" x2="1307.25" y2="2355.64" style="stroke:#000000;stroke-width:7.20"/>
	<text x="1307.25" y="2468.05" style="font-family:'Helvetica';font-size:124.99px;fill:#000000" text-anchor="middle">0</text>
	<line x1="1539.90" y1="2305.57" x2="1539.90" y2="2355.64" style="stroke:#000000;stroke-width:7.20"/>
	<text x="1539.90" y="2468.05" style="font-family:'Helvetica';font-size:124.99px;fill:#000000" text-anchor="middle">10</text>
	<line x1="1772.44" y1="2305.57" x2="1772.44" y2="2355.64" style="stroke:#000000;stroke-width:7.20"/>
	<text x="1772.44" y="2468.05" style="font-family:'Helvetica';font-size:124.99px;fill:#000000" text-anchor="middle">20</text>
	<line x1="2004.97" y1="2305.57" x2="2004.97" y2="2355.64" style="stroke:#000000;stroke-width:7.20"/>
	<text x="2004.97" y="2468.05" style="font-family:'Helvetica';font-size:124.99px;fill:#000000" text-anchor="middle">30</text>
	<line x1="2237.63" y1="2305.57" x2="2237.63" y2="2355.64" style="stroke:#000000;stroke-width:7.20"/>
	<text x="2237.63" y="2468.05" style="font-family:'Helvetica';font-size:124.99px;fill:#000000" text-anchor="middle">40</text>
	<line x1="2470.16" y1="2305.57" x2="2470.16" y2="2355.64" style="stroke:#000000;stroke-width:7.20"/>
	<text x="2470.16" y="2468.05" style="font-family:'Helvetica';font-size:124.99px;fill:#000000" text-anchor="middle">50</text>
	<line x1="2702.70" y1="2305.57" x2="2702.70" y2="2355.64" style="stroke:#000000;stroke-width:7.20"/>
	<text x="2702.70" y="2468.05" style="font-family:'Helvetica';font-size:124.99px;fill:#000000" text-anchor="middle">60</text>
	<line x1="2935.35" y1="2305.57" x2="2935.35" y2="2355.64" style="stroke:#000000;stroke-width:7.20"/>
	<text x="2935.35" y="2468.05" style="font-family:'Helvetica';font-size:124.99px;fill:#000000" text-anchor="middle">70</text>
	<text x="2121.30" y="2791.04" style="font-family:'Helvetica';font-size:124.99px;fill:#000000" text-anchor="middle">Mean ORF (cwpm) at t_0</text>
	<rect x="349.20" y="3022.76" width="2901.60" height="408.04" style="fill:#FFFFFF"/>
	<rect x="352.80" y="3026.36" width="2894.40" height="400.84" style="fill:none;stroke:#000000;stroke-width:7.20"/>
	<line x1="403.20" y1="3139.31" x2="839.48" y2="3139.31" style="stroke:#C0C0C0;stroke-width:5.40"/>
	<line x1="1888.42" y1="3139.31" x2="1917.22" y2="3139.31" style="stroke:#000000;stroke-width:10.80"/>
	<line x1="1942.42" y1="3139.31" x2="1971.22" y2="3139.31" style="stroke:#000000;stroke-width:10.80"/>
	<line x1="1996.42" y1="3139.31" x2="2025.22" y2="3139.31" style="stroke:#000000;stroke-width:10.80"/>
	<line x1="2050.43" y1="3139.31" x2="2079.22" y2="3139.31" style="stroke:#000000;stroke-width:10.80"/>
	<line x1="2104.43" y1="3139.31" x2="2133.22" y2="3139.31" style="stroke:#000000;stroke-width:10.80"/>
	<line x1="2158.43" y1="3139.31" x2="2187.22" y2="3139.31" style="stroke:#000000;stroke-width:10.80"/>
	<line x1="2212.43" y1="3139.31" x2="2241.22" y2="3139.31" style="stroke:#000000;stroke-width:10.80"/>
	<line x1="2266.43" y1="3139.31" x2="2295.22" y2="3139.31" style="stroke:#000000;stroke-width:10.80"/>
	<line x1="2320.43" y1="3139.31" x2="2324.70" y2="3139.31" style="stroke:#000000;stroke-width:10.80"/>
	<line x1="403.20" y1="3314.25" x2="432.00" y2="3314.25" style="stroke:#000000;stroke-width:10.80"/>
	<line x1="457.20" y1="3314.25" x2="486.00" y2="3314.25" style="stroke:#000000;stroke-width:10.80"/>
	<line x1="511.20" y1="3314.25" x2="540.00" y2="3314.25" style="stroke:#000000;stroke-width:10.80"/>
	<line x1="565.20" y1="3314.25" x2="594.00" y2="3314.25" style="stroke:#000000;stroke-width:10.80"/>
	<line x1="619.20" y1="3314.25" x2="648.00" y2="3314.25" style="stroke:#000000;stroke-width:10.80"/>
	<line x1="673.20" y1="3314.25" x2="702.00" y2="3314.25" style="stroke:#000000;stroke-width:10.80"/>
	<line x1="727.20" y1="3314.25" x2="756.00" y2="3314.25" style="stroke:#000000;stroke-width:10.80"/>
	<line x1="781.20" y1="3314.25" x2="810.00" y2="3314.25" style="stroke:#000000;stroke-width:10.80"/>
	<line x1="835.20" y1="3314.25" x2="839.48" y2="3314.25" style="stroke:#000000;stroke-width:10.80"/>
	<circle cx="2106.56" cy="3314.25" r="18.68" style="fill:#C10534"/>
	<circle cx="2106.56" cy="3314.25" r="13.28" style="fill:none;stroke:#C10534;stroke-width:10.80"/>
	<text x="909.45" y="3183.09" style="font-family:'Helvetica';font-size:124.99px;fill:#000000">Line of Equality</text>
	<text x="2394.68" y="3183.09" style="font-family:'Helvetica';font-size:124.99px;fill:#000000">p85 regression</text>
	<text x="909.45" y="3358.02" style="font-family:'Helvetica';font-size:124.99px;fill:#000000">p15 regression</text>
	<text x="2394.68" y="3358.02" style="font-family:'Helvetica';font-size:124.99px;fill:#000000">Mean ORF</text>
	<text x="2121.30" y="270.08" style="font-family:'Helvetica';font-size:175.05px;fill:#1E2D53" text-anchor="middle">Change in Mean ORF (cwpm)</text>
	<text x="2121.30" y="445.02" style="font-family:'Helvetica';font-size:175.05px;fill:#1E2D53" text-anchor="middle">over time, with lines of regression</text>
</svg>
