<?xml version="1.0" encoding="UTF-8" standalone="no"?>
<!-- This is a Stata 15.1 generated SVG file (http://www.stata.com) -->

<svg version="1.1" width="5.00in" height="5.00in" viewBox="0 0 3600 3600" xmlns="http://www.w3.org/2000/svg" xmlns:xlink="http://www.w3.org/1999/xlink">
	<desc>Stata Graph - pct_zero_plot</desc>
	<rect x="0" y="0" width="3600" height="3600" style="fill:#EAF2F3;stroke:none"/>
	<rect x="0.00" y="0.00" width="3600.00" height="3600.00" style="fill:#EAF2F3"/>
	<rect x="3.60" y="3.60" width="3592.80" height="3592.80" style="fill:none;stroke:#EAF2F3;stroke-width:7.20"/>
	<rect x="993.15" y="519.19" width="2146.50" height="1786.39" style="fill:#FFFFFF"/>
	<rect x="996.75" y="522.79" width="2139.30" height="1779.19" style="fill:none;stroke:#FFFFFF;stroke-width:7.20"/>
	<path d=" M2715.30 763.43 L2819.14 659.70 L2715.30 763.43 L2819.14 659.70 L1915.88 1562.96 L1993.50 1485.22 L1915.88 1562.96 L1993.50 1485.22 L2442.94 1035.90 L2672.55 806.29 L2442.94 1035.90 L2672.55 806.29 L1670.63 1808.21 L1814.06 1664.78 L1670.63 1808.21 L1814.06 1664.78 L2848.84 630.00 L2880.34 598.50 L2848.84 630.00 L2880.34 598.50 L1980.11 1498.72 L2056.61 1422.22 L1980.11 1498.72 L2056.61 1422.22 L1780.76 1698.08 L1760.40 1718.44 L1506.94 1971.90 L1489.39 1989.45 L1695.83 1783.01 L1644.86 1833.86 L1442.03 2036.81 L1453.84 2025.00 L1944.34 1534.39 L1884.15 1594.69 L1488.83 1990.01 L1525.61 1953.22 L2416.39 1062.45 L2793.71 685.13 L2089.57 1389.26 L2207.70 1271.14" stroke-linecap="round" stroke-linejoin="round" style="fill:none;stroke:#C0C0C0;stroke-width:5.40"/>
	<line x1="1442.03" y1="1948.61" x2="1456.54" y2="1937.36" style="stroke:#000000;stroke-width:10.80"/>
	<line x1="1456.54" y1="1937.36" x2="1464.97" y2="1931.06" style="stroke:#000000;stroke-width:10.80"/>
	<line x1="1485.11" y1="1915.99" x2="1485.67" y2="1915.54" style="stroke:#000000;stroke-width:10.80"/>
	<line x1="1485.67" y1="1915.54" x2="1500.19" y2="1904.74" style="stroke:#000000;stroke-width:10.80"/>
	<line x1="1500.19" y1="1904.74" x2="1508.29" y2="1898.89" style="stroke:#000000;stroke-width:10.80"/>
	<line x1="1528.76" y1="1884.15" x2="1529.21" y2="1883.81" style="stroke:#000000;stroke-width:10.80"/>
	<line x1="1529.21" y1="1883.81" x2="1543.72" y2="1873.46" style="stroke:#000000;stroke-width:10.80"/>
	<line x1="1543.72" y1="1873.46" x2="1552.28" y2="1867.50" style="stroke:#000000;stroke-width:10.80"/>
	<line x1="1573.09" y1="1853.21" x2="1587.38" y2="1843.42" style="stroke:#000000;stroke-width:10.80"/>
	<line x1="1587.38" y1="1843.42" x2="1596.83" y2="1837.01" style="stroke:#000000;stroke-width:10.80"/>
	<line x1="1617.86" y1="1823.17" x2="1630.91" y2="1814.63" style="stroke:#000000;stroke-width:10.80"/>
	<line x1="1630.91" y1="1814.63" x2="1642.05" y2="1807.54" style="stroke:#000000;stroke-width:10.80"/>
	<line x1="1663.31" y1="1794.04" x2="1674.56" y2="1787.17" style="stroke:#000000;stroke-width:10.80"/>
	<line x1="1674.56" y1="1787.17" x2="1687.95" y2="1779.08" style="stroke:#000000;stroke-width:10.80"/>
	<line x1="1709.55" y1="1766.14" x2="1718.10" y2="1761.08" style="stroke:#000000;stroke-width:10.80"/>
	<line x1="1718.10" y1="1761.08" x2="1732.61" y2="1752.64" style="stroke:#000000;stroke-width:10.80"/>
	<line x1="1732.61" y1="1752.64" x2="1734.41" y2="1751.63" style="stroke:#000000;stroke-width:10.80"/>
	<line x1="1756.35" y1="1739.14" x2="1761.64" y2="1736.21" style="stroke:#000000;stroke-width:10.80"/>
	<line x1="1761.64" y1="1736.21" x2="1776.26" y2="1728.22" style="stroke:#000000;stroke-width:10.80"/>
	<line x1="1776.26" y1="1728.22" x2="1781.66" y2="1725.30" style="stroke:#000000;stroke-width:10.80"/>
	<line x1="1803.83" y1="1713.38" x2="1805.29" y2="1712.59" style="stroke:#000000;stroke-width:10.80"/>
	<line x1="1805.29" y1="1712.59" x2="1819.80" y2="1705.05" style="stroke:#000000;stroke-width:10.80"/>
	<line x1="1819.80" y1="1705.05" x2="1829.36" y2="1700.21" style="stroke:#000000;stroke-width:10.80"/>
	<line x1="1851.97" y1="1688.85" x2="1863.34" y2="1683.22" style="stroke:#000000;stroke-width:10.80"/>
	<line x1="1863.34" y1="1683.22" x2="1877.85" y2="1676.25" style="stroke:#000000;stroke-width:10.80"/>
	<line x1="1900.69" y1="1665.56" x2="1906.99" y2="1662.64" style="stroke:#000000;stroke-width:10.80"/>
	<line x1="1906.99" y1="1662.64" x2="1921.50" y2="1656.11" style="stroke:#000000;stroke-width:10.80"/>
	<line x1="1921.50" y1="1656.11" x2="1926.90" y2="1653.75" style="stroke:#000000;stroke-width:10.80"/>
	<line x1="1949.96" y1="1643.63" x2="1950.53" y2="1643.40" style="stroke:#000000;stroke-width:10.80"/>
	<line x1="1950.53" y1="1643.40" x2="1965.04" y2="1637.21" style="stroke:#000000;stroke-width:10.80"/>
	<line x1="1965.04" y1="1637.21" x2="1976.51" y2="1632.49" style="stroke:#000000;stroke-width:10.80"/>
	<line x1="1999.91" y1="1623.15" x2="2008.69" y2="1619.78" style="stroke:#000000;stroke-width:10.80"/>
	<line x1="2008.69" y1="1619.78" x2="2023.20" y2="1614.15" style="stroke:#000000;stroke-width:10.80"/>
	<line x1="2023.20" y1="1614.15" x2="2026.80" y2="1612.80" style="stroke:#000000;stroke-width:10.80"/>
	<line x1="2050.43" y1="1604.14" x2="2052.22" y2="1603.46" style="stroke:#000000;stroke-width:10.80"/>
	<line x1="2052.22" y1="1603.46" x2="2066.74" y2="1598.40" style="stroke:#000000;stroke-width:10.80"/>
	<line x1="2066.74" y1="1598.40" x2="2077.65" y2="1594.58" style="stroke:#000000;stroke-width:10.80"/>
	<line x1="2101.61" y1="1586.59" x2="2110.39" y2="1583.78" style="stroke:#000000;stroke-width:10.80"/>
	<line x1="2110.39" y1="1583.78" x2="2124.90" y2="1579.28" style="stroke:#000000;stroke-width:10.80"/>
	<line x1="2124.90" y1="1579.28" x2="2129.06" y2="1578.04" style="stroke:#000000;stroke-width:10.80"/>
	<line x1="2153.25" y1="1570.84" x2="2153.93" y2="1570.61" style="stroke:#000000;stroke-width:10.80"/>
	<line x1="2153.93" y1="1570.61" x2="2168.44" y2="1566.45" style="stroke:#000000;stroke-width:10.80"/>
	<line x1="2168.44" y1="1566.45" x2="2180.93" y2="1563.08" style="stroke:#000000;stroke-width:10.80"/>
	<line x1="2205.34" y1="1556.66" x2="2212.09" y2="1554.97" style="stroke:#000000;stroke-width:10.80"/>
	<line x1="2212.09" y1="1554.97" x2="2226.60" y2="1551.49" style="stroke:#000000;stroke-width:10.80"/>
	<line x1="2226.60" y1="1551.49" x2="2233.35" y2="1549.91" style="stroke:#000000;stroke-width:10.80"/>
	<line x1="2257.88" y1="1544.29" x2="2270.14" y2="1541.70" style="stroke:#000000;stroke-width:10.80"/>
	<line x1="2270.14" y1="1541.70" x2="2284.65" y2="1538.66" style="stroke:#000000;stroke-width:10.80"/>
	<line x1="2284.65" y1="1538.66" x2="2286.11" y2="1538.32" style="stroke:#000000;stroke-width:10.80"/>
	<line x1="2310.86" y1="1533.71" x2="2313.79" y2="1533.15" style="stroke:#000000;stroke-width:10.80"/>
	<line x1="2313.79" y1="1533.15" x2="2328.30" y2="1530.68" style="stroke:#000000;stroke-width:10.80"/>
	<line x1="2328.30" y1="1530.68" x2="2339.21" y2="1528.76" style="stroke:#000000;stroke-width:10.80"/>
	<line x1="2364.19" y1="1525.05" x2="2371.84" y2="1523.93" style="stroke:#000000;stroke-width:10.80"/>
	<line x1="2371.84" y1="1523.93" x2="2386.35" y2="1521.90" style="stroke:#000000;stroke-width:10.80"/>
	<line x1="2386.35" y1="1521.90" x2="2392.76" y2="1521.11" style="stroke:#000000;stroke-width:10.80"/>
	<line x1="2417.74" y1="1518.19" x2="2430.00" y2="1516.84" style="stroke:#000000;stroke-width:10.80"/>
	<line x1="2430.00" y1="1516.84" x2="2444.51" y2="1515.49" style="stroke:#000000;stroke-width:10.80"/>
	<line x1="2444.51" y1="1515.49" x2="2446.43" y2="1515.38" style="stroke:#000000;stroke-width:10.80"/>
	<line x1="2471.51" y1="1513.24" x2="2473.54" y2="1513.13" style="stroke:#000000;stroke-width:10.80"/>
	<line x1="2473.54" y1="1513.13" x2="2488.05" y2="1512.22" style="stroke:#000000;stroke-width:10.80"/>
	<line x1="2488.05" y1="1512.22" x2="2500.31" y2="1511.55" style="stroke:#000000;stroke-width:10.80"/>
	<line x1="2525.51" y1="1510.43" x2="2531.70" y2="1510.20" style="stroke:#000000;stroke-width:10.80"/>
	<line x1="2531.70" y1="1510.20" x2="2546.21" y2="1509.75" style="stroke:#000000;stroke-width:10.80"/>
	<line x1="2546.21" y1="1509.75" x2="2554.31" y2="1509.64" style="stroke:#000000;stroke-width:10.80"/>
	<line x1="2579.51" y1="1509.41" x2="2589.75" y2="1509.53" style="stroke:#000000;stroke-width:10.80"/>
	<line x1="2589.75" y1="1509.53" x2="2604.38" y2="1509.64" style="stroke:#000000;stroke-width:10.80"/>
	<line x1="2604.38" y1="1509.64" x2="2608.31" y2="1509.75" style="stroke:#000000;stroke-width:10.80"/>
	<line x1="2633.51" y1="1510.43" x2="2647.91" y2="1511.10" style="stroke:#000000;stroke-width:10.80"/>
	<line x1="2647.91" y1="1511.10" x2="2662.31" y2="1511.89" style="stroke:#000000;stroke-width:10.80"/>
	<line x1="2687.51" y1="1513.46" x2="2691.45" y2="1513.80" style="stroke:#000000;stroke-width:10.80"/>
	<line x1="2691.45" y1="1513.80" x2="2706.07" y2="1515.04" style="stroke:#000000;stroke-width:10.80"/>
	<line x1="2706.07" y1="1515.04" x2="2716.20" y2="1515.94" style="stroke:#000000;stroke-width:10.80"/>
	<line x1="2741.29" y1="1518.53" x2="2749.61" y2="1519.43" style="stroke:#000000;stroke-width:10.80"/>
	<line x1="2749.61" y1="1519.43" x2="2764.13" y2="1521.22" style="stroke:#000000;stroke-width:10.80"/>
	<line x1="2764.13" y1="1521.22" x2="2769.86" y2="1522.01" style="stroke:#000000;stroke-width:10.80"/>
	<line x1="2794.84" y1="1525.50" x2="2807.66" y2="1527.41" style="stroke:#000000;stroke-width:10.80"/>
	<line x1="2807.66" y1="1527.41" x2="2822.29" y2="1529.78" style="stroke:#000000;stroke-width:10.80"/>
	<line x1="2822.29" y1="1529.78" x2="2823.30" y2="1530.00" style="stroke:#000000;stroke-width:10.80"/>
	<line x1="2848.16" y1="1534.28" x2="2851.31" y2="1534.84" style="stroke:#000000;stroke-width:10.80"/>
	<line x1="2851.31" y1="1534.84" x2="2865.82" y2="1537.65" style="stroke:#000000;stroke-width:10.80"/>
	<line x1="2865.82" y1="1537.65" x2="2876.40" y2="1539.79" style="stroke:#000000;stroke-width:10.80"/>
	<path d="" stroke-linecap="round" stroke-linejoin="round" style="fill:none;stroke:#000000;stroke-width:10.80"/>
	<line x1="1442.03" y1="2105.55" x2="1456.54" y2="2104.09" style="stroke:#000000;stroke-width:10.80"/>
	<line x1="1456.54" y1="2104.09" x2="1470.71" y2="2102.51" style="stroke:#000000;stroke-width:10.80"/>
	<line x1="1495.80" y1="2099.81" x2="1500.19" y2="2099.36" style="stroke:#000000;stroke-width:10.80"/>
	<line x1="1500.19" y1="2099.36" x2="1514.70" y2="2097.68" style="stroke:#000000;stroke-width:10.80"/>
	<line x1="1514.70" y1="2097.68" x2="1524.38" y2="2096.55" style="stroke:#000000;stroke-width:10.80"/>
	<line x1="1549.35" y1="2093.40" x2="1558.24" y2="2092.28" style="stroke:#000000;stroke-width:10.80"/>
	<line x1="1558.24" y1="2092.28" x2="1572.86" y2="2090.36" style="stroke:#000000;stroke-width:10.80"/>
	<line x1="1572.86" y1="2090.36" x2="1577.92" y2="2089.69" style="stroke:#000000;stroke-width:10.80"/>
	<line x1="1602.90" y1="2086.31" x2="1616.40" y2="2084.40" style="stroke:#000000;stroke-width:10.80"/>
	<line x1="1616.40" y1="2084.40" x2="1630.91" y2="2082.26" style="stroke:#000000;stroke-width:10.80"/>
	<line x1="1630.91" y1="2082.26" x2="1631.47" y2="2082.15" style="stroke:#000000;stroke-width:10.80"/>
	<line x1="1656.34" y1="2078.32" x2="1659.94" y2="2077.76" style="stroke:#000000;stroke-width:10.80"/>
	<line x1="1659.94" y1="2077.76" x2="1674.56" y2="2075.51" style="stroke:#000000;stroke-width:10.80"/>
	<line x1="1674.56" y1="2075.51" x2="1684.80" y2="2073.82" style="stroke:#000000;stroke-width:10.80"/>
	<line x1="1709.66" y1="2069.78" x2="1718.10" y2="2068.31" style="stroke:#000000;stroke-width:10.80"/>
	<line x1="1718.10" y1="2068.31" x2="1732.61" y2="2065.84" style="stroke:#000000;stroke-width:10.80"/>
	<line x1="1732.61" y1="2065.84" x2="1738.01" y2="2064.94" style="stroke:#000000;stroke-width:10.80"/>
	<line x1="1762.76" y1="2060.32" x2="1776.26" y2="2057.85" style="stroke:#000000;stroke-width:10.80"/>
	<line x1="1776.26" y1="2057.85" x2="1790.78" y2="2055.15" style="stroke:#000000;stroke-width:10.80"/>
	<line x1="1790.78" y1="2055.15" x2="1791.11" y2="2055.15" style="stroke:#000000;stroke-width:10.80"/>
	<line x1="1815.75" y1="2050.31" x2="1819.80" y2="2049.53" style="stroke:#000000;stroke-width:10.80"/>
	<line x1="1819.80" y1="2049.53" x2="1834.31" y2="2046.60" style="stroke:#000000;stroke-width:10.80"/>
	<line x1="1834.31" y1="2046.60" x2="1843.99" y2="2044.58" style="stroke:#000000;stroke-width:10.80"/>
	<line x1="1868.74" y1="2039.51" x2="1877.85" y2="2037.49" style="stroke:#000000;stroke-width:10.80"/>
	<line x1="1877.85" y1="2037.49" x2="1892.47" y2="2034.34" style="stroke:#000000;stroke-width:10.80"/>
	<line x1="1892.47" y1="2034.34" x2="1896.86" y2="2033.44" style="stroke:#000000;stroke-width:10.80"/>
	<line x1="1921.50" y1="2027.92" x2="1921.50" y2="2027.92" style="stroke:#000000;stroke-width:10.80"/>
	<line x1="1921.50" y1="2027.92" x2="1936.01" y2="2024.66" style="stroke:#000000;stroke-width:10.80"/>
	<line x1="1936.01" y1="2024.66" x2="1949.51" y2="2021.51" style="stroke:#000000;stroke-width:10.80"/>
	<line x1="1974.04" y1="2015.78" x2="1979.55" y2="2014.42" style="stroke:#000000;stroke-width:10.80"/>
	<line x1="1979.55" y1="2014.42" x2="1994.17" y2="2010.83" style="stroke:#000000;stroke-width:10.80"/>
	<line x1="1994.17" y1="2010.83" x2="2002.05" y2="2008.91" style="stroke:#000000;stroke-width:10.80"/>
	<line x1="2026.46" y1="2002.84" x2="2037.71" y2="1999.91" style="stroke:#000000;stroke-width:10.80"/>
	<line x1="2037.71" y1="1999.91" x2="2052.22" y2="1996.20" style="stroke:#000000;stroke-width:10.80"/>
	<line x1="2052.22" y1="1996.20" x2="2054.36" y2="1995.64" style="stroke:#000000;stroke-width:10.80"/>
	<line x1="2078.66" y1="1989.22" x2="2081.25" y2="1988.55" style="stroke:#000000;stroke-width:10.80"/>
	<line x1="2081.25" y1="1988.55" x2="2095.88" y2="1984.61" style="stroke:#000000;stroke-width:10.80"/>
	<line x1="2095.88" y1="1984.61" x2="2106.45" y2="1981.69" style="stroke:#000000;stroke-width:10.80"/>
	<line x1="2130.86" y1="1974.94" x2="2139.41" y2="1972.46" style="stroke:#000000;stroke-width:10.80"/>
	<line x1="2139.41" y1="1972.46" x2="2153.93" y2="1968.30" style="stroke:#000000;stroke-width:10.80"/>
	<line x1="2153.93" y1="1968.30" x2="2158.54" y2="1966.95" style="stroke:#000000;stroke-width:10.80"/>
	<line x1="2182.72" y1="1959.86" x2="2182.95" y2="1959.86" style="stroke:#000000;stroke-width:10.80"/>
	<line x1="2182.95" y1="1959.86" x2="2197.57" y2="1955.59" style="stroke:#000000;stroke-width:10.80"/>
	<line x1="2197.57" y1="1955.59" x2="2210.29" y2="1951.76" style="stroke:#000000;stroke-width:10.80"/>
	<line x1="2234.36" y1="1944.45" x2="2241.11" y2="1942.31" style="stroke:#000000;stroke-width:10.80"/>
	<line x1="2241.11" y1="1942.31" x2="2255.63" y2="1937.70" style="stroke:#000000;stroke-width:10.80"/>
	<line x1="2255.63" y1="1937.70" x2="2261.81" y2="1935.79" style="stroke:#000000;stroke-width:10.80"/>
	<line x1="2285.89" y1="1928.14" x2="2299.28" y2="1923.75" style="stroke:#000000;stroke-width:10.80"/>
	<line x1="2299.28" y1="1923.75" x2="2313.22" y2="1919.14" style="stroke:#000000;stroke-width:10.80"/>
	<line x1="2337.19" y1="1911.26" x2="2342.81" y2="1909.35" style="stroke:#000000;stroke-width:10.80"/>
	<line x1="2342.81" y1="1909.35" x2="2357.32" y2="1904.40" style="stroke:#000000;stroke-width:10.80"/>
	<line x1="2357.32" y1="1904.40" x2="2364.41" y2="1902.04" style="stroke:#000000;stroke-width:10.80"/>
	<line x1="2388.15" y1="1893.71" x2="2400.97" y2="1889.21" style="stroke:#000000;stroke-width:10.80"/>
	<line x1="2400.97" y1="1889.21" x2="2415.38" y2="1884.15" style="stroke:#000000;stroke-width:10.80"/>
	<line x1="2439.00" y1="1875.60" x2="2444.51" y2="1873.58" style="stroke:#000000;stroke-width:10.80"/>
	<line x1="2444.51" y1="1873.58" x2="2459.03" y2="1868.29" style="stroke:#000000;stroke-width:10.80"/>
	<line x1="2459.03" y1="1868.29" x2="2466.00" y2="1865.70" style="stroke:#000000;stroke-width:10.80"/>
	<line x1="2489.63" y1="1856.92" x2="2502.68" y2="1851.97" style="stroke:#000000;stroke-width:10.80"/>
	<line x1="2502.68" y1="1851.97" x2="2516.63" y2="1846.69" style="stroke:#000000;stroke-width:10.80"/>
	<line x1="2540.14" y1="1837.58" x2="2546.21" y2="1835.21" style="stroke:#000000;stroke-width:10.80"/>
	<line x1="2546.21" y1="1835.21" x2="2560.72" y2="1829.47" style="stroke:#000000;stroke-width:10.80"/>
	<line x1="2560.72" y1="1829.47" x2="2566.80" y2="1827.00" style="stroke:#000000;stroke-width:10.80"/>
	<line x1="2590.20" y1="1817.66" x2="2604.38" y2="1811.92" style="stroke:#000000;stroke-width:10.80"/>
	<line x1="2604.38" y1="1811.92" x2="2616.97" y2="1806.86" style="stroke:#000000;stroke-width:10.80"/>
	<line x1="2640.26" y1="1797.08" x2="2647.91" y2="1793.92" style="stroke:#000000;stroke-width:10.80"/>
	<line x1="2647.91" y1="1793.92" x2="2662.43" y2="1787.85" style="stroke:#000000;stroke-width:10.80"/>
	<line x1="2662.43" y1="1787.85" x2="2666.81" y2="1786.05" style="stroke:#000000;stroke-width:10.80"/>
	<line x1="2689.88" y1="1776.15" x2="2691.45" y2="1775.47" style="stroke:#000000;stroke-width:10.80"/>
	<line x1="2691.45" y1="1775.47" x2="2706.07" y2="1769.17" style="stroke:#000000;stroke-width:10.80"/>
	<line x1="2706.07" y1="1769.17" x2="2716.43" y2="1764.67" style="stroke:#000000;stroke-width:10.80"/>
	<line x1="2739.49" y1="1754.55" x2="2749.61" y2="1750.05" style="stroke:#000000;stroke-width:10.80"/>
	<line x1="2749.61" y1="1750.05" x2="2764.13" y2="1743.53" style="stroke:#000000;stroke-width:10.80"/>
	<line x1="2764.13" y1="1743.53" x2="2765.70" y2="1742.74" style="stroke:#000000;stroke-width:10.80"/>
	<line x1="2788.65" y1="1732.39" x2="2793.15" y2="1730.36" style="stroke:#000000;stroke-width:10.80"/>
	<line x1="2793.15" y1="1730.36" x2="2807.66" y2="1723.72" style="stroke:#000000;stroke-width:10.80"/>
	<line x1="2807.66" y1="1723.72" x2="2814.86" y2="1720.46" style="stroke:#000000;stroke-width:10.80"/>
	<line x1="2837.70" y1="1709.78" x2="2851.31" y2="1703.36" style="stroke:#000000;stroke-width:10.80"/>
	<line x1="2851.31" y1="1703.36" x2="2863.69" y2="1697.40" style="stroke:#000000;stroke-width:10.80"/>
	<path d="" stroke-linecap="round" stroke-linejoin="round" style="fill:none;stroke:#000000;stroke-width:10.80"/>
	<circle cx="2715.30" cy="1698.08" r="18.68" style="fill:#C10534"/>
	<circle cx="2715.30" cy="1698.08" r="13.28" style="fill:none;stroke:#C10534;stroke-width:10.80"/>
	<circle cx="2819.14" cy="1718.44" r="18.68" style="fill:#C10534"/>
	<circle cx="2819.14" cy="1718.44" r="13.28" style="fill:none;stroke:#C10534;stroke-width:10.80"/>
	<circle cx="2715.30" cy="1725.75" r="18.68" style="fill:#C10534"/>
	<circle cx="2715.30" cy="1725.75" r="13.28" style="fill:none;stroke:#C10534;stroke-width:10.80"/>
	<circle cx="2819.14" cy="1598.85" r="18.68" style="fill:#C10534"/>
	<circle cx="2819.14" cy="1598.85" r="13.28" style="fill:none;stroke:#C10534;stroke-width:10.80"/>
	<circle cx="1915.88" cy="1971.90" r="18.68" style="fill:#C10534"/>
	<circle cx="1915.88" cy="1971.90" r="13.28" style="fill:none;stroke:#C10534;stroke-width:10.80"/>
	<circle cx="1993.50" cy="1989.45" r="18.68" style="fill:#C10534"/>
	<circle cx="1993.50" cy="1989.45" r="13.28" style="fill:none;stroke:#C10534;stroke-width:10.80"/>
	<circle cx="1915.88" cy="2021.40" r="18.68" style="fill:#C10534"/>
	<circle cx="1915.88" cy="2021.40" r="13.28" style="fill:none;stroke:#C10534;stroke-width:10.80"/>
	<circle cx="1993.50" cy="1996.65" r="18.68" style="fill:#C10534"/>
	<circle cx="1993.50" cy="1996.65" r="13.28" style="fill:none;stroke:#C10534;stroke-width:10.80"/>
	<circle cx="2442.94" cy="1783.01" r="18.68" style="fill:#C10534"/>
	<circle cx="2442.94" cy="1783.01" r="13.28" style="fill:none;stroke:#C10534;stroke-width:10.80"/>
	<circle cx="2672.55" cy="1833.86" r="18.68" style="fill:#C10534"/>
	<circle cx="2672.55" cy="1833.86" r="13.28" style="fill:none;stroke:#C10534;stroke-width:10.80"/>
	<circle cx="2442.94" cy="1822.05" r="18.68" style="fill:#C10534"/>
	<circle cx="2442.94" cy="1822.05" r="13.28" style="fill:none;stroke:#C10534;stroke-width:10.80"/>
	<circle cx="2672.55" cy="1733.96" r="18.68" style="fill:#C10534"/>
	<circle cx="2672.55" cy="1733.96" r="13.28" style="fill:none;stroke:#C10534;stroke-width:10.80"/>
	<circle cx="1670.63" cy="2036.81" r="18.68" style="fill:#C10534"/>
	<circle cx="1670.63" cy="2036.81" r="13.28" style="fill:none;stroke:#C10534;stroke-width:10.80"/>
	<circle cx="1814.06" cy="2025.00" r="18.68" style="fill:#C10534"/>
	<circle cx="1814.06" cy="2025.00" r="13.28" style="fill:none;stroke:#C10534;stroke-width:10.80"/>
	<circle cx="1670.63" cy="2105.55" r="18.68" style="fill:#C10534"/>
	<circle cx="1670.63" cy="2105.55" r="13.28" style="fill:none;stroke:#C10534;stroke-width:10.80"/>
	<circle cx="1814.06" cy="2068.09" r="18.68" style="fill:#C10534"/>
	<circle cx="1814.06" cy="2068.09" r="13.28" style="fill:none;stroke:#C10534;stroke-width:10.80"/>
	<circle cx="2848.84" cy="1534.39" r="18.68" style="fill:#C10534"/>
	<circle cx="2848.84" cy="1534.39" r="13.28" style="fill:none;stroke:#C10534;stroke-width:10.80"/>
	<circle cx="2880.34" cy="1594.69" r="18.68" style="fill:#C10534"/>
	<circle cx="2880.34" cy="1594.69" r="13.28" style="fill:none;stroke:#C10534;stroke-width:10.80"/>
	<circle cx="2848.84" cy="1645.99" r="18.68" style="fill:#C10534"/>
	<circle cx="2848.84" cy="1645.99" r="13.28" style="fill:none;stroke:#C10534;stroke-width:10.80"/>
	<circle cx="2880.34" cy="1592.55" r="18.68" style="fill:#C10534"/>
	<circle cx="2880.34" cy="1592.55" r="13.28" style="fill:none;stroke:#C10534;stroke-width:10.80"/>
	<circle cx="1980.11" cy="1990.01" r="18.68" style="fill:#C10534"/>
	<circle cx="1980.11" cy="1990.01" r="13.28" style="fill:none;stroke:#C10534;stroke-width:10.80"/>
	<circle cx="2056.61" cy="1953.22" r="18.68" style="fill:#C10534"/>
	<circle cx="2056.61" cy="1953.22" r="13.28" style="fill:none;stroke:#C10534;stroke-width:10.80"/>
	<circle cx="1980.11" cy="1936.91" r="18.68" style="fill:#C10534"/>
	<circle cx="1980.11" cy="1936.91" r="13.28" style="fill:none;stroke:#C10534;stroke-width:10.80"/>
	<circle cx="2056.61" cy="1995.08" r="18.68" style="fill:#C10534"/>
	<circle cx="2056.61" cy="1995.08" r="13.28" style="fill:none;stroke:#C10534;stroke-width:10.80"/>
	<circle cx="1780.76" cy="1725.75" r="18.68" style="fill:#C10534"/>
	<circle cx="1780.76" cy="1725.75" r="13.28" style="fill:none;stroke:#C10534;stroke-width:10.80"/>
	<circle cx="1760.40" cy="1598.85" r="18.68" style="fill:#C10534"/>
	<circle cx="1760.40" cy="1598.85" r="13.28" style="fill:none;stroke:#C10534;stroke-width:10.80"/>
	<circle cx="1506.94" cy="2021.40" r="18.68" style="fill:#C10534"/>
	<circle cx="1506.94" cy="2021.40" r="13.28" style="fill:none;stroke:#C10534;stroke-width:10.80"/>
	<circle cx="1489.39" cy="1996.65" r="18.68" style="fill:#C10534"/>
	<circle cx="1489.39" cy="1996.65" r="13.28" style="fill:none;stroke:#C10534;stroke-width:10.80"/>
	<circle cx="1695.83" cy="1822.05" r="18.68" style="fill:#C10534"/>
	<circle cx="1695.83" cy="1822.05" r="13.28" style="fill:none;stroke:#C10534;stroke-width:10.80"/>
	<circle cx="1644.86" cy="1733.96" r="18.68" style="fill:#C10534"/>
	<circle cx="1644.86" cy="1733.96" r="13.28" style="fill:none;stroke:#C10534;stroke-width:10.80"/>
	<circle cx="1442.03" cy="2105.55" r="18.68" style="fill:#C10534"/>
	<circle cx="1442.03" cy="2105.55" r="13.28" style="fill:none;stroke:#C10534;stroke-width:10.80"/>
	<circle cx="1453.84" cy="2068.09" r="18.68" style="fill:#C10534"/>
	<circle cx="1453.84" cy="2068.09" r="13.28" style="fill:none;stroke:#C10534;stroke-width:10.80"/>
	<circle cx="1944.34" cy="1645.99" r="18.68" style="fill:#C10534"/>
	<circle cx="1944.34" cy="1645.99" r="13.28" style="fill:none;stroke:#C10534;stroke-width:10.80"/>
	<circle cx="1884.15" cy="1592.55" r="18.68" style="fill:#C10534"/>
	<circle cx="1884.15" cy="1592.55" r="13.28" style="fill:none;stroke:#C10534;stroke-width:10.80"/>
	<circle cx="1488.83" cy="1936.91" r="18.68" style="fill:#C10534"/>
	<circle cx="1488.83" cy="1936.91" r="13.28" style="fill:none;stroke:#C10534;stroke-width:10.80"/>
	<circle cx="1525.61" cy="1995.08" r="18.68" style="fill:#C10534"/>
	<circle cx="1525.61" cy="1995.08" r="13.28" style="fill:none;stroke:#C10534;stroke-width:10.80"/>
	<circle cx="2416.39" cy="1765.35" r="18.68" style="fill:#C10534"/>
	<circle cx="2416.39" cy="1765.35" r="13.28" style="fill:none;stroke:#C10534;stroke-width:10.80"/>
	<circle cx="2793.71" cy="1277.10" r="18.68" style="fill:#C10534"/>
	<circle cx="2793.71" cy="1277.10" r="13.28" style="fill:none;stroke:#C10534;stroke-width:10.80"/>
	<circle cx="2089.57" cy="1989.56" r="18.68" style="fill:#C10534"/>
	<circle cx="2089.57" cy="1989.56" r="13.28" style="fill:none;stroke:#C10534;stroke-width:10.80"/>
	<circle cx="2207.70" cy="1821.26" r="18.68" style="fill:#C10534"/>
	<circle cx="2207.70" cy="1821.26" r="13.28" style="fill:none;stroke:#C10534;stroke-width:10.80"/>
	<line x1="838.80" y1="2305.57" x2="838.80" y2="519.19" style="stroke:#000000;stroke-width:7.20"/>
	<line x1="838.80" y1="2226.38" x2="788.85" y2="2226.38" style="stroke:#000000;stroke-width:7.20"/>
	<text x="726.32" y="2226.38" style="font-family:'Helvetica';font-size:124.99px;fill:#000000" transform="rotate(-90 726.32,2226.38)" text-anchor="middle">0</text>
	<line x1="838.80" y1="2005.76" x2="788.85" y2="2005.76" style="stroke:#000000;stroke-width:7.20"/>
	<text x="726.32" y="2005.76" style="font-family:'Helvetica';font-size:124.99px;fill:#000000" transform="rotate(-90 726.32,2005.76)" text-anchor="middle">.1</text>
	<line x1="838.80" y1="1785.15" x2="788.85" y2="1785.15" style="stroke:#000000;stroke-width:7.20"/>
	<text x="726.32" y="1785.15" style="font-family:'Helvetica';font-size:124.99px;fill:#000000" transform="rotate(-90 726.32,1785.15)" text-anchor="middle">.2</text>
	<line x1="838.80" y1="1564.54" x2="788.85" y2="1564.54" style="stroke:#000000;stroke-width:7.20"/>
	<text x="726.32" y="1564.54" style="font-family:'Helvetica';font-size:124.99px;fill:#000000" transform="rotate(-90 726.32,1564.54)" text-anchor="middle">.3</text>
	<line x1="838.80" y1="1343.93" x2="788.85" y2="1343.93" style="stroke:#000000;stroke-width:7.20"/>
	<text x="726.32" y="1343.93" style="font-family:'Helvetica';font-size:124.99px;fill:#000000" transform="rotate(-90 726.32,1343.93)" text-anchor="middle">.4</text>
	<line x1="838.80" y1="1123.31" x2="788.85" y2="1123.31" style="stroke:#000000;stroke-width:7.20"/>
	<text x="726.32" y="1123.31" style="font-family:'Helvetica';font-size:124.99px;fill:#000000" transform="rotate(-90 726.32,1123.31)" text-anchor="middle">.5</text>
	<line x1="838.80" y1="902.70" x2="788.85" y2="902.70" style="stroke:#000000;stroke-width:7.20"/>
	<text x="726.32" y="902.70" style="font-family:'Helvetica';font-size:124.99px;fill:#000000" transform="rotate(-90 726.32,902.70)" text-anchor="middle">.6</text>
	<line x1="838.80" y1="682.09" x2="788.85" y2="682.09" style="stroke:#000000;stroke-width:7.20"/>
	<text x="726.32" y="682.09" style="font-family:'Helvetica';font-size:124.99px;fill:#000000" transform="rotate(-90 726.32,682.09)" text-anchor="middle">.7</text>
	<text x="544.41" y="1412.44" style="font-family:'Helvetica';font-size:124.99px;fill:#000000" transform="rotate(-90 544.41,1412.44)" text-anchor="middle">Percentage of Zero Scores at t_1</text>
	<line x1="993.15" y1="2305.57" x2="3139.65" y2="2305.57" style="stroke:#000000;stroke-width:7.20"/>
	<line x1="1252.35" y1="2305.57" x2="1252.35" y2="2355.64" style="stroke:#000000;stroke-width:7.20"/>
	<text x="1252.35" y="2468.05" style="font-family:'Helvetica';font-size:124.99px;fill:#000000" text-anchor="middle">0</text>
	<line x1="1473.08" y1="2305.57" x2="1473.08" y2="2355.64" style="stroke:#000000;stroke-width:7.20"/>
	<text x="1473.08" y="2468.05" style="font-family:'Helvetica';font-size:124.99px;fill:#000000" text-anchor="middle">.1</text>
	<line x1="1693.69" y1="2305.57" x2="1693.69" y2="2355.64" style="stroke:#000000;stroke-width:7.20"/>
	<text x="1693.69" y="2468.05" style="font-family:'Helvetica';font-size:124.99px;fill:#000000" text-anchor="middle">.2</text>
	<line x1="1914.30" y1="2305.57" x2="1914.30" y2="2355.64" style="stroke:#000000;stroke-width:7.20"/>
	<text x="1914.30" y="2468.05" style="font-family:'Helvetica';font-size:124.99px;fill:#000000" text-anchor="middle">.3</text>
	<line x1="2134.91" y1="2305.57" x2="2134.91" y2="2355.64" style="stroke:#000000;stroke-width:7.20"/>
	<text x="2134.91" y="2468.05" style="font-family:'Helvetica';font-size:124.99px;fill:#000000" text-anchor="middle">.4</text>
	<line x1="2355.53" y1="2305.57" x2="2355.53" y2="2355.64" style="stroke:#000000;stroke-width:7.20"/>
	<text x="2355.53" y="2468.05" style="font-family:'Helvetica';font-size:124.99px;fill:#000000" text-anchor="middle">.5</text>
	<line x1="2576.14" y1="2305.57" x2="2576.14" y2="2355.64" style="stroke:#000000;stroke-width:7.20"/>
	<text x="2576.14" y="2468.05" style="font-family:'Helvetica';font-size:124.99px;fill:#000000" text-anchor="middle">.6</text>
	<line x1="2796.75" y1="2305.57" x2="2796.75" y2="2355.64" style="stroke:#000000;stroke-width:7.20"/>
	<text x="2796.75" y="2468.05" style="font-family:'Helvetica';font-size:124.99px;fill:#000000" text-anchor="middle">.7</text>
	<text x="2066.40" y="2791.04" style="font-family:'Helvetica';font-size:124.99px;fill:#000000" text-anchor="middle">Percentage of Zero Scores at t_0</text>
	<rect x="349.20" y="3022.76" width="2901.60" height="408.04" style="fill:#FFFFFF"/>
	<rect x="352.80" y="3026.36" width="2894.40" height="400.84" style="fill:none;stroke:#000000;stroke-width:7.20"/>
	<line x1="403.20" y1="3139.31" x2="828.11" y2="3139.31" style="stroke:#C0C0C0;stroke-width:5.40"/>
	<line x1="1849.61" y1="3139.31" x2="1878.41" y2="3139.31" style="stroke:#000000;stroke-width:10.80"/>
	<line x1="1903.61" y1="3139.31" x2="1932.41" y2="3139.31" style="stroke:#000000;stroke-width:10.80"/>
	<line x1="1957.61" y1="3139.31" x2="1986.41" y2="3139.31" style="stroke:#000000;stroke-width:10.80"/>
	<line x1="2011.61" y1="3139.31" x2="2040.41" y2="3139.31" style="stroke:#000000;stroke-width:10.80"/>
	<line x1="2065.61" y1="3139.31" x2="2094.41" y2="3139.31" style="stroke:#000000;stroke-width:10.80"/>
	<line x1="2119.61" y1="3139.31" x2="2148.41" y2="3139.31" style="stroke:#000000;stroke-width:10.80"/>
	<line x1="2173.61" y1="3139.31" x2="2202.41" y2="3139.31" style="stroke:#000000;stroke-width:10.80"/>
	<line x1="2227.61" y1="3139.31" x2="2256.41" y2="3139.31" style="stroke:#000000;stroke-width:10.80"/>
	<line x1="403.20" y1="3314.25" x2="432.00" y2="3314.25" style="stroke:#000000;stroke-width:10.80"/>
	<line x1="457.20" y1="3314.25" x2="486.00" y2="3314.25" style="stroke:#000000;stroke-width:10.80"/>
	<line x1="511.20" y1="3314.25" x2="540.00" y2="3314.25" style="stroke:#000000;stroke-width:10.80"/>
	<line x1="565.20" y1="3314.25" x2="594.00" y2="3314.25" style="stroke:#000000;stroke-width:10.80"/>
	<line x1="619.20" y1="3314.25" x2="648.00" y2="3314.25" style="stroke:#000000;stroke-width:10.80"/>
	<line x1="673.20" y1="3314.25" x2="702.00" y2="3314.25" style="stroke:#000000;stroke-width:10.80"/>
	<line x1="727.20" y1="3314.25" x2="756.00" y2="3314.25" style="stroke:#000000;stroke-width:10.80"/>
	<line x1="781.20" y1="3314.25" x2="810.00" y2="3314.25" style="stroke:#000000;stroke-width:10.80"/>
	<circle cx="2062.13" cy="3314.25" r="18.68" style="fill:#C10534"/>
	<circle cx="2062.13" cy="3314.25" r="13.28" style="fill:none;stroke:#C10534;stroke-width:10.80"/>
	<text x="896.29" y="3183.09" style="font-family:'Helvetica';font-size:124.99px;fill:#000000">Line of Equality</text>
	<text x="2342.70" y="3183.09" style="font-family:'Helvetica';font-size:124.99px;fill:#000000">p85 regression</text>
	<text x="896.29" y="3358.02" style="font-family:'Helvetica';font-size:124.99px;fill:#000000">p15 regression</text>
	<text x="2342.70" y="3358.02" style="font-family:'Helvetica';font-size:124.99px;fill:#000000">Pct Zero Scores</text>
	<text x="2066.40" y="270.08" style="font-family:'Helvetica';font-size:175.05px;fill:#1E2D53" text-anchor="middle">Change in Percentage of Zero Scores (%)</text>
	<text x="2066.40" y="445.02" style="font-family:'Helvetica';font-size:175.05px;fill:#1E2D53" text-anchor="middle">over time, with lines of regression</text>
</svg>
